<?xml version="1.0" encoding="UTF-8"?>
<svg xmlns="http://www.w3.org/2000/svg" xmlns:xlink="http://www.w3.org/1999/xlink" version="1.1" x="0px" y="0px" viewBox="0 0 3710 3710" style="enable-background:new 0 0 3710 3710;" xml:space="preserve">
<g id="Background">
	<g>
		<g>
			<rect style="fill:#FFFFFF;" width="3710" height="3710"></rect>
		</g>
	</g>
</g>
<g id="Illustration">
	<g>
		<linearGradient id="SVGID_1_" gradientUnits="userSpaceOnUse" x1="3586.3577" y1="4054.3235" x2="1113.4935" y2="983.1815">
			<stop offset="0" style="stop-color:#DAE3FE"></stop>
			<stop offset="1" style="stop-color:#E9EFFD"></stop>
		</linearGradient>
		<path style="fill:url(#SVGID_1_);" d="M2906.057,2843.176c-56.801,59.797-110.545,98.36-153.007,128.827    c-499.136,358.136-1089.747,253.741-1215.268,228.247c-185.356-37.647-543.644-110.417-802.681-415.039    c-391.9-460.866-330.875-1186.949-26.891-1666.246c55.604-87.672,349.317-574.269,946.289-652.304    c361.281-47.226,782.418,48.023,1087.395,303.533C3382.066,1306.531,3336.492,2390.027,2906.057,2843.176z"></path>
		<g>
			<path style="fill:#BDD0FB;" d="M548.606,639.925c-1.553-11.23,14.588-17.087,23.334-8.525     c88.818,86.935,297.904,341.943,202.171,744.423c-120.11,504.971-14.14,703.253,128.862,831.537     c0,0-206.018-73.317-321.053-275.219C299.483,1436.425,576.214,839.594,548.606,639.925z"></path>
			<path style="fill:#FFFFFF;" d="M606.788,806.606c6.691,58.094,12.059,116.24,14.967,174.414     c3.26,58.159,4.485,116.33,3.614,174.4c-1.129,58.056-3.516,116.056-8.75,173.814c-4.933,57.783-12.734,115.249-20.8,172.917     c-7.688,57.683-15.813,115.745-17.072,174.868c-1.318,58.996,5.484,119.268,24.776,176.979     c4.827,14.385,9.973,28.756,16.037,42.745c5.771,14.085,12.257,27.97,19.025,41.755c13.695,27.522,29.499,54.354,47.5,80.102     c36.156,51.429,81.183,98.263,131.797,139.071c5.327,4.295,13.551,4.132,18.369-0.365c4.73-4.415,4.417-11.366-0.64-15.683     l-0.036-0.031c-11.995-10.219-23.844-20.542-35.135-31.274c-5.744-5.292-11.21-10.786-16.792-16.191     c-5.344-5.576-10.934-10.981-16.077-16.69c-21.004-22.538-40.194-46.284-57.299-71.093     c-34.45-49.424-60.683-103.361-79.225-158.467c-8.917-27.644-15.483-55.752-19.539-84.143c-4.033-28.395-5.559-57.042-5.2-85.742     c0.715-57.433,8.207-114.972,15.414-172.711c7.122-57.761,13.819-115.859,17.735-174.17c2.049-29.145,3.492-58.333,4.329-87.543     c0.516-14.6,0.705-29.214,0.924-43.824c0.057-14.616,0.021-29.233-0.153-43.849c-0.821-58.47-3.702-116.94-8.71-175.299     c-5.331-58.346-12.446-116.591-22.135-174.563c-0.277-1.658-2.047-2.842-3.954-2.648     C607.906,803.577,606.607,805.006,606.788,806.606z"></path>
		</g>
		<g>
			<g>
				<path style="fill:#91B3FA;" d="M618.768,1866.969c-12.955,11.401-33.343,5.865-38.967-10.45      c-31.034-90.021-95.76-352.476,77.842-631.608c146.599-235.714,203.692-377.459,225.15-443.602      c4.538-13.987,24.293-14.051,28.949-0.103C963.107,935.088,1088.206,1453.869,618.768,1866.969z"></path>
				<path style="fill:#FFFFFF;" d="M598.215,1855.852c-0.426,0.036-0.861,0.031-1.302-0.018c-3.699-0.403-6.37-3.729-5.967-7.428      c0.458-4.193,47.923-423.19,236.954-760.142c1.82-3.242,5.926-4.398,9.174-2.58c3.245,1.822,4.4,5.927,2.58,9.174      c-187.656,334.5-234.858,750.844-235.313,755.009C603.986,1853.126,601.364,1855.587,598.215,1855.852z"></path>
			</g>
		</g>
		<g>
			
				<linearGradient id="SVGID_00000032631921545267790140000013126526403334995112_" gradientUnits="userSpaceOnUse" x1="1657.3458" y1="2557.356" x2="2234.5637" y2="825.6971">
				<stop offset="0" style="stop-color:#09005D"></stop>
				<stop offset="1" style="stop-color:#1A0F91"></stop>
			</linearGradient>
			<path style="fill:url(#SVGID_00000032631921545267790140000013126526403334995112_);" d="M3147.77,2620.175     c0,24.833-20.338,45.152-45.196,45.152H658.582c-24.858,0-45.196-20.319-45.196-45.152L593.05,1215.681     c0-24.834,29.258-73.315,82.879-69.672l2388.539-61.804c31.189-0.807,61.344,11.198,83.431,33.212     c22.086,22.014,34.171,52.113,33.434,83.274L3147.77,2620.175z"></path>
			<path style="fill:#91B3FA;" d="M3103.15,2576.857c0,23.517-19.241,42.758-42.758,42.758H717.52     c-23.517,0-42.758-19.241-42.758-42.758l-19.19-1275.013c2.26-76.727,69.529-104.304,110.306-102.675l2289.265-61.417     c21.912-0.588,43.104,7.848,58.616,23.334c15.513,15.486,23.986,36.663,23.437,58.576L3103.15,2576.857z"></path>
			<g>
				<path style="fill:#FFFFFF;" d="M700.082,1968.903c-2.201,0-4.001-1.767-4.034-3.975l-1.519-103.402      c-0.032-2.228,1.747-4.06,3.976-4.094c2.154-0.12,4.061,1.747,4.094,3.975l1.519,103.402c0.032,2.228-1.747,4.06-3.976,4.094      C700.122,1968.903,700.102,1968.903,700.082,1968.903z"></path>
				<path style="fill:#FFFFFF;" d="M696.36,1715.515c-2.201,0-4.001-1.767-4.034-3.976l-5.816-396.026      c0.121-26.624,8.33-47.892,24.398-63.29c29.197-27.975,74.846-26.57,76.773-26.495l731.006-19.618      c2.207-0.199,4.081,1.697,4.142,3.925c0.059,2.228-1.698,4.082-3.925,4.141l-731.242,19.618      c-2.079-0.083-44.419-1.379-71.17,24.257c-14.429,13.826-21.802,33.146-21.912,57.421l5.816,395.949      c0.033,2.228-1.747,4.061-3.975,4.094C696.401,1715.515,696.38,1715.515,696.36,1715.515z"></path>
			</g>
			
				<linearGradient id="SVGID_00000046339157186384715310000002918807443546727847_" gradientUnits="userSpaceOnUse" x1="1755.4028" y1="3294.489" x2="1967.4454" y2="2135.0911">
				<stop offset="0" style="stop-color:#09005D"></stop>
				<stop offset="1" style="stop-color:#1A0F91"></stop>
			</linearGradient>
			<path style="fill:url(#SVGID_00000046339157186384715310000002918807443546727847_);" d="M3196.419,2781.917H524.445     c-32.878,0-59.778-27.766-59.778-61.702l0,0c0-33.936,26.9-61.702,59.778-61.702h2671.974c32.878,0,59.778,27.766,59.778,61.702     l0,0C3256.197,2754.152,3229.297,2781.917,3196.419,2781.917z"></path>
		</g>
		<g>
			<path style="opacity:0.42;fill:#FFFFFF;" d="M3026.61,1511.101l-2261.824,15.327c-22.53,0.153-40.9-13.77-40.9-30.998v-193.999     c0-16.665,17.233-30.349,39.013-30.977l2261.824-65.235c22.973-0.663,42.069,13.398,42.069,30.977v243.907     C3066.791,1497.116,3048.859,1510.95,3026.61,1511.101z"></path>
			<path style="opacity:0.55;fill:#FFFFFF;" d="M2289.352,2380.151h-786.007c-15.556,0-28.166-12.61-28.166-28.166v-728.721     c0-15.556,12.61-28.166,28.166-28.166H2281.4c11.355,0,20.561,9.206,20.561,20.561v751.883     C2301.961,2374.506,2296.316,2380.151,2289.352,2380.151z"></path>
			<path style="opacity:0.28;fill:#FFFFFF;" d="M2312.644,2512.836c-1.291,24.452-21.413,43.661-45.898,43.816l-1524.817,9.642     c-18.888-0.159-34.117-15.516-34.117-34.405v-54.966c0-26.275,21.3-47.575,47.575-47.575h1542.327     c10.144,0,18.367,8.223,18.367,18.367L2312.644,2512.836z"></path>
			<path style="opacity:0.55;fill:#FFFFFF;" d="M1401.687,2362.045H733.241c-14.045,0-25.43-11.385-25.43-25.43v-738.514     c0-14.044,11.385-25.43,25.43-25.43h668.445c14.045,0,25.43,11.385,25.43,25.43v738.514     C1427.117,2350.659,1415.731,2362.045,1401.687,2362.045z"></path>
			<path style="opacity:0.55;fill:#FFFFFF;" d="M3042.268,2567.566h-672.005c-7.415,0-13.426-6.011-13.426-13.426v-948.703     c0-22.295,18.073-40.368,40.368-40.368h648.759c5.504,0,9.966,4.462,9.966,9.966v978.87     C3055.93,2561.449,3049.813,2567.566,3042.268,2567.566z"></path>
		</g>
		<g>
			<g>
				<g>
					
						<linearGradient id="SVGID_00000078765563824563997680000006397487561823756442_" gradientUnits="userSpaceOnUse" x1="2104.0071" y1="1255.1464" x2="1002.4528" y2="2255.6401">
						<stop offset="0" style="stop-color:#4F52FF"></stop>
						<stop offset="1" style="stop-color:#4042E2"></stop>
					</linearGradient>
					<path style="fill:url(#SVGID_00000078765563824563997680000006397487561823756442_);" d="M1840.134,1533.842l-737.958-6.618       c-14.471-0.13-26.249,11.609-26.167,26.081l3.229,566.277c0.084,14.567,12.119,26.209,26.68,25.775       c133.426-3.977,725.806-21.53,751.955-20.435c25.842,1.08,11.802-453.816,7.945-566.056       C1865.342,1544.989,1854.018,1533.967,1840.134,1533.842z"></path>
					<path style="fill:#FFFFFF;" d="M1105.186,2124.103c-2.592,0.002-4.665-2.081-4.681-4.64l-3.227-566.278       c-0.01-1.268,0.457-2.416,1.355-3.318c0.895-0.9,2.05-1.375,3.336-1.375l737.974,6.616c2.504,0.023,4.534,1.995,4.622,4.491       c9.537,277.51,9.722,490.536,0.471,542.712l-0.244,1.37l-1.392,0.02c-98.187,1.382-632.086,17.236-738.118,20.401l0.007-0.001       L1105.186,2124.103z M1101.952,1551.86c-0.372,0-0.671,0.122-0.931,0.383c-0.263,0.263-0.378,0.546-0.375,0.918l3.227,566.281       c0.003,0.712,0.569,1.293,1.257,1.293l0.102,1.681l-0.049-1.684c105.543-3.149,635.01-18.871,736.77-20.381       c8.975-54.235,8.692-265.712-0.757-540.636c-0.023-0.688-0.589-1.232-1.286-1.239L1101.952,1551.86z"></path>
				</g>
				<path style="fill:#FFFFFF;" d="M1751.073,2051.209h-483.75c-15.058,0-24.417-16.362-16.782-29.341l191.512-325.572      c7.988-13.579,27.955-12.544,34.495,1.788l92.472,202.623c5.491,12.03,21.121,15.205,30.869,6.268l37.407-34.29      c8.691-7.966,22.411-6.443,29.142,3.237l100.619,144.699C1776.035,2033.533,1766.797,2051.209,1751.073,2051.209z"></path>
				
					<ellipse transform="matrix(0.5847 -0.8112 0.8112 0.5847 -839.0945 1733.8054)" style="fill:#FFFFFF;" cx="1273.895" cy="1686.463" rx="69.541" ry="69.541"></ellipse>
			</g>
			<g>
				<g>
					
						<linearGradient id="SVGID_00000149350742221384357190000006072115701614201494_" gradientUnits="userSpaceOnUse" x1="-3800.0859" y1="2388.4761" x2="-3541.4409" y2="1759.8918" gradientTransform="matrix(-0.9998 -0.0189 -0.0189 0.9998 -2888.7844 19.4772)">
						<stop offset="0" style="stop-color:#09005D"></stop>
						<stop offset="1" style="stop-color:#1A0F91"></stop>
					</linearGradient>
					<path style="fill:url(#SVGID_00000149350742221384357190000006072115701614201494_);" d="M591.93,2219.87       c18.883-69.837,77.224-127.211,142.234-141.711c11.945-2.664,18.862-14.832,16.058-26.745c-0.02-0.083-0.039-0.166-0.058-0.248       c-9.42-40.615,16.616-72.972,55.879-82.079c39.262-9.105,76.884,8.487,86.303,49.102c6.357,27.409-1.785,58.243-19.812,78.209       c-7.429,8.228-8.025,20.51-0.828,28.942c39.617,46.411,55.733,117.251,38.601,180.612       c-25.234,93.328-112.989,135.02-200.907,111.249C621.483,2393.431,566.696,2313.198,591.93,2219.87z"></path>
					<path style="fill:#91B3FA;" d="M619.271,2308.936l1.709-1.199c-15.739-22.338-17.76-54.583-5.272-84.148       c9.917-23.484,27.665-44.958,55.851-67.577c10.502-8.43,21.638-16.432,32.408-24.165c12.966-9.315,26.372-18.945,38.799-29.414       c11.177-9.421,22.938-21.11,25.403-36.401c1.232-7.623,0.082-15.743-1.032-23.594c-1.742-12.289-3.385-23.896,3.818-32.783       l-1.623-1.313c-7.776,9.593-5.989,22.199-4.262,34.39c1.091,7.696,2.219,15.657,1.04,22.966       c-2.359,14.617-13.804,25.964-24.689,35.136c-12.364,10.417-25.737,20.026-38.67,29.316       c-10.792,7.753-21.953,15.768-32.498,24.23c-28.468,22.848-46.411,44.582-56.469,68.393       C601.017,2252.999,603.122,2286.015,619.271,2308.936z"></path>
					<path style="fill:#91B3FA;" d="M661.072,2322.416l1.962-0.71c-10.708-29.618-7.574-66.015,8.604-99.862       c16.037-33.546,42.251-60.896,63.296-80.979l-1.44-1.509c-21.176,20.201-47.557,47.735-63.741,81.591       C653.337,2255.292,650.172,2292.275,661.072,2322.416z"></path>
				</g>
				
					<linearGradient id="SVGID_00000000189105078143687720000009161977007242144896_" gradientUnits="userSpaceOnUse" x1="787.2969" y1="2275.7656" x2="1100.5989" y2="1847.923">
					<stop offset="0" style="stop-color:#FEBBBA"></stop>
					<stop offset="1" style="stop-color:#FF928E"></stop>
				</linearGradient>
				<path style="fill:url(#SVGID_00000000189105078143687720000009161977007242144896_);" d="M1082.677,1939.292l0.725-24.12      l-25.211-50.06c-4.612-9.158-4.648-19.951-0.097-29.139l28.56-57.662c0,0,16.494,125.161,20.832,135.564      c4.339,10.402-11.768,29.093-11.768,29.093L1082.677,1939.292z"></path>
				
					<linearGradient id="SVGID_00000119112477821060549640000011217988085020656800_" gradientUnits="userSpaceOnUse" x1="843.5287" y1="2316.9434" x2="1156.8314" y2="1889.0999">
					<stop offset="0" style="stop-color:#FEBBBA"></stop>
					<stop offset="1" style="stop-color:#FF928E"></stop>
				</linearGradient>
				<path style="fill:url(#SVGID_00000119112477821060549640000011217988085020656800_);" d="M1083.402,1915.173      c0,0-76.682,209.042-207.342,274.376c0,0,43.488,70.956,66.183,75.26c0,0,139.579-178.645,153.809-325.004L1083.402,1915.173z"></path>
				
					<linearGradient id="SVGID_00000128466836732753977210000012871906612326090147_" gradientUnits="userSpaceOnUse" x1="-3506.3386" y1="3207.7407" x2="-3438.3391" y2="3207.7407" gradientTransform="matrix(-1 0 0 1 -2948.3323 0)">
					<stop offset="0" style="stop-color:#09005D"></stop>
					<stop offset="1" style="stop-color:#1A0F91"></stop>
				</linearGradient>
				<path style="fill:url(#SVGID_00000128466836732753977210000012871906612326090147_);" d="M557.926,3172.623l-3.857,31.703      c-4.015,15.067-23.411,53.031-48.305,50.559c-15.316-1.521-17.16-46.27-15.027-52.982c3.89-12.238,11.006-30.61,21.266-41.421      h35.168C553.673,3160.481,558.711,3166.169,557.926,3172.623z"></path>
				
					<linearGradient id="SVGID_00000054237839000877411260000004501961966857011647_" gradientUnits="userSpaceOnUse" x1="1035.9994" y1="2852.0627" x2="601.4196" y2="3199.0527">
					<stop offset="0" style="stop-color:#FEBBBA"></stop>
					<stop offset="1" style="stop-color:#FF928E"></stop>
				</linearGradient>
				<path style="fill:url(#SVGID_00000054237839000877411260000004501961966857011647_);" d="M833.372,2801.251l5.936,34.917      c0,0-19.878,201.345-23.413,281.883c-0.554,12.627,2.712,25.105,9.339,35.867l34.564,56.129l-87.844-51.836l-1.749-10.72      l14.38-19.772l-18.836-225.556c-1.107-13.25,1.628-26.539,7.875-38.276l18.17-34.134L833.372,2801.251z"></path>
				
					<linearGradient id="SVGID_00000155143934457113817050000016074451938578197672_" gradientUnits="userSpaceOnUse" x1="-3747.1003" y1="3176.5054" x2="-3637.3962" y2="3176.5054" gradientTransform="matrix(-1 0 0 1 -2948.3323 0)">
					<stop offset="0" style="stop-color:#09005D"></stop>
					<stop offset="1" style="stop-color:#1A0F91"></stop>
				</linearGradient>
				<path style="fill:url(#SVGID_00000155143934457113817050000016074451938578197672_);" d="M865.583,3218.177H837.55      c-5.247,0-10.196-2.409-13.396-6.567c-8.739-11.356-26.845-33.51-35.503-34.088c-11.655-0.779-10.164,40.655-10.164,40.655      h-6.533l-8.275-51.486c-2.082-12.954,4.36-25.788,15.993-31.857l0,0c0,0,2.664,19.703,17.111,28.418      c14.446,8.716,58.786,39.926,58.786,39.926s5.431-0.774,11.393,0.303C875.806,3205.079,874.571,3218.177,865.583,3218.177z"></path>
				
					<linearGradient id="SVGID_00000092416444149646530670000008508437441461727375_" gradientUnits="userSpaceOnUse" x1="-3596.5613" y1="3473.2134" x2="-3498.9678" y2="2332.5898" gradientTransform="matrix(-1 0 0 1 -2948.3323 0)">
					<stop offset="0" style="stop-color:#FEBBBA"></stop>
					<stop offset="1" style="stop-color:#FF928E"></stop>
				</linearGradient>
				<path style="fill:url(#SVGID_00000092416444149646530670000008508437441461727375_);" d="M713.055,2817.835      c0,0-116.45,220.894-134.961,271.328c-18.511,50.434-24.996,92.507-25.244,96.49c-0.388,6.226-8.131,12.197-29.475,12.197      c-11.015,0-16.41-4.416-19.051-8.689c-2.254-3.646-2.37-8.209-0.471-12.052c6.736-13.633,28.113-57.198,36.03-76.958      c9.453-23.592,29.785-130.506,40.936-167.678c11.151-37.173,23.756-77.496,72.316-114.638      C653.134,2817.835,686.469,2785.186,713.055,2817.835z"></path>
				
					<linearGradient id="SVGID_00000018228930716965506010000016948053248312998068_" gradientUnits="userSpaceOnUse" x1="-4416.0781" y1="2941.2671" x2="-3969.9468" y2="2506.4299" gradientTransform="matrix(-1 0 0 1 -2948.3323 0)">
					<stop offset="0" style="stop-color:#FF928E"></stop>
					<stop offset="1" style="stop-color:#FE7062"></stop>
				</linearGradient>
				<path style="fill:url(#SVGID_00000018228930716965506010000016948053248312998068_);" d="M786.618,2455.889      c17.055-72.27-0.104-126.714-18.124-160.278c-14.373-26.771-4.268-59.886,22.69-73.906      c42.131-21.91,84.876-32.157,84.876-32.157s83.479,61.031,73.576,108.801c-5.805,27.998-58.678,167.703-58.678,167.703      S842.066,2489.192,786.618,2455.889z"></path>
				
					<linearGradient id="SVGID_00000092428109654334085730000010082322113308426115_" gradientUnits="userSpaceOnUse" x1="649.437" y1="2648.1458" x2="897.0179" y2="2648.1458">
					<stop offset="0" style="stop-color:#4F52FF"></stop>
					<stop offset="1" style="stop-color:#4042E2"></stop>
				</linearGradient>
				<path style="fill:url(#SVGID_00000092428109654334085730000010082322113308426115_);" d="M720.018,2518.905      c12.225-36.828,66.6-63.016,66.6-63.016c55.448,33.302,104.34,10.164,104.34,10.164s10.965,41.91,3.397,80.858      c-7.568,38.948-55.047,289.256-55.047,289.256c-74.812,15.159-189.87-15.25-189.87-15.25      C697.089,2736.314,707.793,2555.733,720.018,2518.905z"></path>
				
					<linearGradient id="SVGID_00000076595800488639911610000015173717957035463815_" gradientUnits="userSpaceOnUse" x1="-3803.5247" y1="2332.2283" x2="-3785.1968" y2="2198.1465" gradientTransform="matrix(-1 0 0 1 -2948.3323 0)">
					<stop offset="0" style="stop-color:#FEBBBA"></stop>
					<stop offset="1" style="stop-color:#FF928E"></stop>
				</linearGradient>
				<path style="fill:url(#SVGID_00000076595800488639911610000015173717957035463815_);" d="M821.486,2105.434l-24.422,109.699      c-2.338,9.663,6.471,8.081,16.24,6.24c15.998-3.016,36.618-9.228,43.511-21.677c0.701-1.267,1.052-2.699,1.25-4.134      l10.492-76.068c0.832-6.035-2.43-11.892-7.999-14.362l-20.247-8.978C832.514,2092.698,823.491,2097.146,821.486,2105.434z"></path>
				
					<linearGradient id="SVGID_00000089570367370072272350000000579645345910439853_" gradientUnits="userSpaceOnUse" x1="18495.4316" y1="-8887.9482" x2="19027.707" y2="-9150.7178" gradientTransform="matrix(-1 0 0 1 -2948.3323 0)">
					<stop offset="0" style="stop-color:#FEBBBA"></stop>
					<stop offset="1" style="stop-color:#FF928E"></stop>
				</linearGradient>
				<path style="fill:url(#SVGID_00000089570367370072272350000000579645345910439853_);" d="M1126.737,2032.981      c0,0-64.277,223.294-323.478,202.307c-16.583-1.343-31.149,10.946-32.439,27.532l-0.697,8.962      c-1.868,24.028,17.74,44.283,41.81,43.066c86.209-4.361,271.351-38.217,334.808-243.055L1126.737,2032.981z"></path>
				
					<linearGradient id="SVGID_00000013879336225161347220000003879311886036333746_" gradientUnits="userSpaceOnUse" x1="18389.7578" y1="-9101.9902" x2="18922.0352" y2="-9364.7598" gradientTransform="matrix(-1 0 0 1 -2948.3323 0)">
					<stop offset="0" style="stop-color:#FEBBBA"></stop>
					<stop offset="1" style="stop-color:#FF928E"></stop>
				</linearGradient>
				<path style="fill:url(#SVGID_00000013879336225161347220000003879311886036333746_);" d="M1146.742,2071.793      c0,0,12.351-36.348,15.454-59.068c3.103-22.719-8.319-73.713-18.134-88.052c-9.815-14.339-11.458,20.81-15.877,37.328      c-4.418,16.517,3.065,40.089,3.065,40.089l-4.513,30.89L1146.742,2071.793z"></path>
				<g>
					
						<linearGradient id="SVGID_00000044885157279806951110000002865318133441943193_" gradientUnits="userSpaceOnUse" x1="-11881.4854" y1="4648.6318" x2="-11758.749" y2="4789.7456" gradientTransform="matrix(-0.9653 0.2612 0.2612 0.9653 -11805.3115 649.0368)">
						<stop offset="0" style="stop-color:#FEBBBA"></stop>
						<stop offset="1" style="stop-color:#FF928E"></stop>
					</linearGradient>
					<path style="fill:url(#SVGID_00000044885157279806951110000002865318133441943193_);" d="M871.563,2014.934       c0,0,61.752,89.961,23.35,115.027c-38.401,25.067-82.362-38.866-82.362-38.866s-13.8-48.862,1.9-65.052       C830.151,2009.853,871.563,2014.934,871.563,2014.934z"></path>
					
						<linearGradient id="SVGID_00000011014173133401310320000002251486797775037857_" gradientUnits="userSpaceOnUse" x1="-3929.4766" y1="2342.5193" x2="-3668.5266" y2="1708.3334" gradientTransform="matrix(-0.9998 -0.0189 -0.0189 0.9998 -2888.7844 19.4772)">
						<stop offset="0" style="stop-color:#09005D"></stop>
						<stop offset="1" style="stop-color:#1A0F91"></stop>
					</linearGradient>
					<path style="fill:url(#SVGID_00000011014173133401310320000002251486797775037857_);" d="M845.656,1993.109       c0,0,26.866,6.904,30.418,19.186c3.552,12.282-38.715,22.811-50.508,23.143l-10.425,49.094c0,0-27.191-46.882-15.568-73.443       C811.196,1984.528,845.656,1993.109,845.656,1993.109z"></path>
					
						<linearGradient id="SVGID_00000081616570921382701650000001821951798741937854_" gradientUnits="userSpaceOnUse" x1="-11850.8193" y1="4621.96" x2="-11728.085" y2="4763.0713" gradientTransform="matrix(-0.9653 0.2612 0.2612 0.9653 -11805.3115 649.0368)">
						<stop offset="0" style="stop-color:#FEBBBA"></stop>
						<stop offset="1" style="stop-color:#FF928E"></stop>
					</linearGradient>
					<path style="fill:url(#SVGID_00000081616570921382701650000001821951798741937854_);" d="M824.97,2084.796       c0,0-24.148-29.058-34.32-10.604c-10.172,18.454,21.606,33.053,32.87,24.111L824.97,2084.796z"></path>
				</g>
			</g>
		</g>
		<g>
			<g>
				
					<linearGradient id="SVGID_00000051384328450137599360000014492345787487435912_" gradientUnits="userSpaceOnUse" x1="2925.3154" y1="989.192" x2="2810.6792" y2="1225.4825" gradientTransform="matrix(0.987 0.1608 -0.1608 0.987 126.9837 357.2448)">
					<stop offset="0" style="stop-color:#09005D"></stop>
					<stop offset="1" style="stop-color:#1A0F91"></stop>
				</linearGradient>
				<path style="fill:url(#SVGID_00000051384328450137599360000014492345787487435912_);" d="M2635.002,2002.809      c-0.585,1.109-37.451,28.237-37.451,28.237s8.141,58.243,41.201,81.242c36.347,25.285,87.678-20.827,87.678-20.827      s40.851,9.711,62.575-75.326c4.984-19.51-23.786-21.158-58.509-17.566C2685.72,2003.203,2635.002,2002.809,2635.002,2002.809z"></path>
				
					<linearGradient id="SVGID_00000167370362526026056700000012497353251531815103_" gradientUnits="userSpaceOnUse" x1="2990.1204" y1="1694.0818" x2="2639.7598" y2="2482.3923">
					<stop offset="0" style="stop-color:#FF928E"></stop>
					<stop offset="1" style="stop-color:#FE7062"></stop>
				</linearGradient>
				<path style="fill:url(#SVGID_00000167370362526026056700000012497353251531815103_);" d="M2566.094,2201.515      c14.422-9.917,30.367-17.392,47.272-21.992c6.35-1.728,40.634,8.237,61.827,7.75c29.092-0.669,58.705-13.908,82.685-7.932      c23.82,5.936,43.316,13.689,54.573,21.696c33.694,23.965,53.478,68.65,65.533,112.913      c-22.828,23.434-51.555,33.848-51.555,33.848l-5.309,215.151l-127.223,65.092l-145.209-72.904l5.201-210.253      c0,0-46.112-21.474-49.494-29.285C2501.013,2307.786,2525.412,2229.487,2566.094,2201.515z"></path>
				
					<linearGradient id="SVGID_00000096040735230274701680000012179833958952713639_" gradientUnits="userSpaceOnUse" x1="2474.9722" y1="2268.5984" x2="2716.7307" y2="2852.5864">
					<stop offset="0" style="stop-color:#FEBBBA"></stop>
					<stop offset="1" style="stop-color:#FF928E"></stop>
				</linearGradient>
				<path style="fill:url(#SVGID_00000096040735230274701680000012179833958952713639_);" d="M2506.544,2314.658      c0,0-61.792,171.311,79.116,241.719c29.258-3.887,18.005-52.476,18.005-52.476s-61.225-13.549-42.837-156.455      C2543.898,2333.518,2506.544,2314.658,2506.544,2314.658z"></path>
				
					<linearGradient id="SVGID_00000141438005138544764910000007744577371886883718_" gradientUnits="userSpaceOnUse" x1="-7070.627" y1="2267.343" x2="-6828.8687" y2="2851.3311" gradientTransform="matrix(-1 0 0 1 -4167.0742 0)">
					<stop offset="0" style="stop-color:#FEBBBA"></stop>
					<stop offset="1" style="stop-color:#FF928E"></stop>
				</linearGradient>
				<path style="fill:url(#SVGID_00000141438005138544764910000007744577371886883718_);" d="M2875.013,2314.658      c0,0,42.519,178.825-79.116,241.719c-29.258-3.887-18.005-52.476-18.005-52.476s49.344-24.302,42.837-156.455      C2837.659,2333.518,2875.013,2314.658,2875.013,2314.658z"></path>
				
					<linearGradient id="SVGID_00000057141358645977725020000004889537566892963214_" gradientUnits="userSpaceOnUse" x1="2689.7183" y1="2344.0818" x2="2677.1523" y2="2853.0137">
					<stop offset="0" style="stop-color:#09005D"></stop>
					<stop offset="1" style="stop-color:#1A0F91"></stop>
				</linearGradient>
				<path style="fill:url(#SVGID_00000057141358645977725020000004889537566892963214_);" d="M2817.663,2568.409h-262.314      c-4.584,0-8.334-3.75-8.334-8.334v-171.74c0-4.584,3.75-8.334,8.334-8.334h262.314c4.584,0,8.334,3.75,8.334,8.334v171.74      C2825.997,2564.658,2822.247,2568.409,2817.663,2568.409z"></path>
				<g>
					
						<linearGradient id="SVGID_00000039823025988981833930000016621719507464104631_" gradientUnits="userSpaceOnUse" x1="2963.0833" y1="2747.9446" x2="2831.2825" y2="2560.3818">
						<stop offset="0" style="stop-color:#4F52FF"></stop>
						<stop offset="1" style="stop-color:#4042E2"></stop>
					</linearGradient>
					<path style="fill:url(#SVGID_00000039823025988981833930000016621719507464104631_);" d="M2948.363,2624.265       c-31.927-7.329-105.719-3.388-105.719-3.388l-3.001,8.128l-4.97,40.401c0,0,70.274,12.667,104.913,12.636       c3.534-0.004,6.767-0.534,9.719-1.453c1.056-0.948,2.088-1.93,3.064-2.996       C2967.066,2661.542,2962.821,2637.964,2948.363,2624.265z"></path>
					
						<linearGradient id="SVGID_00000178183384043752738760000004130011039272167830_" gradientUnits="userSpaceOnUse" x1="2922.0186" y1="2412.1162" x2="2782.5645" y2="2789.8428">
						<stop offset="0" style="stop-color:#FEBBBA"></stop>
						<stop offset="1" style="stop-color:#FF928E"></stop>
					</linearGradient>
					<path style="fill:url(#SVGID_00000178183384043752738760000004130011039272167830_);" d="M2821.441,2618.602l12.495,0.533       c6.714,0.286,13.041,3.558,17.554,9.076c4.514,5.519,6.835,12.82,6.441,20.258c-0.315,5.93-2.749,11.478-6.762,15.412       c-4.013,3.935-9.275,5.933-14.621,5.553l-19.119-1.36L2821.441,2618.602z"></path>
				</g>
				<g>
					
						<linearGradient id="SVGID_00000036934913199899042060000001844859167095468730_" gradientUnits="userSpaceOnUse" x1="2416.0522" y1="2734.2397" x2="2490.8237" y2="2564.4194">
						<stop offset="0" style="stop-color:#4F52FF"></stop>
						<stop offset="1" style="stop-color:#4042E2"></stop>
					</linearGradient>
					<path style="fill:url(#SVGID_00000036934913199899042060000001844859167095468730_);" d="M2401.283,2620.379       c32.098-6.347,105.763-0.144,105.763-0.144l2.797,8.217l3.961,40.538c0,0-70.563,10.505-105.188,9.412       c-3.533-0.112-6.751-0.741-9.68-1.75c-1.032-0.979-2.039-1.994-2.988-3.09       C2381.657,2657.067,2386.488,2633.629,2401.283,2620.379z"></path>
					
						<linearGradient id="SVGID_00000013871344161300618550000013644810965439452859_" gradientUnits="userSpaceOnUse" x1="2642.6201" y1="2298.2881" x2="2503.0928" y2="2676.2134">
						<stop offset="0" style="stop-color:#FEBBBA"></stop>
						<stop offset="1" style="stop-color:#FF928E"></stop>
					</linearGradient>
					<path style="fill:url(#SVGID_00000013871344161300618550000013644810965439452859_);" d="M2528.298,2618.612l-12.504,0.149       c-6.718,0.081-13.124,3.156-17.774,8.534c-4.65,5.378-7.152,12.605-6.943,20.052c0.167,5.938,2.461,11.557,6.375,15.614       c3.914,4.057,9.123,6.216,14.477,5.999l19.146-0.773L2528.298,2618.612z"></path>
				</g>
				
					<linearGradient id="SVGID_00000060724666678707077250000017407389987288326787_" gradientUnits="userSpaceOnUse" x1="2003.3898" y1="3227.6794" x2="2426.2412" y2="2858.4294">
					<stop offset="0" style="stop-color:#4F52FF"></stop>
					<stop offset="1" style="stop-color:#4042E2"></stop>
				</linearGradient>
				<path style="fill:url(#SVGID_00000060724666678707077250000017407389987288326787_);" d="M2957.292,2497.612      c-14.479-33.324-49.892-38.733-80.033-23.152c-0.525,0.689-191.411,98.521-359.75,141.397      c4.819,15.45,7.297,31.889,7.837,48.048c0.098,3.6,0.038,7.15-0.174,10.654c129.091-6.63,269.194-49.683,389.585-87.517      C2952.091,2575.003,2973.341,2534.546,2957.292,2497.612z"></path>
				
					<linearGradient id="SVGID_00000075136017553052522570000015703808797913206449_" gradientUnits="userSpaceOnUse" x1="2623.4968" y1="2602.3608" x2="2618.4434" y2="2046.5288">
					<stop offset="0" style="stop-color:#4F52FF"></stop>
					<stop offset="1" style="stop-color:#4042E2"></stop>
				</linearGradient>
				<path style="fill:url(#SVGID_00000075136017553052522570000015703808797913206449_);" d="M2822.359,2666.436      c-0.505-18.625,3.117-35.964,10.863-52.015c0.221-0.735,0.486-1.441,0.72-2.167c-9.612-2.977-22.031-7.011-38.345-12.545      c-119.537-40.909-210.73-82.215-297.764-129.765c-33.811-18.473-72.255-6.093-83.078,33.915      c-9.662,35.715,11.556,66.207,43.759,76.922c96.342,32.06,46.18,23.154,77.645,33.281      c84.502,26.13,189.655,49.931,286.401,56.43C2822.487,2669.139,2822.404,2667.785,2822.359,2666.436z"></path>
				
					<linearGradient id="SVGID_00000158726787422942176210000000823824045774706057_" gradientUnits="userSpaceOnUse" x1="2687.2014" y1="2316.8167" x2="2683.9846" y2="2036.9396">
					<stop offset="0" style="stop-color:#FEBBBA"></stop>
					<stop offset="1" style="stop-color:#FF928E"></stop>
				</linearGradient>
				<path style="fill:url(#SVGID_00000158726787422942176210000000823824045774706057_);" d="M2613.366,2179.522      c0,0,12.856,55.711,75.272,54.554c63.573-1.157,69.24-54.737,69.24-54.737l-41.527-8.886l-3.47-46.272l-62.467,4.628      l-1.156,43.958L2613.366,2179.522z"></path>
				
					<linearGradient id="SVGID_00000062161743185967734550000011362102028304814736_" gradientUnits="userSpaceOnUse" x1="2807.7749" y1="1370.5402" x2="2817.7954" y2="1126.9988" gradientTransform="matrix(0.987 0.1608 -0.1608 0.987 126.9837 357.2448)">
					<stop offset="0" style="stop-color:#FEBBBA"></stop>
					<stop offset="1" style="stop-color:#FF928E"></stop>
				</linearGradient>
				<path style="fill:url(#SVGID_00000062161743185967734550000011362102028304814736_);" d="M2659.184,1993.08      c0,0-71.586,138.666,13.332,172.309c59.897,23.729,97.451-92.085,86.25-123.454c-17.319-48.501-28.726-42.746-28.726-42.746      L2659.184,1993.08z"></path>
				
					<linearGradient id="SVGID_00000132047402517910440950000010494596190222694295_" gradientUnits="userSpaceOnUse" x1="2926.1553" y1="955.9366" x2="2797.1648" y2="1221.8143" gradientTransform="matrix(0.987 0.1608 -0.1608 0.987 126.9837 357.2448)">
					<stop offset="0" style="stop-color:#09005D"></stop>
					<stop offset="1" style="stop-color:#1A0F91"></stop>
				</linearGradient>
				<path style="fill:url(#SVGID_00000132047402517910440950000010494596190222694295_);" d="M2775.992,1980.463      c35.365,9.72,5.141,86.419-48.103,68.281c-53.244-18.137-74.167-17.872-82.464-3.252c-8.297,14.621-10.08,66.541-28.082,40.878      c-19.737-28.135-30.742-84.608-6.543-102.812c21.627-16.27,26.674-41.495,52.613-40.621c34.431,1.16,61.058-14.102,76.6-3.095      C2757.863,1952.483,2749.97,1973.311,2775.992,1980.463z"></path>
				
					<linearGradient id="SVGID_00000049212608847837375340000006926037476642780089_" gradientUnits="userSpaceOnUse" x1="2327.5388" y1="2743.1758" x2="2343.2417" y2="2361.5251" gradientTransform="matrix(0.9911 -0.1329 0.1329 0.9911 -26.0254 -216.2621)">
					<stop offset="0" style="stop-color:#FEBBBA"></stop>
					<stop offset="1" style="stop-color:#FF928E"></stop>
				</linearGradient>
				<path style="fill:url(#SVGID_00000049212608847837375340000006926037476642780089_);" d="M2642.151,2057.416      c0,0-15.268-16.427-17.711,3.372c-2.444,19.799,5.402,45.298,14.594,31.321      C2648.226,2078.132,2642.151,2057.416,2642.151,2057.416z"></path>
			</g>
			<path style="fill:#91B3FA;" d="M2702.961,2431.024c1.479,9.996-3.876,19.069-13.872,20.548     c-9.996,1.479-19.298-5.425-20.777-15.421c-1.479-9.996,3.096-19.924,13.092-21.403     C2691.4,2413.27,2701.482,2421.028,2702.961,2431.024z"></path>
		</g>
		<g>
			<circle style="fill:#FFFFFF;" cx="2198.397" cy="2093.385" r="278.878"></circle>
			<g>
				<path style="fill:#91B3FA;" d="M1948.513,2078.593l63.619-33.174v14.135c0,1.072-0.269,2.05-0.804,2.934      c-0.536,0.884-1.42,1.645-2.65,2.288l-29.159,14.941c-1.233,0.643-2.53,1.192-3.896,1.647c-1.365,0.455-2.825,0.871-4.377,1.244      c1.552,0.374,3.012,0.79,4.377,1.245c1.366,0.455,2.663,1.004,3.896,1.647l29.159,15.022c1.23,0.641,2.114,1.404,2.65,2.288      c0.535,0.884,0.804,1.862,0.804,2.931v14.138l-63.619-33.255V2078.593z"></path>
				<path style="fill:#91B3FA;" d="M2041.128,2136.749v-119.366h19.841v45.866c3.212-3.052,6.748-5.515,10.603-7.389      c3.855-1.872,8.38-2.811,13.575-2.811c4.499,0,8.488,0.764,11.969,2.291c3.48,1.524,6.385,3.668,8.715,6.425      c2.33,2.759,4.096,6.053,5.302,9.881c1.205,3.828,1.807,8.046,1.807,12.65v52.453h-19.84v-52.453      c0-5.033-1.165-8.93-3.495-11.688c-2.33-2.756-5.823-4.137-10.483-4.137c-3.428,0-6.64,0.777-9.639,2.33      c-2.999,1.553-5.838,3.669-8.514,6.346v59.602H2041.128z"></path>
				<path style="fill:#91B3FA;" d="M2159.529,2138.035c-7.123,0-12.611-2.021-16.467-6.066c-3.855-4.042-5.784-9.625-5.784-16.748      v-46.026h-8.353c-1.072,0-1.996-0.348-2.772-1.046c-0.777-0.696-1.165-1.739-1.165-3.133v-7.871l13.254-2.17l4.177-22.49      c0.213-1.072,0.708-1.901,1.485-2.492c0.777-0.588,1.753-0.884,2.933-0.884h10.281v25.947h21.688v14.138h-21.688v44.661      c0,2.57,0.643,4.578,1.928,6.024s2.998,2.168,5.141,2.168c1.232,0,2.262-0.146,3.092-0.439c0.83-0.296,1.553-0.604,2.169-0.926      c0.616-0.322,1.165-0.627,1.647-0.923c0.481-0.293,0.963-0.442,1.446-0.442c0.588,0,1.071,0.149,1.446,0.442      c0.374,0.296,0.775,0.738,1.204,1.326l5.945,9.638c-2.892,2.411-6.213,4.23-9.961,5.462      C2167.428,2137.418,2163.545,2138.035,2159.529,2138.035z"></path>
				<path style="fill:#91B3FA;" d="M2194.63,2136.749v-82.413h12.13c2.57,0,4.257,1.203,5.06,3.614l1.285,6.105      c1.446-1.608,2.959-3.08,4.539-4.419c1.578-1.339,3.266-2.49,5.06-3.454c1.794-0.965,3.722-1.726,5.784-2.288      c2.061-0.562,4.323-0.845,6.788-0.845c5.193,0,9.464,1.407,12.811,4.218c3.347,2.811,5.851,6.545,7.511,11.204      c1.285-2.73,2.892-5.073,4.819-7.029c1.928-1.953,4.044-3.546,6.346-4.78c2.302-1.229,4.752-2.139,7.35-2.73      c2.597-0.588,5.208-0.884,7.832-0.884c4.551,0,8.595,0.696,12.13,2.089c3.534,1.394,6.506,3.428,8.917,6.103      c2.409,2.68,4.242,5.946,5.501,9.8c1.258,3.857,1.888,8.273,1.888,13.254v52.453h-19.841v-52.453      c0-5.248-1.152-9.196-3.453-11.848c-2.304-2.652-5.678-3.977-10.122-3.977c-2.036,0-3.924,0.351-5.662,1.046      c-1.741,0.696-3.267,1.7-4.58,3.012c-1.313,1.313-2.343,2.957-3.092,4.939c-0.75,1.982-1.124,4.257-1.124,6.827v52.453h-19.921      v-52.453c0-5.515-1.113-9.531-3.334-12.049c-2.222-2.515-5.503-3.776-9.839-3.776c-2.84,0-5.503,0.711-7.993,2.129      c-2.489,1.42-4.806,3.363-6.948,5.826v60.323H2194.63z"></path>
				<path style="fill:#91B3FA;" d="M2351.026,2017.383v119.366h-19.841v-119.366H2351.026z"></path>
				<path style="fill:#91B3FA;" d="M2381.229,2119.88v-14.138c0-1.07,0.267-2.047,0.803-2.931c0.535-0.884,1.418-1.647,2.651-2.288      l29.157-15.022c2.356-1.177,5.113-2.141,8.275-2.892c-1.554-0.374-3.012-0.79-4.379-1.244c-1.365-0.455-2.664-1.004-3.896-1.647      l-29.157-14.941c-1.233-0.643-2.117-1.404-2.651-2.288c-0.536-0.884-0.803-1.862-0.803-2.934v-14.135l63.618,33.174v8.033      L2381.229,2119.88z"></path>
			</g>
		</g>
		<g>
			<circle style="fill:#FFFFFF;" cx="2954.419" cy="1595.098" r="215.62"></circle>
			<g>
				<path style="fill:#91B3FA;" d="M2823.494,1634.979l-46.506-28.763v-10.289l46.506-28.631v14.845l-32.127,18.932l32.127,19.064      V1634.979z"></path>
				<path style="fill:#91B3FA;" d="M2904.437,1566.635c-5.146,0-9.201,3.015-12.171,9.039c-2.967,6.024-4.454,14.402-4.454,25.134      c0,22.341,5.828,33.511,17.484,33.511c5.101,0,10.443-1.628,16.03-4.882v15.965c-4.708,3.122-10.732,4.683-18.076,4.683      c-10.862,0-19.209-4.322-25.034-12.963c-5.828-8.641-8.74-20.79-8.74-36.446c0-15.656,3.002-27.86,9.004-36.613      c6.002-8.75,14.347-13.127,25.034-13.127c3.518,0,6.893,0.483,10.127,1.451c3.231,0.968,6.694,2.661,10.389,5.078l-5.938,14.578      c-1.979-1.362-4.09-2.604-6.333-3.727C2909.515,1567.198,2907.075,1566.635,2904.437,1566.635z"></path>
				<path style="fill:#91B3FA;" d="M2978.912,1622.18c0,9.017-2.275,15.92-6.826,20.715c-4.553,4.792-11.115,7.19-19.692,7.19      c-8.402,0-15.547-1.648-21.439-4.947v-17.745c7.212,4.705,13.829,7.058,19.856,7.058c3.431,0,6.012-0.946,7.75-2.838      c1.738-1.89,2.606-4.461,2.606-7.717c0-3.209-1.033-6.144-3.099-8.805c-2.069-2.661-5.477-5.619-10.227-8.875      c-4.133-2.858-7.267-5.594-9.4-8.213c-2.134-2.614-3.781-5.551-4.947-8.805c-1.165-3.254-1.748-7.035-1.748-11.347      c0-8.268,2.298-14.82,6.893-19.657c4.595-4.837,10.762-7.257,18.504-7.257c7.389,0,14.489,2.066,21.307,6.201l-5.937,14.379      c-2.111-1.23-4.322-2.33-6.629-3.299c-2.31-0.966-4.782-1.451-7.421-1.451c-2.903,0-5.136,0.958-6.697,2.87      c-1.561,1.914-2.343,4.518-2.343,7.817c0,3.256,0.936,6.092,2.806,8.509c1.867,2.42,5.133,5.168,9.796,8.248      c6.289,4.222,10.675,8.531,13.159,12.928C2977.669,1611.538,2978.912,1616.552,2978.912,1622.18z"></path>
				<path style="fill:#91B3FA;" d="M3034.721,1622.18c0,9.017-2.275,15.92-6.826,20.715c-4.553,4.792-11.115,7.19-19.692,7.19      c-8.402,0-15.547-1.648-21.439-4.947v-17.745c7.212,4.705,13.829,7.058,19.856,7.058c3.43,0,6.012-0.946,7.75-2.838      c1.738-1.89,2.606-4.461,2.606-7.717c0-3.209-1.033-6.144-3.099-8.805c-2.069-2.661-5.477-5.619-10.227-8.875      c-4.133-2.858-7.267-5.594-9.4-8.213c-2.134-2.614-3.781-5.551-4.947-8.805c-1.165-3.254-1.748-7.035-1.748-11.347      c0-8.268,2.298-14.82,6.894-19.657c4.595-4.837,10.762-7.257,18.504-7.257c7.389,0,14.489,2.066,21.307,6.201l-5.938,14.379      c-2.111-1.23-4.322-2.33-6.629-3.299c-2.31-0.966-4.782-1.451-7.421-1.451c-2.903,0-5.136,0.958-6.697,2.87      c-1.561,1.914-2.343,4.518-2.343,7.817c0,3.256,0.936,6.092,2.805,8.509c1.867,2.42,5.133,5.168,9.796,8.248      c6.288,4.222,10.675,8.531,13.159,12.928C3033.478,1611.538,3034.721,1616.552,3034.721,1622.18z"></path>
				<path style="fill:#91B3FA;" d="M3078.458,1620.136l32.323-19.064l-32.323-18.932v-14.845l46.506,28.631v10.289l-46.506,28.763      V1620.136z"></path>
			</g>
		</g>
		<g>
			
				<ellipse transform="matrix(0.7071 -0.7071 0.7071 0.7071 -439.1622 2241.0403)" style="fill:#FFFFFF;" cx="2485.594" cy="1650.636" rx="157.161" ry="157.161"></ellipse>
			<g>
				<path style="fill:#91B3FA;" d="M2402.507,1650.893l45.422-23.685v10.092c0,0.766-0.194,1.464-0.575,2.095      c-0.383,0.631-1.014,1.176-1.893,1.635l-20.817,10.667c-0.879,0.457-1.805,0.851-2.781,1.174      c-0.975,0.327-2.018,0.622-3.125,0.889c1.107,0.267,2.151,0.566,3.125,0.891c0.976,0.325,1.902,0.717,2.781,1.174l20.817,10.725      c0.879,0.459,1.51,1.004,1.893,1.635c0.381,0.629,0.575,1.327,0.575,2.091v10.096l-45.422-23.744V1650.893z"></path>
				<path style="fill:#91B3FA;" d="M2473.561,1692.585c-0.344,0.881-0.784,1.645-1.318,2.296c-0.536,0.65-1.146,1.195-1.835,1.634      c-0.689,0.439-1.415,0.775-2.179,1.002c-0.765,0.231-1.512,0.345-2.237,0.345h-5.966l33.493-85.681      c0.65-1.605,1.585-2.839,2.81-3.698c1.225-0.861,2.696-1.292,4.417-1.292h6.022L2473.561,1692.585z"></path>
				<path style="fill:#91B3FA;" d="M2518.582,1680.373v-10.096c0-0.764,0.19-1.462,0.571-2.091c0.383-0.631,1.014-1.176,1.893-1.635      l20.819-10.725c1.68-0.84,3.65-1.529,5.907-2.065c-1.109-0.267-2.151-0.562-3.125-0.889c-0.975-0.323-1.904-0.717-2.782-1.174      l-20.819-10.667c-0.879-0.459-1.51-1.004-1.893-1.635c-0.381-0.631-0.571-1.329-0.571-2.095v-10.092l45.42,23.685v5.735      L2518.582,1680.373z"></path>
			</g>
		</g>
		<g>
			<g>
				<g style="opacity:0.3;">
					
						<linearGradient id="SVGID_00000070095062101506339360000013792369158719400378_" gradientUnits="userSpaceOnUse" x1="3424.7104" y1="86.6055" x2="1383.1902" y2="1986.6334">
						<stop offset="0" style="stop-color:#FF928E"></stop>
						<stop offset="1" style="stop-color:#FE7062"></stop>
					</linearGradient>
					<path style="fill:url(#SVGID_00000070095062101506339360000013792369158719400378_);" d="M2318.24,979.774       c-5.335-1.564-8.735-6.94-7.712-12.528c2.234-12.222,5.034-24.529,8.318-36.577c1.598-5.862,7.645-9.319,13.505-7.721       c0.07,0.021,0.138,0.04,0.206,0.06c5.735,1.682,9.093,7.654,7.513,13.446c-3.122,11.447-5.779,23.137-7.903,34.747       c-1.091,5.975-6.822,9.936-12.799,8.842C2318.983,979.974,2318.607,979.882,2318.24,979.774z M2345.882,888.024       c-0.412-0.121-0.823-0.268-1.229-0.441c-5.588-2.382-8.188-8.844-5.807-14.432c4.895-11.478,10.328-22.86,16.15-33.828       c2.848-5.367,9.478-7.403,14.873-4.562c5.365,2.849,7.404,9.51,4.558,14.872c-5.533,10.427-10.694,21.239-15.344,32.149       C2356.875,886.963,2351.157,889.571,2345.882,888.024z M2393.039,804.642c-1.175-0.344-2.313-0.893-3.361-1.653       c-4.916-3.568-6.013-10.445-2.447-15.363c7.308-10.081,15.149-19.969,23.302-29.39c3.979-4.591,10.923-5.085,15.516-1.119       c4.592,3.975,5.093,10.923,1.119,15.516c-7.743,8.946-15.186,18.333-22.128,27.907       C2402.234,804.41,2397.376,805.914,2393.039,804.642z M2457.67,733.884c-1.942-0.569-3.749-1.682-5.179-3.319       c-3.996-4.575-3.525-11.524,1.049-15.52c9.388-8.195,19.241-16.083,29.286-23.444c4.899-3.582,11.779-2.523,15.374,2.372       c3.59,4.899,2.527,11.782-2.372,15.374c-9.541,6.99-18.901,14.481-27.818,22.272       C2465.071,734.183,2461.156,734.906,2457.67,733.884z M2536.456,679.316c-2.724-0.799-5.137-2.644-6.588-5.339       c-2.882-5.349-0.881-12.02,4.467-14.899c10.943-5.894,22.295-11.403,33.735-16.368c5.571-2.423,12.051,0.131,14.47,5.707       c2.418,5.572-0.137,12.049-5.71,14.471c-10.875,4.718-21.664,9.955-32.064,15.555       C2542.113,679.873,2539.136,680.102,2536.456,679.316z M2625.345,643.538c-3.527-1.034-6.457-3.81-7.513-7.612       c-1.626-5.854,1.799-11.915,7.652-13.544c11.994-3.333,24.284-6.195,36.523-8.499c5.973-1.123,11.721,2.806,12.844,8.777       c1.125,5.966-2.805,11.719-8.774,12.843c-11.63,2.191-23.304,4.906-34.702,8.074       C2629.323,644.149,2627.248,644.096,2625.345,643.538z M3019.482,731.819c-1.461-0.429-2.854-1.168-4.082-2.227       c-8.948-7.719-18.354-15.151-27.957-22.087c-4.923-3.557-6.033-10.433-2.476-15.354c3.555-4.926,10.431-6.035,15.356-2.478       c10.113,7.304,20.021,15.13,29.445,23.258c4.601,3.968,5.112,10.915,1.144,15.514       C3028.004,731.82,3023.493,732.995,3019.482,731.819z M2719.891,628.359c-4.378-1.284-7.666-5.23-7.891-10.042       c-0.284-6.07,4.405-11.218,10.472-11.503c12.437-0.584,25.051-0.633,37.492-0.146c6.067,0.266,10.801,5.348,10.563,11.421       c-0.237,6.069-5.351,10.798-11.423,10.562c-11.814-0.464-23.792-0.417-35.602,0.136       C2722.247,628.844,2721.031,628.693,2719.891,628.359z M2940.333,677.815c-0.697-0.204-1.385-0.477-2.052-0.83       c-10.455-5.524-21.29-10.666-32.197-15.293c-5.592-2.374-8.203-8.831-5.832-14.422c2.374-5.59,8.834-8.231,14.422-5.832       c11.476,4.869,22.876,10.281,33.879,16.09c5.372,2.838,7.427,9.494,4.59,14.864       C2950.661,677.096,2945.248,679.256,2940.333,677.815z M2815.457,634.679c-5.327-1.562-8.727-6.925-7.717-12.507       c1.081-5.978,6.803-9.946,12.782-8.87c12.239,2.214,24.548,4.986,36.581,8.246c0.075,0.018,0.151,0.04,0.226,0.062       c5.727,1.679,9.084,7.638,7.519,13.425c-1.588,5.866-7.626,9.333-13.491,7.744c-11.431-3.092-23.122-5.724-34.752-7.826       C2816.216,634.879,2815.83,634.789,2815.457,634.679z"></path>
					
						<linearGradient id="SVGID_00000163776317711554341450000010495209662868801979_" gradientUnits="userSpaceOnUse" x1="3601.2085" y1="276.2441" x2="1559.6909" y2="2176.2698">
						<stop offset="0" style="stop-color:#FF928E"></stop>
						<stop offset="1" style="stop-color:#FE7062"></stop>
					</linearGradient>
					<path style="fill:url(#SVGID_00000163776317711554341450000010495209662868801979_);" d="M3073.163,787.351       c-2.078-0.609-4-1.835-5.462-3.652c-3.556-4.418-7.265-8.833-11.02-13.131c-3.999-4.571-3.534-11.523,1.038-15.519       c4.572-4.001,11.527-3.542,15.521,1.041c3.952,4.517,7.851,9.162,11.595,13.81c3.809,4.73,3.063,11.657-1.667,15.464       C3080.251,787.715,3076.503,788.33,3073.163,787.351z"></path>
				</g>
				<g style="opacity:0.3;">
					
						<linearGradient id="SVGID_00000134217378506250083500000014310277944443282076_" gradientUnits="userSpaceOnUse" x1="3806.6633" y1="497" x2="1765.1449" y2="2397.0264">
						<stop offset="0" style="stop-color:#FF928E"></stop>
						<stop offset="1" style="stop-color:#FE7062"></stop>
					</linearGradient>
					<path style="fill:url(#SVGID_00000134217378506250083500000014310277944443282076_);" d="M3164.786,1109.934       c-5.094-1.494-8.495-6.503-7.805-11.938c0.716-5.625,1.325-11.36,1.81-17.043c0.517-6.054,5.843-10.542,11.895-10.025       c6.078,0.52,10.541,5.845,10.025,11.895c-0.512,5.984-1.153,12.024-1.905,17.947c-0.766,6.026-6.272,10.29-12.299,9.526       C3165.915,1110.22,3165.34,1110.096,3164.786,1109.934z"></path>
					
						<linearGradient id="SVGID_00000008134619901908599300000012350368270855816120_" gradientUnits="userSpaceOnUse" x1="3741.3506" y1="426.8203" x2="1699.8308" y2="2326.8479">
						<stop offset="0" style="stop-color:#FF928E"></stop>
						<stop offset="1" style="stop-color:#FE7062"></stop>
					</linearGradient>
					<path style="fill:url(#SVGID_00000008134619901908599300000012350368270855816120_);" d="M2619.644,1467.474       c-4.856-1.424-9.708-2.936-14.551-4.536c-5.768-1.906-8.901-8.126-6.997-13.894c1.904-5.768,8.159-8.913,13.893-6.999       c11.179,3.69,22.482,6.919,33.727,9.625c5.909,1.433,9.542,7.36,8.121,13.266c-1.422,5.91-7.364,9.545-13.269,8.123       C2633.612,1471.386,2626.573,1469.506,2619.644,1467.474z M2551.322,1441.006c-0.589-0.173-1.175-0.399-1.747-0.678       c-11.027-5.387-21.948-11.302-32.457-17.581c-5.214-3.114-6.917-9.868-3.803-15.08c3.117-5.216,9.885-6.929,15.084-3.802       c9.982,5.963,20.357,11.579,30.835,16.702c5.458,2.666,7.719,9.253,5.054,14.708       C2561.898,1440.163,2556.37,1442.487,2551.322,1441.006z M2697.647,1482.668c-4.977-1.459-8.371-6.292-7.839-11.639       c0.602-6.047,5.99-10.458,12.036-9.859c11.563,1.152,23.333,1.823,34.988,1.99c6.074,0.098,10.927,5.085,10.839,11.157       c-0.089,6.076-5.085,10.929-11.16,10.84c-12.272-0.178-24.669-0.885-36.846-2.096       C2698.969,1482.993,2698.294,1482.858,2697.647,1482.668z M2471.655,1390.517c-1.34-0.393-2.624-1.052-3.781-1.977       c-9.564-7.671-18.917-15.845-27.795-24.291c-4.4-4.187-4.573-11.147-0.386-15.547c4.189-4.404,11.147-4.58,15.55-0.388       c8.43,8.019,17.31,15.781,26.395,23.066c4.74,3.798,5.499,10.724,1.698,15.461       C2480.463,1390.422,2475.805,1391.734,2471.655,1390.517z M2791.879,1481.554c-4.082-1.197-7.271-4.72-7.825-9.212       c-0.744-6.03,3.541-11.521,9.571-12.264c11.527-1.42,23.156-3.356,34.566-5.75c5.945-1.248,11.778,2.558,13.024,8.507       c1.246,5.944-2.561,11.772-8.505,13.02c-12.012,2.523-24.255,4.56-36.393,6.057       C2794.781,1482.1,2793.277,1481.963,2791.879,1481.554z M2883.587,1459.789c-3.263-0.957-6.039-3.409-7.271-6.855       c-2.043-5.721,0.938-12.016,6.659-14.059c10.971-3.92,21.905-8.348,32.496-13.159c5.528-2.521,12.047-0.076,14.564,5.462       c2.512,5.532,0.066,12.05-5.465,14.566c-11.147,5.063-22.652,9.723-34.198,13.846       C2888.102,1460.401,2885.74,1460.42,2883.587,1459.789z M2968.369,1418.548c-2.482-0.728-4.717-2.328-6.205-4.689       c-3.24-5.137-1.7-11.93,3.438-15.169c9.865-6.219,19.573-12.918,28.857-19.921c4.848-3.656,11.742-2.696,15.404,2.162       c3.655,4.851,2.69,11.745-2.162,15.404c-9.771,7.366-19.989,14.421-30.368,20.964       C2974.555,1419.051,2971.292,1419.406,2968.369,1418.548z M3042.134,1359.804c-1.72-0.504-3.338-1.436-4.692-2.795       c-4.285-4.305-4.268-11.268,0.038-15.552c8.262-8.22,16.263-16.884,23.785-25.756c3.929-4.633,10.877-5.202,15.502-1.279       c4.635,3.929,5.206,10.871,1.277,15.504c-7.922,9.345-16.35,18.47-25.046,27.123       C3050.049,1359.98,3045.858,1360.896,3042.134,1359.804z M3101.225,1286.27c-0.967-0.283-1.91-0.708-2.803-1.274       c-5.128-3.254-6.647-10.053-3.391-15.179c6.229-9.815,12.122-20.024,17.515-30.352c2.813-5.385,9.472-7.458,14.841-4.657       c5.385,2.811,7.471,9.458,4.658,14.843c-5.677,10.872-11.881,21.621-18.44,31.952       C3110.915,1285.839,3105.81,1287.615,3101.225,1286.27z M3142.69,1201.609c-0.217-0.064-0.432-0.136-0.647-0.212       c-5.713-2.06-8.676-8.365-6.614-14.077c2.909-8.066,5.604-16.316,8.012-24.529c0.872-2.973,1.707-5.951,2.51-8.926       c1.583-5.866,7.621-9.339,13.485-7.754c5.969,1.486,9.336,7.618,7.756,13.481c-0.845,3.133-1.724,6.26-2.641,9.389       c-2.533,8.638-5.37,17.32-8.43,25.803C3154.138,1200.282,3148.225,1203.232,3142.69,1201.609z"></path>
					
						<linearGradient id="SVGID_00000021121616270910478660000000202998528222680507_" gradientUnits="userSpaceOnUse" x1="3558.447" y1="230.3009" x2="1516.9302" y2="2130.3259">
						<stop offset="0" style="stop-color:#FF928E"></stop>
						<stop offset="1" style="stop-color:#FE7062"></stop>
					</linearGradient>
					<path style="fill:url(#SVGID_00000021121616270910478660000000202998528222680507_);" d="M2404.903,1323.514       c-2.099-0.615-4.033-1.859-5.499-3.694c-3.712-4.657-7.395-9.48-10.948-14.336c-3.588-4.903-2.522-11.786,2.38-15.372       c4.904-3.586,11.782-2.527,15.372,2.38c3.375,4.612,6.875,9.193,10.398,13.616c3.787,4.746,3.006,11.667-1.744,15.455       C2411.95,1323.883,2408.222,1324.487,2404.903,1323.514z"></path>
				</g>
				<g>
					
						<linearGradient id="SVGID_00000154420768148412452380000004097743825117328015_" gradientUnits="userSpaceOnUse" x1="3585.5659" y1="259.4338" x2="1544.0488" y2="2159.459">
						<stop offset="0" style="stop-color:#FF928E"></stop>
						<stop offset="1" style="stop-color:#FE7062"></stop>
					</linearGradient>
					<path style="fill:url(#SVGID_00000154420768148412452380000004097743825117328015_);" d="M2455.044,1205.266       c0.852,2.02,2.893,3.278,5.081,3.131l62.428-4.199c17.198,23.622,38.286,44.673,62.825,62.054l-3.382,62.436       c-0.119,2.191,1.165,4.214,3.197,5.04l69.523,28.269c2.032,0.826,4.364,0.271,5.807-1.379l41.148-47.082       c29.705,4.674,59.499,4.313,88.302-0.606l41.785,46.572c1.465,1.632,3.803,2.156,5.824,1.303l69.149-29.172       c2.022-0.853,3.279-2.894,3.131-5.082l-4.199-62.427c23.623-17.198,44.673-38.287,62.053-62.825l62.438,3.382       c2.19,0.119,4.213-1.165,5.04-3.197l28.269-69.524c0.826-2.031,0.272-4.364-1.38-5.807l-47.082-41.148       c4.675-29.705,4.314-59.499-0.606-88.302l46.573-41.785c1.631-1.464,2.155-3.804,1.303-5.824l-29.172-69.149       c-0.852-2.022-2.893-3.278-5.081-3.131l-62.428,4.2c-17.197-23.623-38.286-44.674-62.825-62.054l3.383-62.438       c0.118-2.189-1.165-4.214-3.197-5.04l-69.524-28.268c-2.032-0.827-4.363-0.273-5.807,1.379l-41.148,47.082       c-29.705-4.675-59.5-4.314-88.302,0.606l-41.784-46.571c-1.464-1.633-3.804-2.156-5.825-1.304l-69.149,29.172       c-2.021,0.852-3.278,2.893-3.131,5.081l4.199,62.427c-23.623,17.197-44.673,38.287-62.053,62.825l-62.438-3.383       c-2.189-0.119-4.214,1.165-5.039,3.198l-28.268,69.523c-0.826,2.032-0.273,4.364,1.379,5.808l47.082,41.148       c-4.674,29.705-4.313,59.498,0.606,88.301l-46.571,41.785c-1.633,1.465-2.156,3.803-1.304,5.825L2455.044,1205.266z"></path>
					<path style="opacity:0.5;fill:#FFFFFF;" d="M2722.795,1114.99c-35.288-10.347-58.676-45.346-53.437-82.826       c5.761-41.2,43.961-70.027,85.158-64.269c19.961,2.786,37.635,13.184,49.77,29.266c12.14,16.083,17.289,35.932,14.497,55.889       c-5.761,41.2-43.961,70.027-85.158,64.269C2729.912,1116.799,2726.293,1116.015,2722.795,1114.99z M2760.467,987.128       c-2.725-0.799-5.523-1.404-8.387-1.806c-31.585-4.417-60.876,17.692-65.292,49.274c-4.416,31.587,17.679,60.888,49.276,65.295       c31.585,4.417,60.875-17.691,65.292-49.274c2.139-15.304-1.808-30.52-11.115-42.853       C2782.675,997.741,2772.302,990.598,2760.467,987.128z"></path>
					<path style="opacity:0.5;fill:#FFFFFF;" d="M2693.616,1219.981c-6.06-1.777-12.067-3.869-17.998-6.28l0,0       c-1.867-0.758-3.721-1.548-5.564-2.366c-9.081-4.037-17.826-8.791-26.101-14.186c-0.113-0.073-0.226-0.147-0.339-0.22       c-0.319-0.21-0.638-0.42-0.956-0.634c-0.621-0.41-1.237-0.828-1.851-1.246c-1.616-1.1-2.267-3.087-1.747-4.869       c0.127-0.433,0.324-0.854,0.592-1.246c1.368-2.008,4.105-2.517,6.112-1.154c10.33,7.045,21.488,13.022,33.166,17.767       c57.998,23.593,121.373,14.022,169.004-19.776c26.495-18.796,48.117-45.091,61.232-77.352c2.302-5.656,4.3-11.388,5.993-17.169       c11.404-38.905,9.099-80.205-6.874-118.061c-18.344-43.486-52.527-77.227-96.246-95.003       c-90.298-36.704-193.541,6.878-230.236,97.128c-2.263,5.565-4.235,11.224-5.913,16.951c-7.272,24.817-9.034,50.951-5.066,76.53       c0.102,0.661,0.053,1.309-0.126,1.911c-0.464,1.583-1.807,2.841-3.547,3.11c-2.404,0.365-4.653-1.266-5.022-3.675       c-4.166-26.854-2.319-54.293,5.317-80.347c1.76-6.012,3.831-11.951,6.204-17.792       c38.526-94.756,146.981-140.481,241.703-101.969c45.9,18.662,81.781,54.082,101.04,99.735       c16.769,39.743,19.187,83.099,7.218,123.943c-1.78,6.069-3.877,12.085-6.29,18.022       c-18.665,45.901-54.084,81.785-99.735,101.044C2777.835,1229.547,2734.466,1231.959,2693.616,1219.981z"></path>
				</g>
			</g>
			<g>
				<g style="opacity:0.3;">
					
						<linearGradient id="SVGID_00000154385861148483392180000015118431820509441421_" gradientUnits="userSpaceOnUse" x1="3231.1138" y1="-121.4139" x2="1189.5935" y2="1778.6141">
						<stop offset="0" style="stop-color:#FF928E"></stop>
						<stop offset="1" style="stop-color:#FE7062"></stop>
					</linearGradient>
					<path style="fill:url(#SVGID_00000154385861148483392180000015118431820509441421_);" d="M1876.493,1152.309       c-2.82-0.827-4.879-3.428-4.878-6.518c-0.002-5.767,0.17-11.614,0.514-17.375c0.224-3.744,3.438-6.597,7.186-6.376       c3.752,0.209,6.599,3.442,6.376,7.186c-0.328,5.49-0.493,11.063-0.492,16.566c0.003,3.748-3.039,6.79-6.791,6.796       C1877.743,1152.585,1877.101,1152.487,1876.493,1152.309z"></path>
					
						<linearGradient id="SVGID_00000095328375232073553880000015278382218415738018_" gradientUnits="userSpaceOnUse" x1="3236.2649" y1="-115.8781" x2="1194.7473" y2="1784.1473">
						<stop offset="0" style="stop-color:#FF928E"></stop>
						<stop offset="1" style="stop-color:#FE7062"></stop>
					</linearGradient>
					<path style="fill:url(#SVGID_00000095328375232073553880000015278382218415738018_);" d="M1881.275,1100.269       c-3.304-0.969-5.403-4.302-4.76-7.756c1.812-9.764,4.148-19.546,6.94-29.07c0.588-2.005,1.201-4.01,1.834-6.017       c1.136-3.58,5.103-5.369,8.528-4.434c3.577,1.132,5.559,4.949,4.431,8.524c-0.607,1.917-1.193,3.833-1.755,5.749       c-2.664,9.085-4.891,18.415-6.622,27.724c-0.685,3.692-4.229,6.123-7.918,5.442       C1881.721,1100.386,1881.494,1100.333,1881.275,1100.269z M1902.55,1033.016c-0.308-0.09-0.618-0.202-0.917-0.338       c-3.414-1.561-4.918-5.591-3.361-9.005c4.996-10.953,10.717-21.692,17.001-31.913c1.964-3.199,6.162-4.18,9.345-2.23       c3.198,1.968,4.195,6.145,2.231,9.344c-5.995,9.753-11.45,19.997-16.217,30.442       C1909.212,1032.425,1905.74,1033.951,1902.55,1033.016z M1939.499,972.931c-0.827-0.243-1.621-0.649-2.336-1.217       c-2.928-2.345-3.395-6.624-1.05-9.552c7.519-9.376,15.707-18.389,24.34-26.774c2.694-2.619,6.983-2.557,9.607,0.141       c2.613,2.688,2.551,6.991-0.137,9.604c-8.232,7.998-16.039,16.584-23.208,25.53       C1944.94,972.874,1942.062,973.682,1939.499,972.931z M1990.091,923.766c-1.35-0.396-2.586-1.214-3.502-2.417       c-2.261-2.993-1.671-7.258,1.322-9.519c9.607-7.263,19.744-13.99,30.141-19.998c3.25-1.875,7.405-0.753,9.279,2.486       c1.879,3.247,0.768,7.401-2.483,9.282c-9.909,5.723-19.583,12.143-28.741,19.068       C1994.321,924.018,1992.087,924.351,1990.091,923.766z M2051.155,888.45c-1.885-0.553-3.517-1.916-4.346-3.867       c-1.466-3.451,0.146-7.438,3.597-8.907c11.071-4.698,22.535-8.761,34.076-12.069c3.611-1.043,7.371,1.048,8.404,4.656       c1.033,3.608-1.052,7.372-4.656,8.403c-11.013,3.159-21.949,7.032-32.511,11.519       C2054.215,888.822,2052.609,888.877,2051.155,888.45z M2118.93,869.027c-2.441-0.716-4.379-2.785-4.802-5.467       c-0.583-3.704,1.95-7.178,5.655-7.765c11.879-1.868,23.989-3.012,35.985-3.394c3.761-0.107,6.886,2.828,7.007,6.576       c0.121,3.748-2.825,6.887-6.572,7.005c-11.442,0.365-22.982,1.454-34.307,3.235       C2120.87,869.381,2119.863,869.301,2118.93,869.027z M2189.38,866.766c-3.055-0.896-5.151-3.854-4.848-7.139       c0.345-3.736,3.654-6.485,7.391-6.143c11.936,1.101,23.957,2.967,35.736,5.542c3.659,0.865,5.988,4.432,5.183,8.094       c-0.801,3.664-4.423,5.984-8.088,5.185c-11.235-2.465-22.701-4.243-34.081-5.292       C2190.225,866.972,2189.793,866.887,2189.38,866.766z M2290.836,895.617c-0.375-0.11-0.751-0.255-1.116-0.438       c-8.871-4.406-18.138-8.403-27.548-11.88c-1.423-0.535-2.825-1.043-4.231-1.532c-3.541-1.246-5.406-5.118-4.164-8.659       c1.239-3.55,5.172-5.508,8.658-4.168c1.497,0.529,2.989,1.063,4.481,1.625c9.83,3.636,19.545,7.826,28.847,12.448       c3.361,1.67,4.732,5.744,3.062,9.105C2297.338,895.111,2293.939,896.527,2290.836,895.617z"></path>
				</g>
				<g style="opacity:0.3;">
					
						<linearGradient id="SVGID_00000119075769412672459710000002723380672634185107_" gradientUnits="userSpaceOnUse" x1="3472.2241" y1="137.6519" x2="1430.7061" y2="2037.6779">
						<stop offset="0" style="stop-color:#FF928E"></stop>
						<stop offset="1" style="stop-color:#FE7062"></stop>
					</linearGradient>
					<path style="fill:url(#SVGID_00000119075769412672459710000002723380672634185107_);" d="M2086.377,1428.402       c-3.559-1.043-5.628-4.762-4.629-8.347c1.007-3.611,4.756-5.727,8.369-4.715c10.88,3.038,22.036,5.438,33.162,7.131       c3.68,0.595,6.262,4.027,5.695,7.74c-0.566,3.712-4.033,6.257-7.74,5.695c-11.666-1.783-23.364-4.293-34.768-7.478       C2086.437,1428.42,2086.405,1428.411,2086.377,1428.402z M2053.523,1417.062c-0.236-0.069-0.464-0.15-0.695-0.246       c-10.93-4.518-21.695-9.749-31.998-15.543c-3.269-1.844-4.431-5.979-2.59-9.249c1.839-3.277,5.996-4.416,9.251-2.597       c9.831,5.53,20.104,10.52,30.532,14.836c3.466,1.431,5.114,5.406,3.68,8.871       C2060.361,1416.377,2056.808,1418.025,2053.523,1417.062z M2154.954,1438.832c-2.891-0.848-4.965-3.558-4.876-6.712       c0.105-3.744,3.23-6.7,6.981-6.595c11.299,0.313,22.707-0.055,33.917-1.103c3.744-0.333,7.047,2.398,7.392,6.136       c0.35,3.732-2.398,7.047-6.134,7.396c-11.75,1.097-23.713,1.481-35.554,1.148       C2156.079,1439.086,2155.502,1438.993,2154.954,1438.832z M1993.051,1382.999c-0.741-0.217-1.458-0.566-2.118-1.05       c-9.529-7.018-18.72-14.698-27.312-22.825c-2.728-2.577-2.847-6.877-0.27-9.606c2.573-2.716,6.874-2.837,9.602-0.268       c8.196,7.747,16.956,15.065,26.041,21.76c3.019,2.226,3.665,6.481,1.439,9.499       C1998.692,1382.87,1995.712,1383.779,1993.051,1382.999z M2224.013,1432.374c-2.308-0.677-4.186-2.561-4.731-5.072       c-0.801-3.671,1.525-7.289,5.189-8.088c11.015-2.398,21.997-5.497,32.646-9.219c3.548-1.241,7.419,0.634,8.655,4.177       c1.236,3.543-0.634,7.419-4.176,8.655c-11.167,3.895-22.681,7.149-34.229,9.667       C2226.214,1432.744,2225.067,1432.683,2224.013,1432.374z M2289.51,1409.538c-1.767-0.518-3.315-1.747-4.19-3.524       c-1.654-3.368-0.266-7.441,3.102-9.094c10.145-4.984,20.074-10.624,29.51-16.762c3.149-2.049,7.359-1.154,9.4,1.989       c2.047,3.145,1.156,7.349-1.987,9.394c-9.894,6.439-20.302,12.354-30.932,17.575       C2292.827,1409.895,2291.082,1410,2289.51,1409.538z M2347.655,1371.666c-1.241-0.364-2.393-1.082-3.285-2.152       c-2.414-2.872-2.039-7.159,0.836-9.572c8.658-7.258,16.943-15.117,24.623-23.352c2.557-2.735,6.859-2.891,9.6-0.331       c2.744,2.56,2.894,6.856,0.333,9.603c-8.055,8.631-16.743,16.876-25.821,24.494       C2352.13,1371.872,2349.762,1372.284,2347.655,1371.666z"></path>
					
						<linearGradient id="SVGID_00000008847091484457468690000017164322397244133533_" gradientUnits="userSpaceOnUse" x1="3351.2166" y1="7.6394" x2="1309.7009" y2="1907.663">
						<stop offset="0" style="stop-color:#FF928E"></stop>
						<stop offset="1" style="stop-color:#FE7062"></stop>
					</linearGradient>
					<path style="fill:url(#SVGID_00000008847091484457468690000017164322397244133533_);" d="M1942.401,1335.094       c-1.257-0.369-2.421-1.104-3.319-2.19c-3.705-4.481-7.292-9.093-10.669-13.706c-2.213-3.028-1.557-7.281,1.471-9.497       c3.028-2.202,7.275-1.552,9.497,1.472c3.217,4.4,6.642,8.799,10.176,13.078c2.391,2.892,1.981,7.176-0.91,9.564       C1946.84,1335.303,1944.492,1335.707,1942.401,1335.094z"></path>
				</g>
				<g>
					
						<linearGradient id="SVGID_00000039817196948615781420000009930425680674836670_" gradientUnits="userSpaceOnUse" x1="3367.5955" y1="25.2302" x2="1326.0782" y2="1925.2552">
						<stop offset="0" style="stop-color:#FF928E"></stop>
						<stop offset="1" style="stop-color:#FE7062"></stop>
					</linearGradient>
					<path style="fill:url(#SVGID_00000039817196948615781420000009930425680674836670_);" d="M1972.515,1252.467       c0.57,1.352,1.936,2.194,3.4,2.095l41.774-2.81c11.508,15.807,25.619,29.893,42.039,41.524l-2.263,41.78       c-0.08,1.465,0.78,2.82,2.139,3.373l46.522,18.916c1.36,0.552,2.92,0.182,3.886-0.923l27.534-31.505       c19.877,3.128,39.814,2.887,59.088-0.406l27.96,31.164c0.98,1.092,2.546,1.442,3.898,0.872l46.271-19.52       c1.353-0.571,2.194-1.937,2.095-3.401l-2.81-41.773c15.807-11.508,29.894-25.62,41.524-42.04l41.78,2.264       c1.466,0.079,2.82-0.78,3.373-2.139l18.916-46.523c0.553-1.36,0.183-2.921-0.923-3.885l-31.505-27.534       c3.128-19.877,2.887-39.814-0.406-59.087l31.164-27.962c1.092-0.98,1.442-2.545,0.872-3.896l-19.521-46.272       c-0.57-1.352-1.936-2.193-3.4-2.095l-41.774,2.81c-11.507-15.808-25.619-29.893-42.039-41.524l2.263-41.781       c0.079-1.465-0.779-2.82-2.139-3.373l-46.523-18.916c-1.359-0.553-2.919-0.182-3.885,0.923l-27.534,31.505       c-19.877-3.128-39.815-2.887-59.089,0.405l-27.959-31.163c-0.98-1.093-2.546-1.443-3.898-0.872l-46.271,19.52       c-1.352,0.571-2.194,1.936-2.095,3.4l2.809,41.773c-15.807,11.508-29.893,25.62-41.523,42.04l-41.781-2.264       c-1.464-0.08-2.82,0.78-3.371,2.14l-18.916,46.521c-0.552,1.36-0.182,2.92,0.923,3.886l31.505,27.534       c-3.128,19.877-2.887,39.813,0.405,59.087l-31.163,27.961c-1.092,0.98-1.442,2.545-0.872,3.898L1972.515,1252.467z"></path>
					<path style="opacity:0.5;fill:#FFFFFF;" d="M2151.353,1192.91c-10.516-3.084-19.732-9.429-26.453-18.334       c-8.268-10.956-11.773-24.477-9.871-38.071c3.919-28.054,29.938-47.692,58.002-43.776c28.092,3.978,47.702,29.951,43.778,58.01       c-1.899,13.596-8.98,25.637-19.935,33.901c-10.956,8.271-24.478,11.779-38.075,9.874       C2156.26,1194.155,2153.77,1193.619,2151.353,1192.91z M2176.576,1107.352c-1.754-0.514-3.564-0.906-5.427-1.169       c-20.643-2.88-39.781,11.565-42.667,32.206c-1.396,9.995,1.179,19.946,7.262,28c6.085,8.062,14.942,13.258,24.94,14.669l0,0       c9.999,1.397,19.947-1.182,28.004-7.262c8.062-6.085,13.269-14.942,14.667-24.944       C2205.98,1130.078,2194.258,1112.537,2176.576,1107.352z"></path>
					<path style="opacity:0.5;fill:#FFFFFF;" d="M2130.949,1265.963c-4.125-1.21-8.221-2.639-12.287-4.287       c-8.071-3.279-15.817-7.383-23.04-12.211c-0.323-0.219-0.646-0.439-0.969-0.658c-2.496-1.699-3.501-4.767-2.698-7.518       c0.196-0.668,0.501-1.319,0.913-1.923c2.113-3.1,6.337-3.88,9.438-1.782c6.7,4.571,13.925,8.438,21.468,11.501l0.003,0.001       c0.413,0.169,0.832,0.333,1.244,0.496c17.919,7.087,36.927,9.438,55.56,7.159c10.114-1.238,20.123-3.848,29.789-7.823       c0.079-0.032,0.157-0.064,0.236-0.096c0.241-0.103,0.48-0.198,0.718-0.301c28.15-11.878,49.994-34.005,61.501-62.309       c1.492-3.662,2.783-7.37,3.881-11.113c7.382-25.186,5.888-51.923-4.45-76.435c-11.878-28.151-34.008-49.988-62.308-61.494       c-28.289-11.489-59.395-11.304-87.547,0.566c-28.15,11.878-49.994,34.005-61.501,62.309c-1.467,3.6-2.742,7.264-3.828,10.969       c-4.708,16.07-5.849,32.985-3.279,49.542c0.157,1.021,0.082,2.022-0.194,2.951c-0.717,2.445-2.791,4.388-5.477,4.803       c-3.709,0.565-7.179-1.96-7.756-5.676c-2.874-18.527-1.599-37.457,3.664-55.43c1.217-4.151,2.643-8.247,4.281-12.275       c12.878-31.67,37.314-56.425,68.813-69.713c31.494-13.283,66.269-13.54,97.941-0.636       c31.667,12.874,56.424,37.306,69.708,68.807c11.571,27.418,13.239,57.331,4.98,85.509c-1.226,4.183-2.672,8.336-4.337,12.431       C2260.485,1252.633,2193.14,1284.199,2130.949,1265.963z"></path>
				</g>
			</g>
		</g>
	</g>
</g>
</svg>
