<?xml version="1.0" encoding="UTF-8"?>
<svg xmlns="http://www.w3.org/2000/svg" xmlns:xlink="http://www.w3.org/1999/xlink" version="1.1" x="0px" y="0px" viewBox="0 0 500 500" style="enable-background:new 0 0 500 500;" xml:space="preserve">
<g id="Background_Complete">
	<g>
		<g>
			<g>
				<g>
					<path style="fill:#E0E0E0;" d="M81.444,116.487c-1.084,3.446-2.953,6.387-5.252,9.059c-2.098,2.439-4.32,3.061-7.264,1.75       c-3.063-1.364-5.955-1.474-9.061-0.134c-3.327,1.436-4.919,0.834-7.355-2.082c-4.417-5.286-6.659-11.474-6.455-18.365       c0.128-4.32,1.695-8.171,5.461-10.699c2.962-1.988,6.202-2.17,9.423-0.66c2.1,0.984,4.033,1.058,6.191,0.099       c3.424-1.521,6.918-1.645,10.302,0.273c0.282,0.16,0.56,0.331,0.821,0.523c2.343,1.726,2.361,1.97,0.317,3.978       c-4.372,4.296-3.766,11.599,1.259,15.148C80.356,115.748,80.889,116.106,81.444,116.487z"></path>
				</g>
			</g>
			<g>
				<g>
					<path style="fill:#E0E0E0;" d="M72.564,83.829c0.8,4.478-4.159,10.404-8.371,9.588C63.22,88.224,69.205,83.271,72.564,83.829z"></path>
				</g>
			</g>
		</g>
		<g>
			<g>
				<g>
					<path style="fill:#E0E0E0;" d="M94.702,144.621c-0.016-0.064,1.08,0.112,2.922-0.617c0.907-0.369,1.968-1.028,2.908-2.114       c0.936-1.074,1.715-2.628,1.844-4.488c-0.009-7.513-0.022-18.365-0.039-31.772c-0.008-6.71-0.017-14.058-0.026-21.946       c-0.002-1.972-0.004-3.978-0.005-6.016c-0.008-1.015,0.015-2.054-0.019-3.073c-0.042-1.009-0.288-2.017-0.731-2.941       c-0.877-1.853-2.558-3.35-4.575-3.98c-1.013-0.336-2.066-0.37-3.17-0.347c-1.095,0.001-2.197,0.001-3.305,0.002       c-17.74,0.005-37.243,0.011-57.713,0.017c-1.247,0.007-2.481,0.319-3.577,0.895c-1.088,0.589-2.024,1.445-2.719,2.458       c-0.677,1.027-1.107,2.208-1.243,3.422c-0.086,1.209-0.024,2.493-0.043,3.729c-0.001,4.986-0.002,9.898-0.003,14.726       c-0.004,9.654-0.008,18.966-0.012,27.838c-0.003,4.436-0.006,8.761-0.009,12.963c-0.001,1.051-0.002,2.093-0.003,3.129       c-0.01,1.026,0.123,2.023,0.474,2.96c0.682,1.873,2.118,3.411,3.859,4.235c0.869,0.416,1.81,0.658,2.754,0.723       c0.945,0.053,1.923,0.016,2.869,0.029c1.903,0.002,3.771,0.004,5.602,0.006c3.661,0.005,7.176,0.009,10.53,0.014       c13.411,0.029,24.264,0.051,31.778,0.067c3.744,0.017,6.654,0.031,8.64,0.04c0.98,0.009,1.73,0.016,2.247,0.021       C94.442,144.606,94.702,144.621,94.702,144.621s-0.259,0.015-0.766,0.022c-0.517,0.005-1.267,0.012-2.247,0.021       c-1.986,0.009-4.895,0.023-8.64,0.04c-7.513,0.016-18.367,0.039-31.778,0.067c-3.354,0.004-6.869,0.009-10.53,0.014       c-1.831,0.002-3.699,0.004-5.602,0.006c-0.956-0.011-1.901,0.029-2.892-0.024c-0.987-0.065-1.972-0.317-2.882-0.75       c-1.823-0.859-3.329-2.465-4.048-4.427c-0.37-0.974-0.512-2.043-0.502-3.085c-0.001-1.035-0.002-2.078-0.003-3.129       c-0.003-4.203-0.006-8.528-0.009-12.963c-0.004-8.871-0.008-18.184-0.012-27.838c-0.001-4.827-0.002-9.74-0.003-14.726l0-1.873       c-0.004-0.623-0.005-1.251,0.045-1.9c0.142-1.282,0.596-2.531,1.312-3.614c0.733-1.071,1.721-1.973,2.87-2.595       c1.157-0.608,2.463-0.938,3.777-0.945c20.471,0.006,39.973,0.012,57.713,0.017c1.109,0.001,2.21,0.001,3.305,0.002       c1.078-0.023,2.235,0.014,3.285,0.369c2.118,0.665,3.879,2.239,4.796,4.184c0.463,0.97,0.72,2.029,0.762,3.086       c0.033,1.05,0.008,2.066,0.014,3.089c-0.002,2.038-0.004,4.044-0.005,6.016c-0.009,7.888-0.018,15.236-0.026,21.946       c-0.032,13.419-0.013,24.27-0.096,31.785c-0.145,1.899-0.953,3.476-1.914,4.559c-0.966,1.095-2.049,1.75-2.971,2.11       c-0.922,0.381-1.688,0.456-2.188,0.521C94.961,144.622,94.702,144.621,94.702,144.621z"></path>
				</g>
			</g>
		</g>
	</g>
	<g>
		<g>
			<g>
				<g>
					<path style="fill:#E0E0E0;" d="M56.145,214.875c-4.909-0.522-4.957-0.572-4.935-5.271c0.022-4.76,0.065-9.519,0.069-14.279       c0.001-0.863,0.086-1.446,1.193-1.431c7.582,0.105,15.164,0.168,22.746,0.25c0.209,0.002,0.417,0.06,0.746,0.111       c0,3.135-0.005,6.249,0.001,9.364c0.005,2.32,0.04,4.641,0.032,6.961c-0.012,3.429-0.715,4.146-4.143,4.316       c-0.267,0.013-0.532,0.063-1.078,0.13c0,1.976,0.061,3.962-0.017,5.941c-0.076,1.901-1.336,2.939-3.074,2.691       c-1.472-0.211-2.184-1.095-2.199-2.541c-0.017-1.676-0.034-3.355,0.032-5.03c0.039-1-0.362-1.381-1.326-1.322       c-0.54,0.033-1.086,0.027-1.625-0.017c-0.856-0.07-1.161,0.323-1.147,1.141c0.027,1.568,0.025,3.138,0,4.706       c-0.032,1.953-0.948,2.959-2.654,2.968c-1.706,0.009-2.598-0.985-2.618-2.972C56.13,218.714,56.145,216.835,56.145,214.875z"></path>
				</g>
			</g>
			<g>
				<g>
					<path style="fill:#E0E0E0;" d="M71.696,179.377c-0.624,1.156-1.311,2.489-1.919,3.615c5.007,2.413,6.381,6.18,6.158,9.635       c-8.186,0-16.375,0-24.63,0c0.353-4.524,2.607-7.605,6.445-9.704c-0.666-1.302-1.288-2.519-1.91-3.736       c0.117-0.065,0.235-0.13,0.352-0.195c0.699,1.199,1.397,2.398,2.14,3.674c3.668-1.474,7.264-1.386,10.883,0.006       c0.732-1.229,1.41-2.365,2.087-3.501C71.433,179.238,71.564,179.307,71.696,179.377z"></path>
				</g>
			</g>
			<g>
				<g>
					<path style="fill:#E0E0E0;" d="M82.551,201.954c0,1.89,0.029,3.78-0.009,5.669c-0.036,1.805-1.024,2.869-2.594,2.897       c-1.583,0.029-2.693-1.003-2.71-2.77c-0.036-3.832-0.012-7.666,0.077-11.496c0.04-1.72,1.264-2.784,2.806-2.677       c1.522,0.105,2.431,1.154,2.445,2.867c0.016,1.837,0.004,3.673,0.004,5.51C82.565,201.954,82.558,201.954,82.551,201.954z"></path>
				</g>
			</g>
			<g>
				<g>
					<path style="fill:#E0E0E0;" d="M50.01,201.764c0,1.839,0.064,3.68-0.016,5.515c-0.103,2.343-1.981,3.704-3.792,2.714       c-0.622-0.34-1.363-1.178-1.375-1.802c-0.079-4.104-0.051-8.214,0.108-12.315c0.067-1.738,0.994-2.462,2.426-2.422       c1.664,0.047,2.606,0.984,2.663,2.8c0.057,1.835,0.013,3.674,0.013,5.511C50.028,201.764,50.019,201.764,50.01,201.764z"></path>
				</g>
			</g>
		</g>
		<g>
			<g>
				<g>
					<path style="fill:#E0E0E0;" d="M94.639,240.087c-0.015-0.064,1.08,0.112,2.922-0.618c0.907-0.369,1.968-1.027,2.908-2.114       c0.936-1.074,1.715-2.628,1.844-4.488c-0.009-7.513-0.022-18.365-0.039-31.773c-0.008-6.709-0.017-14.058-0.026-21.945       c-0.002-1.972-0.004-3.978-0.006-6.016c-0.008-1.015,0.015-2.054-0.019-3.073c-0.042-1.009-0.289-2.017-0.731-2.941       c-0.877-1.853-2.558-3.35-4.575-3.98c-1.014-0.336-2.066-0.37-3.17-0.347c-1.095,0.001-2.197,0.001-3.305,0.002       c-17.741,0.005-37.243,0.011-57.713,0.017c-1.247,0.007-2.481,0.32-3.577,0.895c-1.088,0.589-2.024,1.445-2.719,2.458       c-0.677,1.027-1.107,2.208-1.243,3.422c-0.086,1.209-0.024,2.493-0.043,3.729c-0.001,4.986-0.002,9.898-0.003,14.726       c-0.004,9.654-0.008,18.966-0.012,27.838c-0.003,4.436-0.006,8.761-0.009,12.963c-0.001,1.051-0.002,2.094-0.002,3.129       c-0.01,1.026,0.123,2.023,0.474,2.96c0.682,1.873,2.118,3.411,3.859,4.235c0.869,0.416,1.81,0.658,2.754,0.723       c0.945,0.053,1.923,0.016,2.869,0.029c1.903,0.002,3.771,0.004,5.602,0.006c3.662,0.005,7.176,0.009,10.53,0.014       c13.41,0.029,24.264,0.051,31.778,0.067c3.744,0.017,6.654,0.031,8.64,0.04c0.98,0.009,1.73,0.016,2.247,0.021       C94.379,240.073,94.639,240.087,94.639,240.087s-0.259,0.015-0.765,0.022c-0.517,0.005-1.267,0.012-2.247,0.021       c-1.986,0.009-4.895,0.023-8.64,0.04c-7.514,0.016-18.367,0.039-31.778,0.067c-3.354,0.004-6.869,0.009-10.53,0.014       c-1.831,0.002-3.699,0.004-5.602,0.006c-0.956-0.011-1.901,0.029-2.892-0.024c-0.987-0.065-1.972-0.317-2.883-0.75       c-1.823-0.859-3.329-2.465-4.048-4.427c-0.37-0.974-0.512-2.043-0.502-3.086c-0.001-1.035-0.002-2.078-0.002-3.129       c-0.003-4.203-0.006-8.528-0.009-12.963c-0.004-8.871-0.008-18.184-0.012-27.838c-0.001-4.827-0.002-9.74-0.003-14.726l0-1.873       c-0.004-0.623-0.005-1.251,0.045-1.9c0.142-1.282,0.596-2.531,1.312-3.614c0.733-1.071,1.72-1.973,2.87-2.595       c1.156-0.608,2.463-0.938,3.777-0.945c20.471,0.006,39.973,0.012,57.713,0.017c1.109,0.001,2.211,0.001,3.305,0.002       c1.078-0.023,2.235,0.014,3.284,0.369c2.119,0.665,3.879,2.239,4.796,4.184c0.463,0.97,0.721,2.029,0.762,3.086       c0.033,1.05,0.008,2.066,0.014,3.089c-0.002,2.038-0.004,4.044-0.006,6.016c-0.009,7.888-0.018,15.236-0.026,21.945       c-0.032,13.419-0.013,24.27-0.096,31.785c-0.145,1.899-0.953,3.476-1.914,4.559c-0.966,1.095-2.049,1.75-2.971,2.11       c-0.922,0.381-1.688,0.456-2.188,0.521C94.898,240.089,94.639,240.087,94.639,240.087z"></path>
				</g>
			</g>
		</g>
	</g>
	<g>
		<g>
			<g>
				<g>
					<path style="fill:#E0E0E0;" d="M81.482,295.947c-6.386,0-12.648,0-19.053,0c0-4.512,0-9.168,0-14       c6.278-0.917,12.606-1.841,19.053-2.783C81.482,284.763,81.482,290.191,81.482,295.947z"></path>
				</g>
			</g>
			<g>
				<g>
					<path style="fill:#E0E0E0;" d="M62.381,297.91c6.411,0,12.679,0,19.069,0c0,5.505,0,10.976,0,16.545       c-6.384-0.839-12.694-1.669-19.069-2.508C62.381,307.23,62.381,302.66,62.381,297.91z"></path>
				</g>
			</g>
			<g>
				<g>
					<path style="fill:#E0E0E0;" d="M60.317,282.099c0,4.654,0,9.16,0,13.875c-4.783,0-9.554,0-14.561,0       c0-3.821-0.017-7.533,0.035-11.245c0.004-0.268,0.477-0.722,0.779-0.765C51.106,283.315,55.65,282.721,60.317,282.099z"></path>
				</g>
			</g>
			<g>
				<g>
					<path style="fill:#E0E0E0;" d="M45.932,297.863c4.75,0,9.532,0,14.405,0c0,4.592,0,9.048,0,13.8       c-4.778-0.614-9.507-1.221-14.405-1.851C45.932,305.836,45.932,301.884,45.932,297.863z"></path>
				</g>
			</g>
		</g>
		<g>
			<g>
				<g>
					<path style="fill:#E0E0E0;" d="M94.576,335.554c-0.016-0.065,1.08,0.112,2.922-0.618c0.907-0.369,1.968-1.027,2.908-2.114       c0.936-1.074,1.715-2.628,1.844-4.488c-0.009-7.513-0.022-18.365-0.039-31.773c-0.008-6.709-0.017-14.058-0.026-21.945       c-0.002-1.972-0.004-3.978-0.006-6.016c-0.008-1.015,0.015-2.054-0.019-3.073c-0.042-1.009-0.289-2.017-0.731-2.941       c-0.877-1.853-2.558-3.35-4.575-3.98c-1.013-0.336-2.066-0.37-3.17-0.347c-1.095,0.001-2.197,0.001-3.305,0.002       c-17.74,0.005-37.243,0.011-57.713,0.017c-1.247,0.007-2.481,0.319-3.577,0.895c-1.089,0.589-2.024,1.445-2.719,2.458       c-0.677,1.027-1.107,2.208-1.243,3.422c-0.086,1.209-0.024,2.493-0.043,3.729c-0.001,4.986-0.002,9.898-0.003,14.726       c-0.004,9.654-0.008,18.966-0.012,27.838c-0.003,4.435-0.006,8.761-0.009,12.963c-0.001,1.051-0.002,2.094-0.003,3.129       c-0.01,1.026,0.123,2.023,0.474,2.96c0.682,1.873,2.118,3.411,3.859,4.235c0.869,0.416,1.81,0.658,2.754,0.723       c0.945,0.053,1.923,0.016,2.869,0.029c1.903,0.002,3.771,0.004,5.602,0.006c3.662,0.005,7.176,0.009,10.53,0.014       c13.411,0.029,24.264,0.051,31.778,0.067c3.744,0.017,6.654,0.031,8.64,0.04c0.98,0.009,1.73,0.016,2.247,0.021       C94.316,335.539,94.576,335.554,94.576,335.554s-0.259,0.015-0.766,0.022c-0.517,0.005-1.267,0.012-2.247,0.021       c-1.986,0.009-4.895,0.023-8.64,0.04c-7.514,0.016-18.367,0.039-31.778,0.067c-3.354,0.004-6.869,0.009-10.53,0.014       c-1.831,0.002-3.699,0.004-5.602,0.006c-0.956-0.011-1.901,0.029-2.892-0.024c-0.987-0.065-1.973-0.317-2.883-0.75       c-1.823-0.859-3.329-2.465-4.048-4.427c-0.37-0.974-0.512-2.043-0.502-3.086c-0.001-1.035-0.002-2.078-0.003-3.129       c-0.003-4.203-0.006-8.528-0.009-12.963c-0.004-8.871-0.008-18.184-0.012-27.838c-0.001-4.827-0.002-9.74-0.003-14.726l0-1.873       c-0.004-0.623-0.005-1.251,0.045-1.901c0.142-1.282,0.596-2.531,1.312-3.614c0.733-1.071,1.72-1.973,2.87-2.595       c1.156-0.608,2.463-0.938,3.777-0.945c20.471,0.006,39.973,0.012,57.713,0.017c1.109,0.001,2.211,0.001,3.305,0.002       c1.078-0.023,2.235,0.014,3.284,0.369c2.119,0.665,3.879,2.239,4.797,4.184c0.463,0.97,0.72,2.029,0.762,3.086       c0.033,1.05,0.008,2.066,0.014,3.089c-0.002,2.038-0.004,4.044-0.006,6.016c-0.009,7.888-0.018,15.236-0.026,21.945       c-0.032,13.419-0.013,24.27-0.097,31.785c-0.145,1.899-0.953,3.476-1.914,4.559c-0.966,1.095-2.049,1.75-2.971,2.11       c-0.922,0.381-1.688,0.456-2.188,0.522C94.835,335.555,94.576,335.554,94.576,335.554z"></path>
				</g>
			</g>
		</g>
	</g>
	<g>
		<g>
			<path style="fill:#E0E0E0;" d="M130.696,84.938c0,1.421-1.152,2.572-2.572,2.572c-1.421,0-2.572-1.152-2.572-2.572     s1.152-2.572,2.572-2.572C129.545,82.365,130.696,83.517,130.696,84.938z"></path>
		</g>
		<g>
			<g>
				<path style="fill:#E0E0E0;" d="M127.998,84.938c0,0.009-0.117,0.018-0.346,0.027c-0.256,0.007-0.591,0.015-1.015,0.026      c-0.457,0.007-1.007,0.015-1.651,0.025c-0.653,0.003-1.397,0.045-2.212,0.245c-1.615,0.371-3.54,1.44-4.841,3.439      c-0.639,0.993-1.101,2.203-1.246,3.535c-0.086,1.328-0.013,2.799-0.028,4.306c0.02,12.154,0.047,28.891,0.076,47.379      c-0.03,18.494-0.057,35.233-0.076,47.387c0.097,3.111-1.358,5.805-3.17,7.412c-1.824,1.654-3.946,2.312-5.64,2.437      c-1.711,0.068-3.016-0.009-3.912-0.007c-0.424-0.011-0.759-0.019-1.015-0.026c-0.229-0.009-0.346-0.018-0.346-0.027      s0.117-0.018,0.346-0.027c0.256-0.007,0.591-0.015,1.015-0.026c0.888-0.035,2.219,0.008,3.894-0.09      c1.656-0.153,3.711-0.825,5.461-2.45c1.739-1.586,3.115-4.18,2.998-7.197c-0.02-12.154-0.047-28.893-0.076-47.387      c0.03-18.487,0.057-35.225,0.076-47.379c0.027-1.523-0.036-2.943,0.067-4.341c0.164-1.386,0.658-2.638,1.332-3.66      c1.373-2.055,3.376-3.126,5.038-3.476c0.836-0.19,1.608-0.216,2.259-0.203c0.644,0.01,1.194,0.018,1.651,0.025      c0.424,0.011,0.76,0.019,1.015,0.026C127.881,84.92,127.998,84.929,127.998,84.938z"></path>
			</g>
		</g>
		<g>
			<path style="fill:#E0E0E0;" d="M105.147,201.324c0,1.421-1.152,2.573-2.572,2.573c-1.421,0-2.572-1.152-2.572-2.573     s1.152-2.572,2.572-2.572C103.995,198.752,105.147,199.904,105.147,201.324z"></path>
		</g>
	</g>
	<g>
		<g>
			<g>
				<g>
					<g>
						<g>
							<g>
								<g>
									<polygon style="fill:#F5F5F5;" points="184.747,442.812 184.747,470.833 225.724,470.833 270.919,470.833 270.919,442.812                     "></polygon>
								</g>
							</g>
						</g>
					</g>
				</g>
			</g>
			<g>
				<g>
					<g>
						<g>
							<g>
								<g>
									<polygon style="fill:#E0E0E0;" points="181.131,434.978 181.131,442.812 273.933,442.812 273.933,434.978 225.724,434.978                     "></polygon>
								</g>
							</g>
						</g>
					</g>
				</g>
			</g>
			<g>
				<g>
					<g>
						<g>
							<g>
								<g>
									<polygon style="fill:#E0E0E0;" points="227.532,470.833 270.919,470.833 270.919,442.812 273.933,442.812 273.933,434.978            225.724,434.978 225.724,442.087          "></polygon>
								</g>
							</g>
						</g>
					</g>
				</g>
			</g>
			<g>
				<g>
					<g>
						<g>
							<g>
								<g>
									<rect x="196.799" y="447.331" style="fill:#E0E0E0;" width="17.475" height="4.218"></rect>
								</g>
							</g>
						</g>
					</g>
				</g>
			</g>
			<g>
				<g>
					<g>
						<g>
							<g>
								<g>
									<rect x="194.55" y="456.822" style="fill:#FFFFFF;" width="22.44" height="8.907"></rect>
								</g>
							</g>
						</g>
					</g>
				</g>
			</g>
		</g>
	</g>
	<g>
		<g>
			<g>
				<g>
					<rect x="376.878" y="295.233" style="fill:#E0E0E0;" width="88.699" height="167.671"></rect>
				</g>
			</g>
			<g>
				<g>
					<rect x="350.554" y="295.233" style="fill:#F5F5F5;" width="88.7" height="167.671"></rect>
				</g>
			</g>
			<g>
				<g>
					<g>
						<path style="fill:#E0E0E0;" d="M432.724,329.746h-76.135v-26.578h76.135V329.746z M357.524,328.811h74.265v-24.707h-74.265        V328.811z"></path>
					</g>
				</g>
				<g>
					<g>
						<path style="fill:#EBEBEB;" d="M404.671,308.931h-18.997c-2.733,0-4.948-2.215-4.948-4.948v-0.348h28.894v0.348        C409.619,306.716,407.404,308.931,404.671,308.931z"></path>
					</g>
				</g>
			</g>
			<g>
				<g>
					<g>
						<path style="fill:#E0E0E0;" d="M432.724,363.507h-76.135v-26.578h76.135V363.507z M357.524,362.572h74.265v-24.707h-74.265        V362.572z"></path>
					</g>
				</g>
				<g>
					<g>
						<path style="fill:#EBEBEB;" d="M404.671,342.693h-18.997c-2.733,0-4.948-2.215-4.948-4.948v-0.348h28.894v0.348        C409.619,340.478,407.404,342.693,404.671,342.693z"></path>
					</g>
				</g>
			</g>
			<g>
				<g>
					<g>
						<path style="fill:#E0E0E0;" d="M432.724,397.269h-76.135v-26.578h76.135V397.269z M357.524,396.334h74.265v-24.707h-74.265        V396.334z"></path>
					</g>
				</g>
				<g>
					<g>
						<path style="fill:#EBEBEB;" d="M404.671,376.454h-18.997c-2.733,0-4.948-2.215-4.948-4.948v-0.348h28.894v0.348        C409.619,374.239,407.404,376.454,404.671,376.454z"></path>
					</g>
				</g>
			</g>
			<g>
				<g>
					<g>
						<path style="fill:#E0E0E0;" d="M432.724,431.03h-76.135v-26.578h76.135V431.03z M357.524,430.095h74.265v-24.707h-74.265        V430.095z"></path>
					</g>
				</g>
				<g>
					<g>
						<path style="fill:#EBEBEB;" d="M404.671,410.216h-18.997c-2.733,0-4.948-2.215-4.948-4.948v-0.348h28.894v0.348        C409.619,408,407.404,410.216,404.671,410.216z"></path>
					</g>
				</g>
			</g>
			<g>
				<g>
					<rect x="346.62" y="288.958" style="fill:#EBEBEB;" width="96.344" height="8.352"></rect>
				</g>
			</g>
			<g>
				<g>
					<rect x="442.964" y="288.958" style="fill:#E0E0E0;" width="28.972" height="8.352"></rect>
				</g>
			</g>
			<g>
				<g>
					<rect x="350.554" y="462.904" style="fill:#E0E0E0;" width="4.661" height="8.565"></rect>
				</g>
			</g>
			<g>
				<g>
					<rect x="379.355" y="462.904" style="fill:#E0E0E0;" width="4.661" height="8.565"></rect>
				</g>
			</g>
			<g>
				<g>
					<rect x="431.963" y="462.904" style="fill:#E0E0E0;" width="4.661" height="8.565"></rect>
				</g>
			</g>
			<g>
				<g>
					<rect x="458.266" y="462.904" style="fill:#E0E0E0;" width="4.661" height="8.565"></rect>
				</g>
			</g>
		</g>
		<g>
			<g>
				<polygon style="fill:#E0E0E0;" points="432.678,266.661 441.657,289.63 436.076,289.604 431.602,275.489     "></polygon>
			</g>
			<g>
				<g>
					<g>
						<polygon style="fill:#EBEBEB;" points="402.019,245.438 398.932,289.448 430.796,290.113 434.381,245.438       "></polygon>
					</g>
					<g>
						<polygon style="fill:#FAFAFA;" points="405.206,248.982 402.637,285.614 426.324,286.724 429.633,248.764       "></polygon>
					</g>
				</g>
				<g>
					<polygon style="fill:#E0E0E0;" points="410.404,254.162 408.482,279.911 421.549,279.911 423.854,254.162      "></polygon>
				</g>
			</g>
		</g>
	</g>
	<g>
		<g>
			<g>
				<polygon style="fill:#E0E0E0;" points="467.28,40.241 467.28,135.06 331.094,135.06 326.188,40.904     "></polygon>
			</g>
		</g>
		<g>
			<g>
				
					<rect x="347.303" y="19.789" transform="matrix(6.123234e-17 -1 1 6.123234e-17 306.399 482.1628)" style="fill:#FFFFFF;" width="93.956" height="136.186"></rect>
			</g>
			<g>
				<path style="fill:#E0E0E0;" d="M463.02,135.506H325.542V40.258H463.02V135.506z M326.834,134.214h134.894V41.55H326.834V134.214      z"></path>
			</g>
		</g>
		<g>
			<g>
				<g>
					<rect x="340.938" y="52.577" style="fill:#FFFFFF;" width="106.686" height="70.61"></rect>
				</g>
			</g>
			<g>
				<g>
					<g>
						<path style="fill:#E0E0E0;" d="M447.624,52.577c0,0-0.184,0.012-0.526,0.018c-0.361,0.004-0.863,0.01-1.517,0.018        c-1.352,0.009-3.314,0.021-5.859,0.037c-5.125,0.019-12.575,0.048-21.985,0.083c-18.814,0.037-45.444,0.09-76.798,0.152        l0.308-0.309c0.009,21.573,0.018,45.477,0.028,70.601v0.008l-0.336-0.336c40.245,0.026,77.349,0.049,106.686,0.068        l-0.268,0.268c0.059-21.488,0.107-39.106,0.141-51.375c0.029-6.132,0.052-10.923,0.068-14.206        c0.013-1.623,0.023-2.868,0.03-3.733C447.605,53.026,447.624,52.577,447.624,52.577s0.019,0.411,0.029,1.239        c0.007,0.853,0.017,2.082,0.03,3.683c0.016,3.27,0.039,8.04,0.068,14.146c0.034,12.308,0.082,29.984,0.141,51.541l0.001,0.268        l-0.269,0c-29.336,0.019-66.441,0.042-106.686,0.068l-0.337,0v-0.337v-0.008c0.01-25.124,0.019-49.028,0.028-70.601l0-0.309        l0.309,0.001c31.437,0.062,58.137,0.115,77.001,0.152c9.38,0.035,16.807,0.064,21.915,0.083        c2.518,0.016,4.46,0.029,5.797,0.037c0.639,0.008,1.129,0.014,1.482,0.018C447.465,52.565,447.624,52.577,447.624,52.577z"></path>
					</g>
				</g>
			</g>
		</g>
		<g>
			<g>
				<g>
					<path style="fill:#E0E0E0;" d="M326.188,40.64c0.057-0.073,0.948,0.511,2.341,1.516c1.393,1.006,3.29,2.433,5.339,4.072       c2.049,1.64,3.851,3.191,5.119,4.353c1.269,1.162,2.01,1.927,1.95,1.996c-0.127,0.143-3.401-2.557-7.49-5.823       C329.355,43.492,326.068,40.793,326.188,40.64z"></path>
				</g>
			</g>
		</g>
		<g>
			<g>
				<g>
					<path style="fill:#E0E0E0;" d="M462.374,40.904c0.115,0.146-3.093,2.877-7.166,6.1c-4.074,3.224-7.469,5.719-7.584,5.573       c-0.115-0.146,3.093-2.876,7.167-6.101C458.863,43.253,462.259,40.758,462.374,40.904z"></path>
				</g>
			</g>
		</g>
		<g>
			<g>
				<g>
					<path style="fill:#FFFFFF;" d="M462.266,134.874c-5.061-4.102-10.123-8.205-15.184-12.307"></path>
				</g>
			</g>
			<g>
				<g>
					<g>
						<path style="fill:#E0E0E0;" d="M447.082,122.567c0.117-0.144,3.611,2.494,7.804,5.892c4.194,3.399,7.498,6.271,7.381,6.415        c-0.117,0.144-3.61-2.493-7.804-5.892C450.269,125.583,446.965,122.711,447.082,122.567z"></path>
					</g>
				</g>
			</g>
		</g>
		<g>
			<g>
				<g>
					<path style="fill:#E0E0E0;" d="M326.188,134.86c-0.115-0.146,3.06-2.849,7.091-6.037c4.032-3.189,7.393-5.655,7.509-5.509       c0.115,0.146-3.059,2.848-7.091,6.037C329.665,132.539,326.303,135.006,326.188,134.86z"></path>
				</g>
			</g>
		</g>
		<g>
			<g>
				
					<rect x="384.342" y="52.833" transform="matrix(6.123234e-17 -1 1 6.123234e-17 309.7664 482.5613)" style="fill:#E0E0E0;" width="23.643" height="67.129"></rect>
			</g>
		</g>
	</g>
</g>
<g id="Background_Simple" style="display:none;">
	<g style="display:inline;">
		<path style="fill:#F5F5F5;" d="M320.204,185.027c-17.113-3.245-35.832-0.424-51.159-8.697    c-15.802-8.53-23.588-26.384-33.915-41.075c-16.236-23.095-41.053-40.007-68.486-46.67c-7.94-1.929-16.079-2.994-24.243-3.217    c-28.103-0.768-55.211,10.464-75.1,30.332l0,0c-11.423,11.41-20.087,25.309-25.126,40.648    c-10.943,33.306-12.972,69.559-4.155,103.432c11.212,43.079,40.467,81.667,80.147,101.842    c54.637,27.779,120.686,29.924,178.374,9.214c26.091-9.367,50.819-31.397,66.539-48.403c15.72-17.006,16.255-45.883,15.544-69.03    C377.629,221.027,352.028,191.062,320.204,185.027z"></path>
	</g>
	<g style="display:inline;">
		<circle style="fill:#F5F5F5;" cx="334.741" cy="94.873" r="21.162"></circle>
	</g>
</g>
<g id="Floor">
	<g>
		<g>
			<path style="fill:#263238;" d="M465.63,471.468c0,0.144-96.996,0.26-216.62,0.26c-119.665,0-216.641-0.116-216.641-0.26     c0-0.144,96.976-0.26,216.641-0.26C368.634,471.208,465.63,471.325,465.63,471.468z"></path>
		</g>
	</g>
</g>
<g id="Device">
	<g>
		<g>
			<g>
				<g>
					<g>
						<g>
							<g>
								<g>
									<g>
										<g>
											<g>
												<path style="fill:#263238;" d="M277.225,416.207l-122.291-0.072c-14.708-0.008-26.626-11.936-26.623-26.644              l0.06-306.587c0.003-14.716,11.938-26.642,26.654-26.634l122.292,0.072c14.708,0.009,26.625,11.936,26.623,26.644              l-0.06,306.587C303.877,404.29,291.942,416.216,277.225,416.207z"></path>
											</g>
										</g>
									</g>
								</g>
							</g>
						</g>
						<g>
							<g>
								<g>
									<g>
										<g>
											<g>
												<path style="fill:#FFFFFF;" d="M276.914,67.277l-23.71-0.014c-3.179-0.001-5.758,2.692-5.758,6.015l-0.002,4.301              c0,3.324-2.579,6.018-5.758,6.015l-46.216-0.027c-3.179-0.002-5.757-2.698-5.756-6.022l0.001-4.301              c0-3.324-2.577-6.02-5.757-6.022l-8.339-0.005l-20.752-0.012c-10.306-0.006-18.665,8.346-18.667,18.653l-0.059,299.251              c-0.002,10.302,8.344,18.655,18.645,18.661l122.047,0.071c10.306,0.006,18.664-8.346,18.667-18.652l0.059-299.252              C295.561,75.636,287.215,67.284,276.914,67.277z"></path>
											</g>
										</g>
									</g>
								</g>
							</g>
						</g>
					</g>
				</g>
			</g>
		</g>
		<g>
			<g>
				<g>
					<path style="fill:#EBEBEB;" d="M295.116,117.218c0,0.083-35.579,0.151-79.458,0.151c-43.894,0-79.465-0.068-79.465-0.151       c0-0.083,35.571-0.151,79.465-0.151C259.538,117.067,295.116,117.134,295.116,117.218z"></path>
				</g>
			</g>
		</g>
		<g>
			<g>
				<path style="fill:#263238;" d="M158.317,103.012c-0.115,0-0.23-0.04-0.323-0.121l-4.65-4.078      c-0.108-0.095-0.169-0.231-0.167-0.375c0.002-0.143,0.066-0.278,0.176-0.37l4.65-3.866c0.209-0.173,0.517-0.144,0.689,0.063      c0.173,0.208,0.144,0.517-0.063,0.689l-4.209,3.499l4.219,3.7c0.203,0.178,0.224,0.488,0.046,0.691      C158.588,102.956,158.453,103.012,158.317,103.012z"></path>
			</g>
		</g>
		<g>
			<g>
				<g>
					<path style="fill:#263238;" d="M251.487,99.694c0,0.141-13.427,0.255-29.987,0.255c-16.565,0-29.99-0.114-29.99-0.255       c0-0.141,13.424-0.255,29.99-0.255C238.06,99.439,251.487,99.553,251.487,99.694z"></path>
				</g>
			</g>
		</g>
		<g>
			<path style="fill:#263238;" d="M191.701,251.587l0.354-0.696c0.61,0.598,1.697,1.038,2.82,1.038c1.599,0,2.295-0.671,2.295-1.514     c0-2.344-5.261-0.903-5.261-4.065c0-1.257,0.977-2.344,3.15-2.344c0.964,0,1.965,0.281,2.649,0.757l-0.305,0.72     c-0.732-0.476-1.587-0.708-2.344-0.708c-1.563,0-2.258,0.696-2.258,1.55c0,2.344,5.261,0.928,5.261,4.04     c0,1.258-1.001,2.332-3.186,2.332C193.593,252.699,192.336,252.246,191.701,251.587z"></path>
			<path style="fill:#263238;" d="M202.772,249.671v2.955h-0.891v-2.955l-3.418-5.591h0.964l2.93,4.797l2.93-4.797h0.903     L202.772,249.671z"></path>
			<path style="fill:#263238;" d="M206.591,251.587l0.354-0.696c0.61,0.598,1.697,1.038,2.82,1.038c1.599,0,2.295-0.671,2.295-1.514     c0-2.344-5.261-0.903-5.261-4.065c0-1.257,0.977-2.344,3.149-2.344c0.964,0,1.965,0.281,2.649,0.757l-0.305,0.72     c-0.732-0.476-1.587-0.708-2.344-0.708c-1.563,0-2.258,0.696-2.258,1.55c0,2.344,5.261,0.928,5.261,4.04     c0,1.258-1.001,2.332-3.186,2.332C208.483,252.699,207.226,252.246,206.591,251.587z"></path>
			<path style="fill:#263238;" d="M216.453,244.861h-3.003v-0.781h6.909v0.781h-3.003v7.764h-0.903V244.861z"></path>
			<path style="fill:#263238;" d="M227.841,251.844v0.781h-6.042v-8.545h5.859v0.781h-4.956v3.039h4.419v0.769h-4.419v3.174H227.841     z"></path>
			<path style="fill:#263238;" d="M238.838,244.08v8.545h-0.867v-6.836l-3.357,5.75h-0.427l-3.357-5.713v6.8h-0.867v-8.545h0.745     l3.711,6.336l3.674-6.336H238.838z"></path>
		</g>
		<g>
			<path style="fill:#263238;" d="M184.626,263.61v-5.019h2.074v4.942c0,1.702,0.743,2.406,1.997,2.406     c1.268,0,1.998-0.704,1.998-2.406v-4.942h2.048v5.019c0,2.638-1.511,4.097-4.059,4.097     C186.136,267.706,184.626,266.247,184.626,263.61z"></path>
			<path style="fill:#263238;" d="M202.56,261.843c0,1.997-1.498,3.239-3.892,3.239h-1.805v2.471h-2.074v-8.962h3.879     C201.062,258.591,202.56,259.833,202.56,261.843z M200.46,261.843c0-0.985-0.64-1.562-1.908-1.562h-1.689v3.11h1.689     C199.82,263.392,200.46,262.817,200.46,261.843z"></path>
			<path style="fill:#263238;" d="M210.214,262.932h1.894v3.636c-0.986,0.742-2.343,1.139-3.623,1.139     c-2.816,0-4.89-1.933-4.89-4.634s2.074-4.635,4.929-4.635c1.575,0,2.88,0.538,3.751,1.549l-1.331,1.229     c-0.653-0.691-1.408-1.012-2.317-1.012c-1.741,0-2.932,1.165-2.932,2.868c0,1.677,1.191,2.867,2.906,2.867     c0.564,0,1.088-0.103,1.613-0.384V262.932z"></path>
			<path style="fill:#263238;" d="M219.737,267.553l-1.729-2.496h-0.102h-1.805v2.496h-2.074v-8.962h3.879     c2.394,0,3.892,1.242,3.892,3.252c0,1.345-0.679,2.33-1.844,2.829l2.01,2.881H219.737z M217.791,260.282h-1.689v3.124h1.689     c1.268,0,1.908-0.589,1.908-1.563C219.698,260.858,219.058,260.282,217.791,260.282z"></path>
			<path style="fill:#263238;" d="M229.337,265.633h-4.161l-0.794,1.92h-2.125l3.994-8.962h2.048l4.007,8.962h-2.176     L229.337,265.633z M228.684,264.058l-1.421-3.431l-1.421,3.431H228.684z"></path>
			<path style="fill:#263238;" d="M233.239,258.591h4.071c2.932,0,4.941,1.768,4.941,4.482c0,2.714-2.01,4.48-4.941,4.48h-4.071     V258.591z M237.208,265.85c1.779,0,2.944-1.063,2.944-2.777c0-1.716-1.165-2.778-2.944-2.778h-1.895v5.556H237.208z"></path>
			<path style="fill:#263238;" d="M250.751,265.889v1.664h-6.939v-8.962h6.772v1.665h-4.711v1.945h4.161v1.613h-4.161v2.074H250.751     z"></path>
		</g>
		<g>
			<path style="fill:#263238;" d="M190.332,330.363c0-1.82,1.385-3.161,3.259-3.161c0.906,0,1.723,0.302,2.273,0.905l-0.418,0.418     c-0.506-0.516-1.128-0.737-1.838-0.737c-1.501,0-2.629,1.102-2.629,2.575c0,1.475,1.128,2.575,2.629,2.575     c0.71,0,1.332-0.222,1.838-0.746l0.418,0.418c-0.551,0.603-1.368,0.915-2.283,0.915     C191.717,333.525,190.332,332.183,190.332,330.363z"></path>
			<path style="fill:#263238;" d="M202.462,327.254v6.217h-0.648v-2.868h-3.89v2.868h-0.657v-6.217h0.657v2.771h3.89v-2.771H202.462     z"></path>
			<path style="fill:#263238;" d="M208.88,332.903v0.568h-4.396v-6.217h4.263v0.568h-3.605v2.212h3.215v0.56h-3.215v2.309H208.88z"></path>
			<path style="fill:#263238;" d="M209.839,330.363c0-1.82,1.385-3.161,3.259-3.161c0.906,0,1.723,0.302,2.273,0.905l-0.417,0.418     c-0.506-0.516-1.128-0.737-1.838-0.737c-1.501,0-2.629,1.102-2.629,2.575c0,1.475,1.128,2.575,2.629,2.575     c0.71,0,1.332-0.222,1.838-0.746l0.417,0.418c-0.551,0.603-1.368,0.915-2.283,0.915     C211.224,333.525,209.839,332.183,209.839,330.363z"></path>
			<path style="fill:#263238;" d="M218.699,330.549l-1.27,1.288v1.634h-0.657v-6.217h0.657v3.757l3.65-3.757h0.755l-2.691,2.815     l2.877,3.401h-0.781L218.699,330.549z"></path>
			<path style="fill:#263238;" d="M223.085,327.254h0.657v6.217h-0.657V327.254z"></path>
			<path style="fill:#263238;" d="M230.962,327.254v6.217h-0.542l-3.997-5.044v5.044h-0.657v-6.217h0.542l4.005,5.045v-5.045     H230.962z"></path>
			<path style="fill:#263238;" d="M237.363,330.363h0.63v2.371c-0.586,0.524-1.421,0.791-2.282,0.791     c-1.892,0-3.277-1.342-3.277-3.162c0-1.82,1.385-3.161,3.286-3.161c0.941,0,1.758,0.302,2.309,0.896l-0.409,0.418     c-0.524-0.516-1.146-0.728-1.874-0.728c-1.537,0-2.664,1.093-2.664,2.575c0,1.475,1.128,2.575,2.655,2.575     c0.595,0,1.146-0.133,1.626-0.479V330.363z"></path>
			<path style="fill:#263238;" d="M239.395,333.027c0-0.275,0.213-0.479,0.471-0.479c0.257,0,0.48,0.204,0.48,0.479     s-0.222,0.488-0.48,0.488C239.608,333.515,239.395,333.302,239.395,333.027z"></path>
			<path style="fill:#263238;" d="M241.277,333.027c0-0.275,0.213-0.479,0.471-0.479c0.257,0,0.479,0.204,0.479,0.479     s-0.222,0.488-0.479,0.488C241.49,333.515,241.277,333.302,241.277,333.027z"></path>
			<path style="fill:#263238;" d="M243.159,333.027c0-0.275,0.213-0.479,0.471-0.479c0.257,0,0.479,0.204,0.479,0.479     s-0.222,0.488-0.479,0.488C243.372,333.515,243.159,333.302,243.159,333.027z"></path>
		</g>
		<g>
			<g>
				<g>
					<g>
						<path style="fill:#FF725E;" d="M202.684,168.404c1.976-1.194,4.079-2.099,6.248-2.716l1.287-6.185l10.45-0.183l1.504,6.135        c2.19,0.54,4.324,1.37,6.341,2.494l5.282-3.462l7.519,7.26l-3.273,5.399c1.194,1.976,2.1,4.081,2.715,6.25l6.184,1.287        l0.184,10.45l-6.136,1.504c-0.54,2.189-1.37,4.323-2.494,6.34l3.461,5.282l-7.259,7.519l-5.399-3.274        c-1.976,1.194-4.08,2.099-6.25,2.715l-1.287,6.185l-10.45,0.183l-1.504-6.136c-2.19-0.54-4.323-1.371-6.34-2.494l-5.281,3.462        l-7.519-7.26l3.274-5.399c-1.194-1.976-2.1-4.08-2.716-6.25l-6.185-1.287l-0.183-10.45l6.136-1.505        c0.54-2.189,1.371-4.323,2.494-6.34l-3.462-5.282l7.259-7.519L202.684,168.404L202.684,168.404z M208.254,182.325        c-4.301,4.455-4.176,11.553,0.279,15.854c4.455,4.301,11.553,4.176,15.853-0.279c4.301-4.455,4.176-11.553-0.279-15.854        C219.653,177.745,212.555,177.87,208.254,182.325z"></path>
					</g>
				</g>
			</g>
		</g>
		<g>
			<g>
				<g>
					<g>
						<path style="fill:#FF725E;" d="M252.18,139.666c1.013-0.171,2.032-0.202,3.031-0.103l1.544-2.35l4.355,1.633l-0.38,2.786        c0.818,0.581,1.566,1.274,2.217,2.069l2.752-0.57l1.925,4.234l-2.238,1.699c0.171,1.014,0.202,2.032,0.102,3.031l2.35,1.544        l-1.632,4.355l-2.786-0.38c-0.581,0.818-1.274,1.566-2.069,2.217l0.569,2.752l-4.234,1.926l-1.7-2.238        c-1.013,0.171-2.032,0.202-3.031,0.102l-1.544,2.35l-4.355-1.633l0.381-2.786c-0.818-0.581-1.566-1.274-2.217-2.069        l-2.752,0.57l-1.926-4.234l2.238-1.7c-0.171-1.013-0.202-2.032-0.103-3.031l-2.35-1.544l1.632-4.355l2.786,0.38        c0.581-0.818,1.274-1.565,2.069-2.217l-0.569-2.752l4.234-1.926L252.18,139.666L252.18,139.666z M252.21,146.339        c-2.509,1.141-3.618,4.099-2.476,6.608c1.141,2.509,4.099,3.617,6.608,2.476c2.508-1.141,3.617-4.099,2.476-6.608        C257.677,146.307,254.718,145.198,252.21,146.339z"></path>
					</g>
				</g>
			</g>
		</g>
		<g>
			<g>
				<g>
					<g>
						<path style="fill:#FF725E;" d="M174.799,152.216c0.636-0.625,1.346-1.152,2.107-1.577l-0.067-2.44l3.912-0.999l1.112,2.172        c0.871,0.008,1.747,0.13,2.606,0.373l1.677-1.772l3.473,2.059l-0.75,2.321c0.625,0.637,1.153,1.347,1.577,2.108l2.439-0.067        l1,3.912l-2.172,1.112c-0.008,0.871-0.13,1.747-0.373,2.605l1.771,1.677l-2.059,3.473l-2.321-0.75        c-0.636,0.625-1.347,1.152-2.107,1.577l0.067,2.44l-3.912,0.999l-1.112-2.173c-0.871-0.008-1.747-0.13-2.605-0.373        l-1.677,1.772l-3.473-2.059l0.75-2.321c-0.625-0.636-1.153-1.347-1.577-2.107l-2.439,0.067l-0.999-3.912l2.173-1.112        c0.008-0.871,0.13-1.747,0.373-2.605l-1.771-1.677l2.059-3.473L174.799,152.216L174.799,152.216z M178.133,156.953        c-1.22,2.058-0.541,4.715,1.517,5.935c2.057,1.22,4.714,0.541,5.934-1.517c1.22-2.057,0.541-4.715-1.517-5.935        C182.01,154.217,179.353,154.896,178.133,156.953z"></path>
					</g>
				</g>
			</g>
		</g>
		<g>
			<g>
				<g>
					<path style="fill:#F5F5F5;" d="M265.884,318.429h-97.328c-6.199,0-11.223-5.025-11.223-11.224v-1.342       c0-6.199,5.025-11.224,11.223-11.224h97.328c6.199,0,11.224,5.025,11.224,11.224v1.342       C277.107,313.404,272.082,318.429,265.884,318.429z"></path>
				</g>
				<g>
					<path style="fill:#FF725E;" d="M212.687,318.429h-44.132c-6.199,0-11.223-5.025-11.223-11.224v-1.342       c0-6.199,5.025-11.224,11.223-11.224h44.132c6.199,0,11.224,5.025,11.224,11.224v1.342       C223.911,313.404,218.886,318.429,212.687,318.429z"></path>
				</g>
				<g>
					<path style="fill:#FF725E;" d="M252.554,308.273c0,1.232-0.854,2.18-2.58,2.18c-1.074,0-2.074-0.4-2.59-0.99l0.273-0.41       c0.442,0.516,1.316,0.905,2.306,0.905c1.358,0,2.054-0.685,2.054-1.663c0-1.053-0.643-1.695-2.643-1.695h-1.495l0.39-3.569       h3.907v0.484h-3.454l-0.284,2.601h1.053C251.733,306.115,252.554,306.967,252.554,308.273z"></path>
					<path style="fill:#FF725E;" d="M258.38,308.273c0,1.232-0.853,2.18-2.58,2.18c-1.073,0-2.074-0.4-2.59-0.99l0.273-0.41       c0.442,0.516,1.316,0.905,2.306,0.905c1.358,0,2.054-0.685,2.054-1.663c0-1.053-0.643-1.695-2.643-1.695h-1.495l0.39-3.569       h3.906v0.484h-3.454l-0.284,2.601h1.053C257.559,306.115,258.38,306.967,258.38,308.273z"></path>
					<path style="fill:#FF725E;" d="M259.184,304.978c0-1.2,0.663-1.99,1.621-1.99c0.959,0,1.633,0.79,1.633,1.99       c0,1.2-0.674,1.989-1.633,1.989C259.847,306.967,259.184,306.178,259.184,304.978z M262.038,304.978       c0-1.022-0.495-1.632-1.232-1.632c-0.726,0-1.221,0.621-1.221,1.632c0,1.011,0.495,1.632,1.221,1.632       C261.543,306.61,262.038,305.998,262.038,304.978z M265.301,303.03h0.453l-5.033,7.37h-0.452L265.301,303.03z M263.586,308.452       c0-1.2,0.674-1.989,1.632-1.989c0.958,0,1.621,0.789,1.621,1.989c0,1.201-0.663,1.99-1.621,1.99       C264.259,310.442,263.586,309.653,263.586,308.452z M266.438,308.452c0-1.011-0.494-1.632-1.221-1.632       c-0.737,0-1.232,0.611-1.232,1.632c0,1.021,0.495,1.633,1.232,1.633C265.944,310.084,266.438,309.462,266.438,308.452z"></path>
				</g>
			</g>
			<g style="opacity:0.2;">
				<polygon style="fill:#FFFFFF;" points="186.295,294.64 177.339,318.145 183.919,318.145 192.264,294.64     "></polygon>
			</g>
			<g style="opacity:0.2;">
				<polygon style="fill:#FFFFFF;" points="202.44,294.64 193.484,318.145 200.064,318.145 208.409,294.64     "></polygon>
			</g>
			<g style="opacity:0.2;">
				<path style="fill:#FFFFFF;" d="M218.255,296.406l-8.337,21.881h3.918c1.082-0.142,3.018-1.005,3.018-1.005l5.745-16.182      C221.526,299.13,220.068,297.576,218.255,296.406z"></path>
			</g>
			<g style="opacity:0.2;">
				<path style="fill:#FFFFFF;" d="M170.605,294.64l-8.235,21.614c1.668,1.111,3.619,1.746,5.859,1.891l8.345-23.505H170.605z"></path>
			</g>
			<g>
				<g>
					<path style="fill:#263238;" d="M265.884,318.429c-0.006-0.055,0.951,0.03,2.68-0.39c1.686-0.423,4.266-1.528,6.279-4.263       c1.001-1.345,1.78-3.103,2.036-5.131c0.119-1.005,0.117-2.089,0.072-3.198c-0.022-1.105-0.259-2.245-0.663-3.358       c-0.791-2.234-2.443-4.359-4.766-5.725c-1.156-0.684-2.473-1.173-3.874-1.395c-1.394-0.226-2.883-0.127-4.398-0.145       c-24.248,0.02-57.72,0.047-94.689,0.076c-1.131,0.019-2.251,0.188-3.325,0.514c-1.069,0.344-2.074,0.859-2.99,1.492       c-1.814,1.289-3.244,3.118-3.978,5.192c-1.323,4.121-0.891,9.092,2.01,12.289c1.393,1.612,3.252,2.788,5.262,3.359       c2.007,0.611,4.145,0.391,6.245,0.433c4.194,0.003,8.299,0.006,12.305,0.009c16.02,0.021,30.447,0.04,42.57,0.056       c12.105,0.035,21.906,0.063,28.699,0.083c3.376,0.021,6.001,0.038,7.803,0.049c0.88,0.011,1.555,0.02,2.029,0.026       C265.649,318.411,265.884,318.429,265.884,318.429s-0.234,0.018-0.691,0.027c-0.474,0.006-1.149,0.015-2.029,0.026       c-1.801,0.011-4.427,0.028-7.803,0.049c-6.793,0.02-16.594,0.048-28.699,0.083c-12.122,0.016-26.55,0.035-42.57,0.056       c-4.006,0.003-8.111,0.006-12.305,0.009c-1.048,0.001-2.102,0.001-3.162,0.002c-1.077-0.033-2.174-0.123-3.222-0.447       c-2.104-0.596-4.05-1.824-5.509-3.51c-1.467-1.677-2.437-3.813-2.718-6.065c-0.123-1.141-0.127-2.241-0.073-3.379       c0.042-1.141,0.275-2.281,0.679-3.358c0.769-2.173,2.264-4.089,4.164-5.439c0.959-0.664,2.012-1.203,3.133-1.564       c1.126-0.343,2.3-0.52,3.483-0.539c36.969,0.03,70.44,0.057,94.689,0.076c1.509,0.025,2.997-0.072,4.453,0.168       c1.444,0.234,2.8,0.746,3.987,1.456c2.386,1.418,4.07,3.613,4.87,5.911c1.429,4.658,0.587,9.212-1.555,11.906       c-2.076,2.766-4.709,3.851-6.417,4.245c-0.432,0.125-0.827,0.159-1.163,0.21c-0.335,0.059-0.621,0.065-0.85,0.07       C266.117,318.435,265.884,318.429,265.884,318.429z"></path>
				</g>
			</g>
		</g>
		<g>
			<path style="fill:#E0E0E0;" d="M173.136,380.38v7.994c0,0.693-0.765,1.114-1.35,0.742l-6.299-3.997     c-0.544-0.345-0.544-1.139,0-1.485l6.299-3.997C172.371,379.266,173.136,379.686,173.136,380.38z"></path>
		</g>
		<g>
			<path style="fill:#E0E0E0;" d="M224.892,384.303c0,3.05-2.472,5.522-5.522,5.522c-3.05,0-5.522-2.472-5.522-5.522     c0-3.05,2.473-5.522,5.522-5.522C222.42,378.78,224.892,381.253,224.892,384.303z"></path>
		</g>
		<g>
			<path style="fill:#E0E0E0;" d="M272.858,389.688h-6.45c-1.033,0-1.87-0.837-1.87-1.869v-6.45c0-1.033,0.837-1.869,1.87-1.869     h6.45c1.033,0,1.87,0.837,1.87,1.869v6.45C274.727,388.851,273.89,389.688,272.858,389.688z"></path>
		</g>
		<g>
			<g>
				<g>
					<path style="fill:#263238;" d="M280.238,96.63c-0.97,0-1.757-0.786-1.757-1.757s0.787-1.757,1.757-1.757       c0.97,0,1.757,0.786,1.757,1.757S281.208,96.63,280.238,96.63z"></path>
				</g>
			</g>
			<g>
				<g>
					<path style="fill:#263238;" d="M280.238,101.705c-0.97,0-1.757-0.787-1.757-1.757c0-0.97,0.787-1.757,1.757-1.757       c0.97,0,1.757,0.787,1.757,1.757C281.994,100.919,281.208,101.705,280.238,101.705z"></path>
				</g>
			</g>
			<g>
				<g>
					<path style="fill:#263238;" d="M280.238,106.781c-0.97,0-1.757-0.787-1.757-1.757c0-0.97,0.787-1.757,1.757-1.757       c0.97,0,1.757,0.787,1.757,1.757C281.994,105.994,281.208,106.781,280.238,106.781z"></path>
				</g>
			</g>
		</g>
	</g>
</g>
<g id="Plant">
	<g>
		<g>
			<g>
				<g>
					<path style="fill:#455A64;" d="M86.077,400.679c-0.55-2.407-1.724-5.257-4.181-5.503c-1.457-0.146-2.859,0.789-3.655,2.019       c-0.796,1.229-1.215,2.698-1.297,4.16c-0.542,9.661,0.186,20.825,2.663,31.149l8.998,0.769       C89.443,422.111,88.569,411.591,86.077,400.679z"></path>
				</g>
			</g>
			<g>
				<g>
					<g>
						<path style="fill:#263238;" d="M81.896,395.176c0.036,0.034-0.403,0.373-0.871,1.208c-0.464,0.84-0.771,2.218-0.761,3.943        c0.028,1.725,0.048,3.802,0.142,6.083c0.1,2.287,0.296,4.797,0.581,7.425c0.576,5.257,1.326,9.993,1.765,13.436        c0.224,1.721,0.385,3.117,0.479,4.083c0.037,0.444,0.068,0.812,0.094,1.114c0.017,0.255,0.019,0.39,0.005,0.392        c-0.014,0.002-0.044-0.13-0.088-0.382c-0.046-0.3-0.103-0.664-0.171-1.104c-0.153-1.023-0.359-2.395-0.609-4.062        c-0.513-3.43-1.308-8.16-1.886-13.433c-0.285-2.635-0.471-5.157-0.55-7.454c-0.046-1.148-0.049-2.241-0.054-3.263        c0.004-1.015-0.026-1.967,0-2.84c0.026-1.746,0.388-3.174,0.913-4.016C81.414,395.465,81.896,395.176,81.896,395.176z"></path>
					</g>
				</g>
			</g>
			<g>
				<g>
					<g>
						<path style="fill:#263238;" d="M86.706,397.6c0.06,0.097-0.437,0.51-1.108,0.922c-0.672,0.412-1.264,0.667-1.324,0.57        c-0.06-0.097,0.436-0.51,1.108-0.922C86.053,397.758,86.646,397.502,86.706,397.6z"></path>
					</g>
				</g>
			</g>
			<g>
				<g>
					<g>
						<path style="fill:#263238;" d="M88.664,404.802c0.001,0.111-0.728,0.201-1.606,0.027c-0.879-0.17-1.521-0.527-1.478-0.629        c0.043-0.109,0.721,0.063,1.557,0.224C87.972,404.589,88.665,404.685,88.664,404.802z"></path>
					</g>
				</g>
			</g>
			<g>
				<g>
					<g>
						<path style="fill:#263238;" d="M77.549,405.43c0.015,0.111-0.668,0.292-1.53,0.274c-0.862-0.015-1.538-0.221-1.519-0.331        c0.019-0.115,0.698-0.096,1.527-0.082C76.855,405.308,77.535,405.315,77.549,405.43z"></path>
					</g>
				</g>
			</g>
			<g>
				<g>
					<g>
						<path style="fill:#263238;" d="M79.056,398.908c-0.017,0.108-0.689,0.069-1.394-0.333c-0.707-0.398-1.086-0.954-1.001-1.025        c0.086-0.081,0.562,0.305,1.205,0.665C78.506,398.582,79.081,398.792,79.056,398.908z"></path>
					</g>
				</g>
			</g>
			<g>
				<g>
					<g>
						<path style="fill:#263238;" d="M88.966,412.38c-0.069,0.091-0.728-0.291-1.471-0.853c-0.744-0.562-1.291-1.091-1.222-1.182        c0.069-0.091,0.727,0.291,1.471,0.853C88.488,411.76,89.035,412.289,88.966,412.38z"></path>
					</g>
				</g>
			</g>
			<g>
				<g>
					<g>
						<path style="fill:#263238;" d="M83.634,406.178c-0.102,0.052-0.462-0.449-0.805-1.118c-0.343-0.67-0.539-1.255-0.437-1.307        c0.102-0.052,0.462,0.449,0.805,1.119C83.539,405.541,83.735,406.126,83.634,406.178z"></path>
					</g>
				</g>
			</g>
			<g>
				<g>
					<g>
						<path style="fill:#263238;" d="M82.941,414.534c-0.105-0.045,0.093-0.739,0.441-1.55c0.349-0.811,0.716-1.432,0.821-1.387        s-0.093,0.739-0.441,1.551C83.414,413.958,83.046,414.58,82.941,414.534z"></path>
					</g>
				</g>
			</g>
			<g>
				<g>
					<g>
						<path style="fill:#263238;" d="M85.052,423.549c-0.107,0.04-0.485-0.698-0.844-1.649c-0.359-0.951-0.564-1.755-0.457-1.796        c0.107-0.04,0.485,0.698,0.844,1.65C84.954,422.705,85.159,423.509,85.052,423.549z"></path>
					</g>
				</g>
			</g>
			<g>
				<g>
					<g>
						<path style="fill:#263238;" d="M78.262,430.077c-0.079-0.082,0.316-0.595,0.884-1.147c0.568-0.552,1.093-0.932,1.172-0.85        c0.079,0.082-0.316,0.595-0.885,1.147C78.866,429.778,78.341,430.159,78.262,430.077z"></path>
					</g>
				</g>
			</g>
			<g>
				<g>
					<g>
						<path style="fill:#263238;" d="M78.057,417.154c-0.029,0.11-0.593,0.056-1.258-0.121c-0.666-0.177-1.181-0.41-1.152-0.52        c0.029-0.11,0.592-0.056,1.258,0.121C77.571,416.811,78.086,417.044,78.057,417.154z"></path>
					</g>
				</g>
			</g>
		</g>
		<g>
			<g>
				<g>
					<g>
						<path style="fill:#263238;" d="M94.861,402.774c-0.077,0.084-0.646-0.316-1.27-0.892c-0.624-0.577-1.067-1.112-0.99-1.196        c0.077-0.084,0.646,0.316,1.27,0.892C94.495,402.155,94.939,402.69,94.861,402.774z"></path>
					</g>
				</g>
			</g>
			<g>
				<g>
					<g>
						<path style="fill:#455A64;" d="M114.823,377.076c0.288-2.513,0.542-5.093-0.084-7.543c-0.626-2.451-2.316-4.783-4.75-5.47        c-2.778-0.784-5.793,0.791-7.544,3.087c-1.751,2.295-2.501,5.179-3.169,7.987c-4.604,19.351-7.202,39.178-7.742,59.062        l11.423,2.436C109.492,416.289,112.392,398.307,114.823,377.076z"></path>
					</g>
				</g>
				<g>
					<g>
						<g>
							<path style="fill:#263238;" d="M108.393,363.86c0.006,0.003-0.016,0.064-0.065,0.18c-0.061,0.137-0.136,0.305-0.228,0.509         c-0.223,0.474-0.526,1.121-0.91,1.939c-0.192,0.423-0.439,0.878-0.649,1.403c-0.211,0.527-0.439,1.097-0.684,1.708         c-0.247,0.614-0.51,1.268-0.789,1.96c-0.24,0.71-0.493,1.46-0.758,2.246c-1.097,3.136-2.095,6.971-3.038,11.26         c-0.932,4.295-1.682,9.072-2.362,14.098c-1.307,10.067-2.049,19.237-2.78,25.854c-0.358,3.309-0.662,5.986-0.921,7.83         c-0.125,0.895-0.223,1.604-0.296,2.123c-0.035,0.221-0.064,0.402-0.087,0.551c-0.022,0.124-0.037,0.187-0.044,0.186         c-0.007-0.001-0.006-0.066,0.002-0.191c0.012-0.15,0.028-0.332,0.047-0.556c0.053-0.522,0.126-1.233,0.219-2.132         c0.209-1.849,0.469-4.529,0.79-7.841c0.656-6.621,1.352-15.795,2.661-25.879c0.681-5.035,1.445-9.821,2.4-14.125         c0.967-4.298,1.997-8.139,3.134-11.275c0.276-0.785,0.539-1.534,0.788-2.243c0.29-0.691,0.564-1.344,0.822-1.956         c0.257-0.608,0.496-1.175,0.717-1.7c0.221-0.522,0.48-0.973,0.684-1.392c0.414-0.804,0.741-1.441,0.981-1.908         c0.106-0.198,0.193-0.359,0.264-0.491C108.352,363.911,108.387,363.857,108.393,363.86z"></path>
						</g>
					</g>
				</g>
				<g>
					<g>
						<g>
							<path style="fill:#263238;" d="M109.462,363.942c0,0,0.656,0.776,1.24,2.487c0.609,1.699,0.879,4.351,0.523,7.539         c-0.758,6.354-1.952,15.098-3.399,24.744c-1.451,9.647-2.918,18.357-4.048,24.647c-0.565,3.146-1.042,5.688-1.384,7.442         c-0.171,0.849-0.306,1.522-0.406,2.018c-0.046,0.209-0.084,0.381-0.116,0.523c-0.028,0.117-0.046,0.177-0.053,0.176         c-0.007-0.001-0.003-0.063,0.012-0.183c0.021-0.144,0.045-0.318,0.076-0.53c0.081-0.5,0.191-1.177,0.33-2.031         c0.302-1.8,0.729-4.34,1.255-7.463c1.057-6.302,2.477-15.015,3.928-24.659c1.446-9.64,2.686-18.385,3.517-24.713         c0.39-3.163,0.168-5.768-0.385-7.459C110.02,364.777,109.409,363.969,109.462,363.942z"></path>
						</g>
					</g>
				</g>
				<g>
					<g>
						<g>
							<path style="fill:#263238;" d="M115.344,394.371c-0.046,0.104-1.007-0.218-2.147-0.72c-1.14-0.503-2.026-0.994-1.98-1.099         c0.046-0.104,1.007,0.218,2.147,0.721C114.504,393.775,115.39,394.267,115.344,394.371z"></path>
						</g>
					</g>
				</g>
				<g>
					<g>
						<g>
							<path style="fill:#263238;" d="M117.568,382.711c0.039,0.107-0.929,0.559-2.162,1.009c-1.234,0.45-2.265,0.728-2.304,0.621         c-0.039-0.107,0.929-0.559,2.162-1.009C116.497,382.882,117.528,382.604,117.568,382.711z"></path>
						</g>
					</g>
				</g>
				<g>
					<g>
						<g>
							<path style="fill:#263238;" d="M117.528,373.062c-0.016,0.113-0.789,0.098-1.726-0.034c-0.938-0.132-1.685-0.33-1.669-0.443         c0.016-0.113,0.789-0.098,1.726,0.034C116.796,372.751,117.543,372.949,117.528,373.062z"></path>
						</g>
					</g>
				</g>
				<g>
					<g>
						<g>
							<path style="fill:#263238;" d="M106.057,366.069c-0.101,0.054-0.561-0.612-1.029-1.486c-0.467-0.875-0.765-1.627-0.664-1.681         c0.101-0.054,0.561,0.612,1.029,1.486C105.86,365.263,106.157,366.015,106.057,366.069z"></path>
						</g>
					</g>
				</g>
				<g>
					<g>
						<g>
							<path style="fill:#263238;" d="M101.711,371.593c-0.01,0.114-0.75,0.138-1.651,0.055c-0.901-0.083-1.623-0.243-1.613-0.357         c0.011-0.114,0.75-0.138,1.651-0.055C101,371.319,101.722,371.479,101.711,371.593z"></path>
						</g>
					</g>
				</g>
				<g>
					<g>
						<g>
							<path style="fill:#263238;" d="M98.063,383.004c-0.05,0.103-0.807-0.164-1.691-0.595c-0.884-0.432-1.56-0.864-1.51-0.967         c0.05-0.102,0.807,0.164,1.691,0.596C97.437,382.469,98.113,382.902,98.063,383.004z"></path>
						</g>
					</g>
				</g>
				<g>
					<g>
						<g>
							<path style="fill:#263238;" d="M97.069,392.748c0.015,0.113-0.658,0.299-1.505,0.415c-0.847,0.116-1.545,0.118-1.561,0.005         c-0.015-0.113,0.658-0.299,1.505-0.414C96.355,392.637,97.053,392.635,97.069,392.748z"></path>
						</g>
					</g>
				</g>
				<g>
					<g>
						<g>
							<path style="fill:#263238;" d="M94.608,408.627c0.012,0.113-0.701,0.283-1.593,0.378c-0.892,0.095-1.625,0.081-1.637-0.033         c-0.012-0.113,0.701-0.283,1.593-0.378C93.862,408.499,94.595,408.513,94.608,408.627z"></path>
						</g>
					</g>
				</g>
				<g>
					<g>
						<g>
							<path style="fill:#263238;" d="M93.099,417.381c0.046,0.104-0.565,0.475-1.365,0.828c-0.8,0.353-1.486,0.555-1.532,0.45         c-0.046-0.104,0.565-0.475,1.365-0.828C92.368,417.479,93.053,417.277,93.099,417.381z"></path>
						</g>
					</g>
				</g>
				<g>
					<g>
						<g>
							<path style="fill:#263238;" d="M99.59,427.9c-0.103,0.049-0.56-0.686-1.022-1.643c-0.462-0.958-0.752-1.774-0.65-1.823         c0.103-0.049,0.56,0.686,1.022,1.644C99.402,427.034,99.693,427.85,99.59,427.9z"></path>
						</g>
					</g>
				</g>
				<g>
					<g>
						<g>
							<path style="fill:#263238;" d="M102.847,411.416c0.074,0.087-0.539,0.73-1.369,1.436c-0.831,0.706-1.563,1.208-1.637,1.121         c-0.074-0.087,0.539-0.73,1.37-1.436C102.039,411.831,102.773,411.329,102.847,411.416z"></path>
						</g>
					</g>
				</g>
				<g>
					<g>
						<g>
							<path style="fill:#263238;" d="M103.006,402.657c-0.089,0.072-0.583-0.396-1.102-1.043c-0.52-0.648-0.869-1.23-0.78-1.302         c0.089-0.071,0.582,0.396,1.102,1.043C102.745,402.003,103.095,402.586,103.006,402.657z"></path>
						</g>
					</g>
				</g>
				<g>
					<g>
						<g>
							<path style="fill:#263238;" d="M105.224,391.609c0.079,0.082-0.438,0.712-1.157,1.408c-0.718,0.696-1.365,1.193-1.444,1.111         c-0.079-0.082,0.438-0.712,1.157-1.408C104.498,392.024,105.145,391.527,105.224,391.609z"></path>
						</g>
					</g>
				</g>
				<g>
					<g>
						<g>
							<path style="fill:#263238;" d="M106.602,383.574c-0.086,0.076-0.706-0.487-1.385-1.257c-0.68-0.77-1.161-1.455-1.076-1.53         c0.085-0.076,0.706,0.487,1.386,1.257C106.206,382.813,106.688,383.498,106.602,383.574z"></path>
						</g>
					</g>
				</g>
				<g>
					<g>
						<g>
							<path style="fill:#263238;" d="M108.957,372.748c0.094,0.065-0.288,0.775-0.853,1.585c-0.565,0.811-1.098,1.414-1.192,1.349         c-0.094-0.065,0.288-0.775,0.853-1.585C108.33,373.286,108.863,372.682,108.957,372.748z"></path>
						</g>
					</g>
				</g>
				<g>
					<g>
						<g>
							<path style="fill:#263238;" d="M112.647,362.822c0.096,0.061-0.247,0.775-0.768,1.593c-0.52,0.819-1.02,1.433-1.117,1.371         c-0.096-0.061,0.247-0.774,0.768-1.593C112.051,363.375,112.551,362.76,112.647,362.822z"></path>
						</g>
					</g>
				</g>
				<g>
					<g>
						<g>
							<path style="fill:#263238;" d="M115.692,367.665c0.042,0.106-0.443,0.397-1.082,0.649c-0.64,0.252-1.192,0.37-1.234,0.264         c-0.042-0.106,0.443-0.397,1.082-0.649C115.098,367.677,115.651,367.559,115.692,367.665z"></path>
						</g>
					</g>
				</g>
				<g>
					<g>
						<g>
							<path style="fill:#263238;" d="M113.192,404.074c-0.03,0.105-1.066-0.113-2.218-0.707c-1.155-0.589-1.936-1.304-1.868-1.39         c0.071-0.095,0.939,0.452,2.056,1.022C112.278,403.575,113.228,403.961,113.192,404.074z"></path>
						</g>
					</g>
				</g>
				<g>
					<g>
						<g>
							<path style="fill:#263238;" d="M111.268,411.687c0.014,0.113-0.697,0.292-1.588,0.399c-0.891,0.107-1.624,0.102-1.638-0.011         c-0.014-0.113,0.697-0.292,1.588-0.399C110.521,411.569,111.254,411.574,111.268,411.687z"></path>
						</g>
					</g>
				</g>
				<g>
					<g>
						<g>
							<path style="fill:#263238;" d="M108.637,424.788c-0.073,0.081-0.912-0.585-1.648-1.667c-0.741-1.079-1.057-2.102-0.955-2.141         c0.11-0.047,0.582,0.87,1.297,1.907C108.038,423.929,108.72,424.702,108.637,424.788z"></path>
						</g>
					</g>
				</g>
				<g>
					<g>
						<g>
							<path style="fill:#263238;" d="M89.662,429.519c-0.068-0.092,0.438-0.581,1.13-1.092c0.692-0.512,1.308-0.852,1.375-0.76         c0.068,0.092-0.438,0.581-1.13,1.092C90.346,429.27,89.73,429.611,89.662,429.519z"></path>
						</g>
					</g>
				</g>
			</g>
		</g>
		<g>
			<g>
				<g>
					<path style="fill:#455A64;" d="M66.231,387.014c-1.262-5.049-5.028-7.776-9.402-8.029c-3.992,0.7-5.54,4.63-6.014,8.655       c-0.474,4.025,0.776,8.031,2.01,11.891c3.963,12.394,7.925,24.788,11.888,37.182c3.745-0.409,7.49-0.818,11.235-1.227       C72.392,418.881,70.35,403.489,66.231,387.014z"></path>
				</g>
			</g>
			<g>
				<g>
					<g>
						<g>
							<path style="fill:#263238;" d="M56.992,378.665c0.039,0.034-0.598,0.57-1.358,1.824c-0.758,1.241-1.562,3.263-1.71,5.879         c-0.172,2.615,0.411,5.717,1.39,9.045c0.987,3.344,2.069,7.013,3.206,10.865c2.24,7.701,4.268,14.67,5.751,19.767         c0.707,2.502,1.284,4.542,1.697,6.003c0.183,0.68,0.33,1.225,0.441,1.638c0.097,0.376,0.141,0.575,0.127,0.579         c-0.014,0.004-0.084-0.187-0.207-0.556c-0.13-0.408-0.302-0.945-0.516-1.616c-0.444-1.452-1.063-3.479-1.823-5.966         c-1.513-5.087-3.581-12.044-5.867-19.732c-1.126-3.857-2.198-7.529-3.176-10.878c-0.963-3.347-1.528-6.505-1.315-9.168         c0.189-2.662,1.053-4.711,1.865-5.945C56.312,379.155,56.992,378.665,56.992,378.665z"></path>
						</g>
					</g>
				</g>
				<g>
					<g>
						<g>
							<path style="fill:#263238;" d="M73.498,434.286c-0.013,0.005-0.1-0.18-0.254-0.538c-0.148-0.36-0.387-0.885-0.64-1.58         c-0.536-1.381-1.222-3.414-1.932-5.967c-0.714-2.551-1.416-5.628-2.094-9.061c-0.651-3.44-1.366-7.214-2.116-11.176         c-0.782-3.955-1.651-7.698-2.661-11.037c-1.007-3.34-2.137-6.278-3.276-8.657c-1.133-2.381-2.216-4.227-3.029-5.458         c-0.386-0.63-0.738-1.084-0.947-1.413c-0.217-0.323-0.326-0.497-0.314-0.506c0.011-0.009,0.142,0.148,0.381,0.457         c0.231,0.313,0.605,0.754,1.013,1.372c0.857,1.209,1.985,3.042,3.159,5.421c1.179,2.376,2.344,5.323,3.377,8.673         c1.035,3.35,1.919,7.105,2.702,11.068c0.739,3.965,1.443,7.741,2.084,11.184c0.657,3.431,1.327,6.505,2.002,9.058         c0.672,2.553,1.313,4.594,1.801,5.988c0.23,0.703,0.444,1.235,0.566,1.605C73.45,434.085,73.511,434.28,73.498,434.286z"></path>
						</g>
					</g>
				</g>
				<g>
					<g>
						<g>
							<path style="fill:#263238;" d="M53.025,397.676c0.027,0.111-0.584,0.354-1.365,0.544c-0.781,0.19-1.436,0.253-1.463,0.142         c-0.027-0.111,0.584-0.354,1.365-0.544C52.344,397.628,52.998,397.565,53.025,397.676z"></path>
						</g>
					</g>
				</g>
				<g>
					<g>
						<g>
							<path style="fill:#263238;" d="M51.835,390.008c-0.006,0.116-0.855,0.163-1.895,0.205c-1.04,0.04-1.89,0.059-1.905-0.056         c-0.015-0.111,0.827-0.317,1.889-0.357C50.985,389.757,51.841,389.896,51.835,390.008z"></path>
						</g>
					</g>
				</g>
				<g>
					<g>
						<g>
							<path style="fill:#263238;" d="M53.101,383.004c-0.074,0.087-0.684-0.31-1.363-0.885c-0.679-0.576-1.17-1.114-1.096-1.201         c0.074-0.087,0.684,0.309,1.363,0.886C52.684,382.38,53.175,382.917,53.101,383.004z"></path>
						</g>
					</g>
				</g>
				<g>
					<g>
						<g>
							<path style="fill:#263238;" d="M56.528,376.521c0.114,0.026,0.083,0.572,0.066,1.232c-0.021,0.661-0.022,1.207-0.137,1.227         c-0.11,0.02-0.298-0.532-0.276-1.238C56.199,377.035,56.42,376.494,56.528,376.521z"></path>
						</g>
					</g>
				</g>
				<g>
					<g>
						<g>
							<path style="fill:#263238;" d="M63.532,379.576c0.094,0.066-0.181,0.619-0.613,1.236c-0.432,0.617-0.858,1.065-0.952,0.999         c-0.093-0.065,0.181-0.619,0.613-1.236C63.013,379.957,63.439,379.51,63.532,379.576z"></path>
						</g>
					</g>
				</g>
				<g>
					<g>
						<g>
							<path style="fill:#263238;" d="M68.077,387.472c0.043,0.106-0.539,0.443-1.299,0.753c-0.761,0.31-1.412,0.476-1.455,0.37         c-0.043-0.106,0.539-0.443,1.299-0.753C67.382,387.532,68.034,387.366,68.077,387.472z"></path>
						</g>
					</g>
				</g>
				<g>
					<g>
						<g>
							<path style="fill:#263238;" d="M70.835,395.595c0.046,0.1-0.724,0.54-1.781,0.777c-1.056,0.242-1.941,0.177-1.943,0.067         c-0.005-0.118,0.838-0.238,1.851-0.47C69.976,395.743,70.788,395.487,70.835,395.595z"></path>
						</g>
					</g>
				</g>
				<g>
					<g>
						<g>
							<path style="fill:#263238;" d="M58.175,393.288c-0.109-0.034-0.03-0.595,0.176-1.254c0.206-0.658,0.462-1.164,0.571-1.13         c0.109,0.034,0.03,0.595-0.176,1.254C58.539,392.816,58.284,393.322,58.175,393.288z"></path>
						</g>
					</g>
				</g>
				<g>
					<g>
						<g>
							<path style="fill:#263238;" d="M59.941,403.487c-0.105-0.045,0.123-0.802,0.508-1.689c0.385-0.887,0.783-1.57,0.887-1.524         c0.105,0.045-0.123,0.801-0.508,1.689C60.443,402.85,60.046,403.533,59.941,403.487z"></path>
						</g>
					</g>
				</g>
				<g>
					<g>
						<g>
							<path style="fill:#263238;" d="M55.578,406.28c-0.044,0.107-0.756-0.087-1.618-0.355c-0.861-0.271-1.557-0.517-1.532-0.63         c0.024-0.11,0.775-0.041,1.656,0.235C54.965,405.804,55.622,406.176,55.578,406.28z"></path>
						</g>
					</g>
				</g>
				<g>
					<g>
						<g>
							<path style="fill:#263238;" d="M58.093,414.595c0.066,0.093-0.415,0.55-1.075,1.021c-0.66,0.471-1.249,0.777-1.315,0.685         c-0.066-0.093,0.415-0.55,1.075-1.021C57.438,414.809,58.027,414.503,58.093,414.595z"></path>
						</g>
					</g>
				</g>
				<g>
					<g>
						<g>
							<path style="fill:#263238;" d="M60.11,422.887c0.027,0.111-0.568,0.351-1.33,0.536c-0.761,0.185-1.4,0.245-1.427,0.134         c-0.027-0.111,0.568-0.351,1.33-0.536C59.444,422.836,60.083,422.776,60.11,422.887z"></path>
						</g>
					</g>
				</g>
				<g>
					<g>
						<g>
							<path style="fill:#263238;" d="M71.057,402.522c0.057,0.096-0.451,0.502-1.193,0.78c-0.741,0.281-1.391,0.311-1.411,0.202         c-0.022-0.114,0.561-0.321,1.265-0.588C70.423,402.651,70.998,402.421,71.057,402.522z"></path>
						</g>
					</g>
				</g>
				<g>
					<g>
						<g>
							<path style="fill:#263238;" d="M72.621,415.421c-0.049,0.103-0.655-0.08-1.355-0.409c-0.7-0.329-1.227-0.68-1.179-0.783         c0.049-0.103,0.655,0.08,1.355,0.409C72.141,414.967,72.669,415.317,72.621,415.421z"></path>
						</g>
					</g>
				</g>
				<g>
					<g>
						<g>
							<path style="fill:#263238;" d="M75.382,424.651c-0.042,0.106-0.843-0.108-1.789-0.479c-0.946-0.371-1.68-0.758-1.638-0.864         c0.042-0.106,0.842,0.108,1.789,0.479C74.69,424.158,75.423,424.544,75.382,424.651z"></path>
						</g>
					</g>
				</g>
				<g>
					<g>
						<g>
							<path style="fill:#263238;" d="M60.552,431.882c-0.056-0.104,0.681-0.599,1.532-1.271c0.855-0.668,1.51-1.267,1.598-1.188         c0.084,0.072-0.455,0.819-1.342,1.513C61.456,431.633,60.602,431.98,60.552,431.882z"></path>
						</g>
					</g>
				</g>
				<g>
					<g>
						<g>
							<path style="fill:#263238;" d="M67.851,427.188c-0.117,0.014-0.276-0.606-0.558-1.327c-0.276-0.723-0.575-1.289-0.479-1.358         c0.087-0.068,0.566,0.429,0.865,1.209C67.982,426.491,67.961,427.18,67.851,427.188z"></path>
						</g>
					</g>
				</g>
				<g>
					<g>
						<g>
							<path style="fill:#263238;" d="M65.916,416.087c-0.067,0.093-0.538-0.132-1.053-0.501c-0.515-0.37-0.878-0.745-0.812-0.837         c0.066-0.093,0.538,0.132,1.053,0.501C65.619,415.62,65.983,415.995,65.916,416.087z"></path>
						</g>
					</g>
				</g>
			</g>
		</g>
		<g>
			<g>
				<g>
					<rect x="55.16" y="431.663" style="fill:#FF725E;" width="58.8" height="10.422"></rect>
				</g>
			</g>
			<g>
				<g>
					<polygon style="fill:#FF725E;" points="59.551,440.017 66.702,471.16 101.746,471.16 109.569,440.017      "></polygon>
				</g>
			</g>
			<g>
				<g>
					<g>
						<path style="fill:#263238;" d="M113.928,442.097c0,0.114-13.263,0.207-29.62,0.207c-16.363,0-29.623-0.092-29.623-0.207        c0-0.114,13.26-0.207,29.623-0.207C100.664,441.891,113.928,441.983,113.928,442.097z"></path>
					</g>
				</g>
			</g>
		</g>
	</g>
</g>
<g id="Character">
	<g>
		<g>
			<path style="fill:#455A64;" d="M353.092,386.484c0,2.006,31.167,84.985,31.167,84.985h12.539l-31.083-84.985H353.092z"></path>
		</g>
		<g>
			<rect x="308.466" y="382.479" style="fill:#455A64;" width="12.499" height="88.989"></rect>
		</g>
		<g>
			<rect x="350.269" y="413.319" style="fill:#455A64;" width="39.791" height="8.859"></rect>
		</g>
		<g>
			<rect x="308.466" y="380.905" style="fill:#455A64;" width="69.189" height="8.859"></rect>
		</g>
		<g>
			<rect x="361.299" y="445.733" style="fill:#455A64;" width="41.181" height="8.859"></rect>
		</g>
		<g>
			<g>
				<path style="fill:#263238;" d="M378.057,390.048c0,0.144-15.609,0.26-34.858,0.26c-19.257,0-34.862-0.117-34.862-0.26      c0-0.144,15.605-0.26,34.862-0.26C362.448,389.788,378.057,389.904,378.057,390.048z"></path>
			</g>
		</g>
		<g>
			<g>
				<path style="fill:#263238;" d="M321.212,471.469c-0.144,0-0.26-18.228-0.26-40.708c0-22.488,0.117-40.712,0.26-40.712      c0.144,0,0.26,18.224,0.26,40.712C321.472,453.24,321.356,471.469,321.212,471.469z"></path>
			</g>
		</g>
		<g>
			<g>
				<path style="fill:#263238;" d="M384.259,471.468c-0.135,0.05-7.005-18.23-15.342-40.824      c-8.34-22.602-14.99-40.958-14.855-41.008c0.135-0.05,7.003,18.226,15.344,40.828      C377.743,453.058,384.394,471.419,384.259,471.468z"></path>
			</g>
		</g>
		<g>
			<g>
				<path style="fill:#263238;" d="M396.992,471.468c-0.135,0.05-7.005-18.23-15.342-40.824      c-8.34-22.602-14.99-40.958-14.855-41.008c0.135-0.05,7.003,18.226,15.344,40.828      C390.475,453.058,397.126,471.419,396.992,471.468z"></path>
			</g>
		</g>
	</g>
	<g>
		<g>
			<g>
				<path style="fill:#FFBE9D;" d="M436.182,198.029c-0.935-4.021-3.197-7.586-5.422-11.063c-3.581,2.214-7.455,3.951-11.489,5.153      l1.181,20.819c4.633,0.142,9.782-0.109,13.087-3.359C436.483,206.684,437.117,202.049,436.182,198.029z"></path>
			</g>
			<g>
				<path style="fill:#FF725E;" d="M421.436,161.363l-10.123,22.963c3.721,3.653,6.666,8.092,8.584,12.941      c6.054-2.97,11.601-6.968,16.332-11.773C431.262,178.589,425.508,164.595,421.436,161.363z"></path>
			</g>
		</g>
		<g>
			<g>
				<g>
					<g>
						<g>
							<g>
								<g>
									<g>
										<g>
											<g>
												<g>
													<g>
														<g>
															<g>
																<g>
																	<g>
																		<g>
																			<path style="fill:#FFBE9D;" d="M407.399,110.509l-4.082,39.708c-0.694,6.753-3.094,16.53-13.72,14.946l0,0                     c-9.116-2.07-10.557-11.092-9.902-17.393c0.31-2.989,0.563-5.482,0.575-5.791c0,0-10.011-1.99-9.712-12.07                     c0.144-4.871,1.259-14.88,2.371-23.923c1.195-9.712,9.66-16.872,19.436-16.462l0.972,0.041                     C403.793,90.617,408.741,100.086,407.399,110.509z"></path>
																		</g>
																	</g>
																</g>
															</g>
														</g>
													</g>
												</g>
											</g>
										</g>
									</g>
								</g>
							</g>
						</g>
					</g>
				</g>
			</g>
			<g>
				<g>
					<g>
						<g>
							<g>
								<g>
									<g>
										<g>
											<g>
												<g>
													<g>
														<g>
															<g>
																<g>
																	<g>
																		<g>
																			<path style="fill:#EB996E;" d="M380.259,141.833c0,0,6.345,0.785,13.291-3.181c0,0-3.409,7.12-13.424,5.791                     L380.259,141.833z"></path>
																		</g>
																	</g>
																</g>
															</g>
														</g>
													</g>
												</g>
											</g>
										</g>
									</g>
								</g>
							</g>
						</g>
					</g>
				</g>
			</g>
			<g>
				<g>
					<g>
						<g>
							<g>
								<g>
									<g>
										<g>
											<g>
												<g>
													<g>
														<g>
															<g>
																<g>
																	<g>
																		<g>
																			<g>
																				<g>
																					<g>
																						<g>
																							<path style="fill:#263238;" d="M374.224,111.067c0.164,0.216,1.598-0.046,3.38,0.514                         c1.785,0.54,2.915,1.592,3.151,1.499c0.114-0.038-0.02-0.377-0.509-0.846                         c-0.481-0.465-1.36-1.045-2.471-1.388c-1.112-0.342-2.125-0.346-2.742-0.219                         C374.403,110.751,374.141,110.968,374.224,111.067z"></path>
																						</g>
																					</g>
																				</g>
																			</g>
																		</g>
																	</g>
																</g>
															</g>
														</g>
													</g>
												</g>
											</g>
										</g>
									</g>
								</g>
							</g>
						</g>
					</g>
					<g>
						<g>
							<g>
								<g>
									<g>
										<g>
											<g>
												<g>
													<g>
														<g>
															<g>
																<g>
																	<g>
																		<g>
																			<g>
																				<g>
																					<g>
																						<g>
																							<path style="fill:#263238;" d="M389.68,113.392c0.241,0.118,1.406-0.738,3.243-1.026                         c1.831-0.306,3.303,0.123,3.473-0.062c0.085-0.083-0.184-0.322-0.827-0.52                         c-0.634-0.198-1.674-0.323-2.817-0.137c-1.143,0.186-2.049,0.625-2.544,1.006                         C389.701,113.037,389.563,113.341,389.68,113.392z"></path>
																						</g>
																					</g>
																				</g>
																			</g>
																		</g>
																	</g>
																</g>
															</g>
														</g>
													</g>
												</g>
											</g>
										</g>
									</g>
								</g>
							</g>
						</g>
					</g>
				</g>
				<g>
					<g>
						<g>
							<g>
								<g>
									<g>
										<g>
											<g>
												<g>
													<g>
														<g>
															<g>
																<g>
																	<g>
																		<g>
																			<g>
																				<g>
																					<g>
																						<path style="fill:#263238;" d="M389.742,116.686c-0.045,0.586,0.413,1.107,1.024,1.166                        c0.61,0.059,1.142-0.368,1.187-0.954c0.045-0.586-0.413-1.108-1.023-1.167                        C390.319,115.672,389.787,116.1,389.742,116.686z"></path>
																					</g>
																				</g>
																			</g>
																		</g>
																	</g>
																</g>
															</g>
														</g>
													</g>
												</g>
											</g>
										</g>
									</g>
								</g>
							</g>
						</g>
					</g>
				</g>
				<g>
					<g>
						<g>
							<g>
								<g>
									<g>
										<g>
											<g>
												<g>
													<g>
														<g>
															<g>
																<g>
																	<g>
																		<g>
																			<g>
																				<g>
																					<g>
																						<path style="fill:#263238;" d="M374.949,115.508c-0.045,0.586,0.413,1.107,1.024,1.166                        c0.61,0.059,1.142-0.368,1.187-0.954c0.045-0.586-0.413-1.108-1.023-1.167                        C375.526,114.495,374.994,114.922,374.949,115.508z"></path>
																					</g>
																				</g>
																			</g>
																		</g>
																	</g>
																</g>
															</g>
														</g>
													</g>
												</g>
											</g>
										</g>
									</g>
								</g>
							</g>
						</g>
					</g>
				</g>
				<g>
					<g>
						<g>
							<g>
								<g>
									<g>
										<g>
											<g>
												<g>
													<g>
														<g>
															<g>
																<g>
																	<g>
																		<g>
																			<g>
																				<g>
																					<g>
																						<path style="fill:#263238;" d="M383.991,123.195c0.011-0.088-0.944-0.295-2.495-0.559                        c-0.394-0.057-0.764-0.151-0.82-0.424c-0.081-0.29,0.102-0.709,0.313-1.161                        c0.412-0.941,0.843-1.928,1.296-2.961c1.804-4.218,3.127-7.693,2.956-7.764                        c-0.171-0.071-1.771,3.29-3.574,7.508c-0.435,1.04-0.851,2.032-1.247,2.981                        c-0.168,0.443-0.447,0.942-0.27,1.543c0.094,0.3,0.375,0.526,0.626,0.605c0.25,0.088,0.473,0.102,0.668,0.121                        C383.008,123.234,383.981,123.283,383.991,123.195z"></path>
																					</g>
																				</g>
																			</g>
																		</g>
																	</g>
																</g>
															</g>
														</g>
													</g>
												</g>
											</g>
										</g>
									</g>
								</g>
							</g>
						</g>
					</g>
				</g>
			</g>
			<g>
				<g>
					<g>
						<g>
							<g>
								<g>
									<g>
										<g>
											<g>
												<g>
													<g>
														<g>
															<g>
																<g>
																	<g>
																		<path style="fill:#263238;" d="M390.959,105.84c0.119,0.39,1.49,0.265,3.083,0.532                    c1.599,0.234,2.871,0.773,3.098,0.438c0.102-0.161-0.108-0.531-0.615-0.925c-0.502-0.393-1.314-0.78-2.271-0.931                    c-0.957-0.149-1.845-0.028-2.438,0.193C391.218,105.366,390.909,105.655,390.959,105.84z"></path>
																	</g>
																</g>
															</g>
														</g>
													</g>
												</g>
											</g>
										</g>
									</g>
								</g>
							</g>
						</g>
					</g>
				</g>
			</g>
			<g>
				<g>
					<g>
						<g>
							<g>
								<g>
									<g>
										<g>
											<g>
												<g>
													<g>
														<g>
															<g>
																<g>
																	<g>
																		<path style="fill:#263238;" d="M374.719,107.106c0.141,0.323,1.484,0.138,3.071,0.271                    c1.59,0.105,2.876,0.488,3.08,0.191c0.09-0.142-0.139-0.443-0.662-0.747c-0.519-0.303-1.342-0.584-2.295-0.657                    c-0.952-0.07-1.82,0.084-2.392,0.305C374.945,106.69,374.658,106.952,374.719,107.106z"></path>
																	</g>
																</g>
															</g>
														</g>
													</g>
												</g>
											</g>
										</g>
									</g>
								</g>
							</g>
						</g>
					</g>
				</g>
			</g>
			<g>
				<g>
					<g>
						<g>
							<g>
								<g>
									<g>
										<g>
											<g>
												<g>
													<g>
														<path style="fill:#FFBE9D;" d="M406.263,117.934c0.175-0.067,7.009-1.757,6.499,5.122                c-0.509,6.879-7.31,4.948-7.307,4.75C405.458,127.608,406.263,117.934,406.263,117.934z"></path>
													</g>
												</g>
											</g>
										</g>
									</g>
								</g>
							</g>
						</g>
					</g>
				</g>
			</g>
			<g>
				<g>
					<g>
						<g>
							<g>
								<g>
									<g>
										<g>
											<g>
												<g>
													<g>
														<g>
															<path style="fill:#EB996E;" d="M407.749,125.356c0.032-0.02,0.114,0.093,0.309,0.201                 c0.191,0.105,0.526,0.193,0.894,0.085c0.746-0.213,1.444-1.321,1.569-2.559c0.064-0.624-0.023-1.23-0.208-1.74                 c-0.173-0.519-0.472-0.894-0.833-0.987c-0.358-0.111-0.633,0.089-0.731,0.276c-0.107,0.186-0.073,0.326-0.11,0.335                 c-0.021,0.016-0.139-0.126-0.063-0.406c0.038-0.134,0.131-0.291,0.302-0.411c0.175-0.122,0.423-0.173,0.676-0.126                 c0.528,0.076,0.969,0.599,1.173,1.159c0.233,0.564,0.345,1.246,0.274,1.948c-0.147,1.383-0.952,2.627-1.968,2.841                 c-0.493,0.09-0.886-0.085-1.082-0.263C407.749,125.523,407.724,125.366,407.749,125.356z"></path>
														</g>
													</g>
												</g>
											</g>
										</g>
									</g>
								</g>
							</g>
						</g>
					</g>
				</g>
			</g>
			<g>
				<g>
					<g>
						<path style="fill:#263238;" d="M385.059,128.121c-0.055-0.182,1.333-0.428,2.421-1.578c0.543-0.565,0.892-1.209,1.154-1.679        c0.257-0.474,0.444-0.768,0.516-0.737c0.067,0.03,0.011,0.364-0.161,0.892c-0.176,0.521-0.497,1.259-1.112,1.901        c-0.608,0.65-1.362,0.993-1.903,1.137C385.426,128.21,385.071,128.182,385.059,128.121z"></path>
					</g>
				</g>
			</g>
			<g>
				<g>
					<g>
						<path style="fill:#263238;" d="M365.107,98.77c-0.616,0.189-1.147,0.716-1.276,1.36c-0.189,0.942,0.412,1.947,1.293,2.333        c0.88,0.386,1.954,0.192,2.725-0.381c-0.353,0.201-0.672,0.458-0.947,0.755c-1.39,1.499,0.617,3.812,2.295,2.644        c0.01-0.007,0.02-0.014,0.03-0.021c0.25,0.565,0.422,1.127,0.606,1.69l-0.001,0.013l0.041,0.107        c0.116,0.351,0.238,0.702,0.394,1.053l0.004-0.022l1.845,4.775c0.472-2.794,0.694-6.794,1.166-9.587        c4.359,0.313,8.484-0.984,11.765-3.871c1.731-1.523,3.184-3.514,5.354-4.293c2.798-1.004,5.843,0.313,8.521,1.604l-0.106-0.12        c1.374,0.839,2.585,1.944,3.545,3.237c-1.266,5.46-1.343,11.194-0.215,16.685c0.17,0.827,0.695,2.551,1.442,2.944        c1.469,0.771,2.063-0.746,3.085-1.471c0.752-0.534,1.771-0.496,2.876-0.366c0.846-1.633,1.847-4.433,2.699-6.887l1.233-2.315        l-0.004-2.759c-1.148-2.579,2.021-3.475,1.553-6.259c-0.469-2.784-1.648-5.748-4.181-6.995l-0.063,0.019        c-2.262-1.228-5.185-1.579-7.322-0.157c-0.072-3.614-2.866-6.791-6.234-8.103c-3.368-1.312-9.001-1.411-12.487-0.454        c-2.695,0.739-5.429,2.576-8.815,5.346c-1.427,1.167-3.254,5.454-4.471,6.838L365.107,98.77z"></path>
					</g>
				</g>
			</g>
			<g>
				<g>
					<g>
						<path style="fill:#FF725E;" d="M401.741,81.033c0.482,0.141,11.994,4.595,13.66,13.907c1.666,9.313,0.389,11.908,0.389,11.908        s0.629,0.522,1.085,1.253c0.409,0.655-0.728,3.344-2.236,2.798c-10.872-6.871-24.564-9.428-39.976-11.223l-11.725-1.885        c-3.346-0.105-4.371-1.149-2.861-1.769c1.157-0.475,11.046-2.841,11.046-2.841l2.032-1.066l5.847-6.008        c0,0-0.461-1.025,0.841-1.628S392.225,78.243,401.741,81.033z"></path>
					</g>
				</g>
			</g>
			<g>
				<g>
					<g>
						<g>
							<path style="fill:#263238;" d="M373.154,92.118c0,0,0.157,0.031,0.458,0.071c0.358,0.045,0.792,0.1,1.315,0.165         c1.145,0.12,2.791,0.378,4.818,0.723c4.043,0.738,9.591,2.069,15.47,4.278c5.894,2.17,11.022,4.653,14.696,6.502         c1.841,0.921,3.315,1.698,4.337,2.227c0.468,0.242,0.857,0.443,1.178,0.609c0.27,0.137,0.417,0.2,0.417,0.2         s-0.134-0.087-0.398-0.236c-0.316-0.175-0.699-0.387-1.16-0.642c-1.011-0.55-2.476-1.346-4.309-2.284         c-3.66-1.882-8.785-4.389-14.691-6.563c-5.891-2.213-11.458-3.526-15.514-4.23C375.703,92.258,373.154,92.118,373.154,92.118         z"></path>
						</g>
					</g>
				</g>
			</g>
			<g style="opacity:0.3;">
				<g>
					<g>
						<g>
							<path d="M411.844,87.873c0,0-12.529-3.975-18.685-2.061c0.239-0.079,0.478-0.158,0.717-0.237         c-1.928,0.528-3.856,1.057-5.784,1.585c-0.977,0.268-2.111,0.51-2.929-0.088c0,0,3.286-2.177,8.924-3.198         C399.725,82.852,408.368,83.332,411.844,87.873z"></path>
						</g>
					</g>
				</g>
			</g>
			<g>
				<g>
					<g>
						<g>
							<path style="fill:#263238;" d="M412.02,87.968c0,0-0.334-0.369-1.038-0.924c-0.702-0.553-1.772-1.307-3.229-1.982         c-1.448-0.687-3.283-1.291-5.384-1.601c-2.089-0.311-4.483-0.367-6.853,0.318c-1.184,0.326-2.293,0.778-3.356,1.216         c-1.056,0.457-2.094,0.843-3.051,1.312c-0.949,0.468-1.829,0.953-2.725,1.211c-0.891,0.299-1.765,0.234-2.554,0.133         c-3.161-0.423-5.001-1.362-4.829-1.541c0-0.008,0.017,0.141,0.215,0.286c0.193,0.138,0.501,0.311,0.921,0.469         c0.836,0.323,2.086,0.693,3.675,0.925c0.783,0.112,1.707,0.185,2.619-0.114c0.919-0.257,1.814-0.744,2.759-1.204         c0.944-0.457,1.99-0.843,3.045-1.296c1.063-0.435,2.165-0.883,3.335-1.204c2.338-0.675,4.697-0.627,6.773-0.328         c2.084,0.297,3.906,0.883,5.351,1.548c1.453,0.654,2.527,1.383,3.241,1.915c0.357,0.267,0.626,0.486,0.803,0.64         C411.918,87.897,412.02,87.968,412.02,87.968z"></path>
						</g>
					</g>
				</g>
			</g>
			<g style="opacity:0.3;">
				<g>
					<g>
						<g>
							<path d="M415.97,98.811c-2.299-0.356-3.956-1.211-6.167-2.048c-2.356-0.892-4.705-1.67-7.015-2.673         c-1.753-0.762-3.848-1.521-4.844-3.017c-0.314,0.929-0.156,1.836,0.445,2.61c0.601,0.774,2.75,1.909,3.648,2.302         c5.117,2.24,8.666,3.761,14.142,4.963C416.216,100.37,415.97,98.811,415.97,98.811"></path>
						</g>
					</g>
				</g>
			</g>
			<g>
				<g>
					<g>
						<path style="fill:#FF725E;" d="M415.173,93.916c1.364,0.848,2.196,1.406,2.054,2.654c-0.117,1.039-0.514,2.272-1.559,2.302        c-0.319,0.009-0.627-0.1-0.927-0.208c-5.137-1.849-10.275-3.698-15.412-5.547c-0.521-0.188-1.085-0.41-1.36-0.89        c-0.423-0.74,0.106-1.732,0.873-2.103c0.767-0.37,1.667-0.29,2.512-0.181C406.156,90.562,410.707,92.045,415.173,93.916"></path>
					</g>
				</g>
			</g>
			<g>
				<g>
					<g>
						<g>
							<path style="fill:#263238;" d="M398.179,92.495c0.027-0.014-0.252-0.216-0.325-0.756c-0.072-0.507,0.127-1.398,0.948-1.908         c0.835-0.468,2.054-0.486,3.299-0.235c1.265,0.252,2.654,0.548,4.098,0.908c2.893,0.709,5.444,1.601,7.219,2.411         c0.892,0.394,1.592,0.76,2.075,1.013c0.198,0.107,0.38,0.205,0.553,0.299c0.128,0.066,0.197,0.098,0.2,0.093         c0.004-0.006-0.058-0.049-0.18-0.127c-0.168-0.104-0.344-0.213-0.536-0.332c-0.473-0.275-1.166-0.661-2.054-1.074         c-1.767-0.846-4.327-1.764-7.229-2.476c-1.449-0.361-2.841-0.652-4.112-0.895c-1.269-0.243-2.521-0.221-3.407,0.295         c-0.873,0.568-1.049,1.511-0.952,2.04c0.047,0.277,0.158,0.471,0.244,0.588C398.117,92.451,398.176,92.499,398.179,92.495z"></path>
						</g>
					</g>
				</g>
			</g>
			<g>
				<g>
					<g>
						<polygon style="fill:#FFFFFF;" points="377.166,87.995 387.191,89.262 385.931,91.953 375.098,90.12       "></polygon>
					</g>
				</g>
			</g>
			<g>
				<g>
					<g>
						<g>
							<path style="fill:#263238;" d="M390.973,99.094c0.015-0.053-4.347-1.347-9.741-2.889c-5.396-1.543-9.781-2.751-9.797-2.698         c-0.015,0.053,4.346,1.346,9.742,2.889C386.572,97.939,390.958,99.147,390.973,99.094z"></path>
						</g>
					</g>
				</g>
			</g>
		</g>
		<g>
			<g>
				<path style="fill:#E0E0E0;" d="M461.759,235.607l5.11-13.277l13.001-5.774l10.049,7.82l2.853-2.853      c-2.226-9.54-8.983-17.845-18.814-21.63c-11.56-4.449-24.153-1.406-32.449,6.743l-134.702-51.499      c-0.691-11.608-7.993-22.31-19.553-26.759c-9.831-3.784-20.413-2.152-28.461,3.433l-2.853,2.853l15.756,2.113l5.774,13.001      l-5.11,13.277l-13.001,5.774l-13.705-4.164l-2.051,2.051c2.874,8.157,12.964,15.426,21.668,18.776      c11.543,4.443,24.116,1.415,32.412-6.707L432.425,230.3c0.709,11.588,8.008,22.264,19.55,26.707      c9.831,3.784,21.645,2.703,29.693-2.882l-14.134-5.517L461.759,235.607z"></path>
			</g>
			<g style="opacity:0.3;">
				<path d="M461.759,235.607l5.11-13.277l13.001-5.774l10.049,7.82l2.853-2.853c-2.226-9.54-8.983-17.845-18.814-21.63      c-11.56-4.449-24.153-1.406-32.449,6.743l-134.702-51.499c-0.691-11.608-7.993-22.31-19.553-26.759      c-9.831-3.784-20.413-2.152-28.461,3.433l-2.853,2.853l15.756,2.113l5.774,13.001l-5.11,13.277l-13.001,5.774l-13.705-4.164      l-2.051,2.051c2.818,8.304,12.844,15.38,21.668,18.776c11.543,4.443,24.116,1.415,32.412-6.707L432.425,230.3      c0.709,11.588,8.008,22.264,19.55,26.707c9.831,3.784,21.645,2.703,29.693-2.882l-14.134-5.517L461.759,235.607z"></path>
			</g>
			<g>
				<path style="fill:#E0E0E0;" d="M458.906,238.46l5.11-13.277l13.001-5.774l12.902,4.966c-2.226-9.54-8.983-17.846-18.814-21.63      c-11.56-4.449-24.153-1.406-32.449,6.743L303.955,157.99c-0.691-11.608-7.994-22.31-19.553-26.759      c-9.831-3.784-20.413-2.152-28.461,3.433l12.902,4.966l5.775,13.001l-5.11,13.277l-13.001,5.774l-12.903-4.966      c2.226,9.54,8.983,17.845,18.815,21.629c11.543,4.443,24.116,1.415,32.412-6.707l134.742,51.515      c0.709,11.588,8.008,22.264,19.55,26.707c9.831,3.784,20.413,2.152,28.461-3.433l-12.902-4.966L458.906,238.46z"></path>
			</g>
			<g>
				<g>
					<path style="fill:#263238;" d="M303.038,163.941c0.036,0.002,0.049,0.294,0.042,0.824c0,0.53-0.062,1.296-0.194,2.234       c-0.259,1.877-0.915,4.448-2.172,7.068c-1.266,2.617-2.867,4.734-4.173,6.106c-0.652,0.689-1.211,1.214-1.626,1.545       c-0.41,0.336-0.646,0.508-0.67,0.481c-0.059-0.067,0.805-0.851,2.021-2.271c1.218-1.416,2.738-3.521,3.979-6.086       c1.232-2.569,1.931-5.069,2.279-6.904C302.874,165.101,302.949,163.936,303.038,163.941z"></path>
				</g>
			</g>
			<g>
				<g>
					<path style="fill:#263238;" d="M458.906,238.46c0,0,0.137,0.279,0.388,0.831c0.252,0.558,0.624,1.38,1.115,2.466       c0.98,2.185,2.432,5.424,4.338,9.674l-0.041-0.039c3.541,1.354,7.887,3.017,12.913,4.939l0.182,0.07l-0.161,0.11       c-3.213,2.207-7.197,4.091-11.826,4.982c-4.61,0.888-9.863,0.764-15.066-0.915c-5.195-1.637-10.329-4.851-14.28-9.599       c-3.936-4.732-6.624-10.993-7.074-17.816l0.113,0.155c-36.074-13.772-82.425-31.467-134.766-51.449l0.261-0.054       c-3.739,3.64-8.454,6.363-13.611,7.754c-5.148,1.416-10.739,1.441-15.997-0.006c-5.264-1.406-10.198-4.256-14.079-8.232       c-3.878-3.978-6.662-9.065-7.964-14.557l-0.113-0.476l0.457,0.176c4.06,1.562,8.468,3.259,12.903,4.965l-0.198,0.005       c4.103-1.823,8.54-3.793,13.001-5.775l-0.137,0.144c1.618-4.203,3.36-8.729,5.11-13.277l0.005,0.199l-0.006-0.013       c-1.933-4.351-3.856-8.682-5.769-12.988l0.144,0.137c-4.326-1.665-8.628-3.321-12.902-4.967l-0.459-0.177l0.404-0.279       c4.638-3.196,10.104-5.102,15.641-5.461c5.54-0.352,11.11,0.833,15.964,3.315c2.432,1.23,4.692,2.777,6.702,4.586       c2.001,1.819,3.748,3.894,5.196,6.144c2.903,4.5,4.583,9.703,4.909,14.94l-0.161-0.219       c51.677,19.783,97.817,37.447,134.679,51.558l-0.198,0.041c4.776-4.654,10.795-7.49,16.77-8.434       c5.995-0.974,11.904-0.029,16.895,2.112c5.016,2.135,9.122,5.48,12.076,9.268c2.972,3.794,4.816,8.002,5.772,12.046       l0.053,0.225l-0.216-0.083c-5.166-1.998-9.236-3.572-12.895-4.986l0.077-0.002c-5.53,2.442-9.647,4.26-13.013,5.747       l0.037-0.039c-1.766,4.543-3.053,7.853-3.901,10.034c-0.426,1.084-0.741,1.886-0.952,2.425       C459.018,238.2,458.906,238.46,458.906,238.46s0.088-0.26,0.287-0.792c0.203-0.54,0.507-1.343,0.916-2.43       c0.835-2.191,2.102-5.516,3.841-10.08l0.01-0.027l0.027-0.012c3.36-1.501,7.469-3.336,12.989-5.802l0.038-0.017l0.039,0.015       c3.663,1.403,7.738,2.965,12.91,4.946l-0.163,0.142c-0.961-4.009-2.801-8.176-5.755-11.929       c-2.936-3.747-7.009-7.049-11.979-9.152c-4.946-2.109-10.791-3.033-16.717-2.059c-5.907,0.943-11.851,3.756-16.562,8.36       l-0.086,0.085l-0.113-0.043c-36.874-14.079-83.029-31.702-134.724-51.44l-0.151-0.058l-0.01-0.162       c-0.323-5.151-1.978-10.27-4.835-14.695c-1.425-2.213-3.144-4.253-5.112-6.041c-1.977-1.777-4.199-3.298-6.592-4.507       c-4.775-2.44-10.253-3.604-15.699-3.257c-5.444,0.354-10.819,2.229-15.379,5.372l-0.055-0.455       c4.274,1.645,8.576,3.301,12.902,4.966l0.101,0.039l0.044,0.099c1.913,4.306,3.836,8.637,5.769,12.988l0.006,0.013l0.044,0.099       l-0.039,0.101c-1.75,4.548-3.492,9.073-5.11,13.276l-0.039,0.101l-0.099,0.044c-4.461,1.981-8.898,3.951-13.001,5.774       l-0.098,0.044l-0.1-0.039c-4.434-1.707-8.842-3.404-12.902-4.967l0.344-0.3c1.279,5.4,4.016,10.404,7.828,14.317       c3.815,3.91,8.666,6.715,13.844,8.1c5.171,1.425,10.668,1.403,15.734,0.011c5.074-1.367,9.715-4.044,13.396-7.623l0.114-0.111       l0.148,0.057c52.322,20.033,98.656,37.773,134.716,51.58l0.107,0.041l0.007,0.114c0.435,6.744,3.081,12.943,6.967,17.633       c3.9,4.706,8.976,7.899,14.12,9.533c5.152,1.676,10.358,1.812,14.934,0.944c4.595-0.871,8.556-2.728,11.755-4.909l0.022,0.18       c-5.018-1.943-9.357-3.624-12.892-4.993l-0.029-0.011l-0.012-0.028c-1.879-4.272-3.312-7.529-4.278-9.725       c-0.475-1.089-0.835-1.914-1.079-2.473C459.017,238.74,458.906,238.46,458.906,238.46z"></path>
				</g>
			</g>
		</g>
		<g>
			<g>
				<path style="fill:#FF725E;" d="M368.355,156.334l-9.573,76.492c-0.466,3.72,1.915,7.203,5.549,8.121l49.391,8.555      c2.935,0.508,5.628-1.729,5.663-4.707c0.123-10.536,0.555-33.326,2.051-47.528c1.649-15.656,5.842-28.439,0-35.904      c-5.842-7.464-16.034-12.674-16.034-12.674l-1.077-4.652c0,0-21.318,0.031-24.994,3.218l-2.262,3.92L368.355,156.334z"></path>
			</g>
			<g>
				<g>
					<path style="fill:#263238;" d="M423.535,173.939c0.018,0.001,0.021,0.171,0.01,0.493c-0.02,0.382-0.044,0.846-0.073,1.407       c-0.093,1.301-0.217,3.047-0.367,5.168c-0.333,4.362-0.828,10.385-1.408,17.035c-0.58,6.652-1.133,12.67-1.56,17.024       c-0.218,2.115-0.398,3.855-0.532,5.152c-0.068,0.557-0.125,1.019-0.171,1.398c-0.045,0.319-0.077,0.486-0.095,0.484       c-0.018-0.002-0.021-0.172-0.009-0.495c0.02-0.382,0.044-0.847,0.074-1.408c0.092-1.301,0.216-3.047,0.367-5.169       c0.333-4.362,0.828-10.385,1.408-17.035c0.579-6.648,1.133-12.664,1.56-17.018c0.218-2.115,0.398-3.856,0.532-5.154       c0.068-0.558,0.125-1.019,0.171-1.399C423.485,174.105,423.517,173.938,423.535,173.939z"></path>
				</g>
			</g>
			<g>
				<g>
					<path style="fill:#263238;" d="M405.402,148.689c0,0.036-0.397,0.074-1.115,0.112c-0.83,0.041-1.845,0.091-3.039,0.15       c-2.565,0.126-6.104,0.349-10.005,0.709c-3.902,0.357-7.427,0.77-9.979,1.065c-1.189,0.134-2.199,0.247-3.025,0.34       c-0.716,0.073-1.114,0.096-1.119,0.06s0.383-0.127,1.09-0.261c0.707-0.135,1.734-0.308,3.005-0.504       c2.543-0.389,6.068-0.861,9.981-1.218c3.911-0.361,7.467-0.527,10.04-0.558c1.287-0.018,2.329-0.01,3.049,0.016       C405.004,148.623,405.402,148.653,405.402,148.689z"></path>
				</g>
			</g>
		</g>
		<g>
			<g>
				<g>
					<g>
						<g>
							<g>
								<g>
									<g>
										<g>
											<g>
												<g>
													<g>
														<g>
															<g>
																<g>
																	<g>
																		<path style="fill:#FF725E;" d="M327.132,349.961l8.393,18.714c0,0-22.094,8.649-22.271,12.76l42.995-0.778                    l-0.053-3.591l-9.483-30.871L327.132,349.961z"></path>
																	</g>
																</g>
															</g>
														</g>
													</g>
												</g>
											</g>
										</g>
									</g>
								</g>
							</g>
						</g>
					</g>
				</g>
				<g>
					<g>
						<g>
							<g>
								<g>
									<g>
										<g>
											<g>
												<g>
													<g>
														<g>
															<g>
																<g>
																	<g>
																		<g>
																			<path style="fill:#E0E0E0;" d="M348.122,365.314c0.836,0.212,1.428,1.138,1.25,1.982                     c-0.178,0.844-1.114,1.455-1.953,1.257c-0.84-0.197-1.584-1.286-1.313-2.106                     c0.271-0.819,1.409-1.475,2.177-1.082"></path>
																		</g>
																	</g>
																</g>
															</g>
														</g>
													</g>
												</g>
											</g>
										</g>
									</g>
								</g>
							</g>
						</g>
					</g>
				</g>
				<g>
					<g>
						<g>
							<g>
								<g>
									<g>
										<g>
											<g>
												<g>
													<g>
														<g>
															<g>
																<g>
																	<g>
																		<path style="fill:#263238;" d="M356.249,380.657l-0.053-3.591l-41.283,2.157c0,0-1.899,0.867-1.658,2.212                    L356.249,380.657z"></path>
																	</g>
																</g>
															</g>
														</g>
													</g>
												</g>
											</g>
										</g>
									</g>
								</g>
							</g>
						</g>
					</g>
				</g>
				<g>
					<g>
						<g>
							<g>
								<g>
									<g>
										<g>
											<g>
												<g>
													<g>
														<g>
															<g>
																<g>
																	<g>
																		<g>
																			<path style="fill:#263238;" d="M334.824,368.469c0.011,0.21,1.062,0.286,2.107,0.942                     c1.063,0.629,1.612,1.529,1.803,1.442c0.193-0.044-0.143-1.294-1.423-2.066                     C336.04,368.004,334.775,368.277,334.824,368.469z"></path>
																		</g>
																	</g>
																</g>
															</g>
														</g>
													</g>
												</g>
											</g>
										</g>
									</g>
								</g>
							</g>
						</g>
					</g>
				</g>
				<g>
					<g>
						<g>
							<g>
								<g>
									<g>
										<g>
											<g>
												<g>
													<g>
														<g>
															<g>
																<g>
																	<g>
																		<g>
																			<path style="fill:#263238;" d="M330.349,370.416c-0.045,0.204,0.871,0.545,1.6,1.42                     c0.755,0.854,0.952,1.81,1.161,1.797c0.198,0.03,0.321-1.203-0.606-2.273                     C331.586,370.281,330.35,370.216,330.349,370.416z"></path>
																		</g>
																	</g>
																</g>
															</g>
														</g>
													</g>
												</g>
											</g>
										</g>
									</g>
								</g>
							</g>
						</g>
					</g>
				</g>
				<g>
					<g>
						<g>
							<g>
								<g>
									<g>
										<g>
											<g>
												<g>
													<g>
														<g>
															<g>
																<g>
																	<g>
																		<g>
																			<path style="fill:#263238;" d="M327.885,375.859c0.191,0.041,0.465-1.013-0.095-2.153                     c-0.552-1.144-1.55-1.58-1.636-1.403c-0.115,0.175,0.533,0.78,0.979,1.723                     C327.6,374.958,327.676,375.842,327.885,375.859z"></path>
																		</g>
																	</g>
																</g>
															</g>
														</g>
													</g>
												</g>
											</g>
										</g>
									</g>
								</g>
							</g>
						</g>
					</g>
				</g>
				<g>
					<g>
						<g>
							<g>
								<g>
									<g>
										<g>
											<g>
												<g>
													<g>
														<g>
															<g>
																<g>
																	<g>
																		<g>
																			<path style="fill:#263238;" d="M333.258,363.59c0.091,0.19,1.049-0.117,2.237-0.058                     c1.189,0.035,2.12,0.417,2.226,0.234c0.119-0.154-0.797-0.915-2.197-0.965                     C334.124,362.741,333.151,363.427,333.258,363.59z"></path>
																		</g>
																	</g>
																</g>
															</g>
														</g>
													</g>
												</g>
											</g>
										</g>
									</g>
								</g>
							</g>
						</g>
					</g>
				</g>
			</g>
		</g>
		<g>
			<g>
				<g>
					<g>
						<g>
							<g>
								<polygon style="fill:#FF725E;" points="401.343,410.472 402.3,446.159 383.534,446.107 382.528,411.285         "></polygon>
							</g>
						</g>
					</g>
				</g>
				<g>
					<g>
						<g>
							<g>
								<g>
									<path style="fill:#263238;" d="M392.982,444.352c-0.157,0.003-0.393-7.607-0.527-16.993           c-0.134-9.389-0.116-17,0.041-17.003c0.157-0.002,0.392,7.605,0.527,16.995           C393.157,436.737,393.139,444.349,392.982,444.352z"></path>
								</g>
							</g>
						</g>
					</g>
				</g>
				<g>
					<g>
						<g>
							<g>
								<g>
									<path style="fill:#263238;" d="M383.212,434.978c-0.029-0.021,0.125-0.301,0.462-0.771           c0.337-0.468,0.875-1.114,1.631-1.826c0.757-0.708,1.743-1.48,2.983-2.101c1.227-0.63,2.731-1.09,4.348-1.111           c3.244-0.068,6.007,1.458,7.386,3.011c0.715,0.765,1.162,1.49,1.419,2.008c0.253,0.522,0.349,0.828,0.318,0.842           c-0.101,0.059-0.581-1.159-2.022-2.568c-1.396-1.415-4.016-2.787-7.094-2.726c-3.068,0.052-5.561,1.659-7.07,2.945           C384.033,433.997,383.292,435.042,383.212,434.978z"></path>
								</g>
							</g>
						</g>
					</g>
				</g>
			</g>
			<g>
				<polygon style="fill:#263238;" points="402.231,446.193 383.55,446.107 383.412,441.888 402.25,441.975     "></polygon>
			</g>
		</g>
		<g>
			<g>
				<path style="fill:#263238;" d="M404.227,247.641l-41.046-7.09l-0.162,4.407c-9.909,7.942-36.317,30.642-52.266,46.19      c0,0-5.918,7.839-3.571,15.071l22.121,56.739l25.39-5.855l-15.493-47.988l47.649-22.252c9.265-3.427,17.61-15.121,19.582-21.824      C408.12,259.307,404.478,254.982,404.227,247.641z"></path>
			</g>
			<g>
				<path style="fill:#263238;" d="M371.551,292.671l9.772,131.057l24.256,0.615c0,0,4.169-38.706,3.654-63.428      c-0.515-24.722-0.551-85.315-0.551-85.315L371.551,292.671z"></path>
			</g>
			<g>
				<path style="fill:#263238;" d="M404.227,247.641l12.826,2.318c0,0,0.464,31.442-0.44,34.603      c-0.904,3.161-8.558,12.195-8.558,12.195l-35.594,6.802v-28.128L404.227,247.641z"></path>
			</g>
			<g>
				<polygon style="fill:#263238;" points="408.056,264.33 408.979,273.18 418.721,273.18 417.063,264.33     "></polygon>
			</g>
			<g>
				<g>
					<path style="fill:#455A64;" d="M400.937,273.18c0.016,0.008-0.09,0.238-0.308,0.671c-0.233,0.423-0.508,1.09-1.021,1.857       c-0.938,1.579-2.515,3.78-4.971,5.995c-2.435,2.235-5.723,4.443-9.589,6.444c-3.857,2.025-8.26,3.882-12.798,5.995       c-9.086,4.163-17.309,7.93-23.324,10.685c-2.956,1.327-5.366,2.408-7.094,3.184c-0.805,0.349-1.45,0.629-1.94,0.842       c-0.446,0.187-0.684,0.278-0.691,0.261c-0.008-0.016,0.215-0.138,0.647-0.356c0.48-0.235,1.111-0.544,1.898-0.93       c1.711-0.812,4.098-1.945,7.025-3.335c5.999-2.792,14.201-6.608,23.265-10.826c4.542-2.115,8.947-3.957,12.791-5.947       c3.855-1.966,7.125-4.117,9.563-6.292c2.458-2.155,4.062-4.295,5.046-5.83C400.432,274.066,400.885,273.152,400.937,273.18z"></path>
				</g>
			</g>
			<g>
				<g>
					<path style="fill:#455A64;" d="M409.234,295.008c0.076,0.122-3.325,2.384-7.596,5.051c-4.272,2.668-7.797,4.732-7.873,4.61       c-0.076-0.122,3.324-2.383,7.597-5.052C405.633,296.95,409.158,294.886,409.234,295.008z"></path>
				</g>
			</g>
			<g>
				<g>
					<path style="fill:#455A64;" d="M417.063,264.33c0.055-0.01,0.278,0.898,0.613,2.456c0.335,1.558,0.782,3.764,1.285,6.349       l0.056,0.288l-0.296,0.001c-1.497,0.005-3.121,0.011-4.817,0.016c-1.735-0.006-3.396-0.012-4.925-0.017l-0.221-0.001       l-0.021-0.217c-0.252-2.593-0.449-4.809-0.571-6.378c-0.121-1.569-0.166-2.491-0.11-2.497c0.055-0.006,0.202,0.906,0.407,2.466       c0.205,1.56,0.469,3.77,0.758,6.359l-0.242-0.218c1.529-0.005,3.189-0.011,4.925-0.017c1.696,0.006,3.321,0.011,4.817,0.016       l-0.24,0.289c-0.467-2.592-0.849-4.81-1.1-6.384C417.129,265.268,417.008,264.34,417.063,264.33z"></path>
				</g>
			</g>
			<g>
				<g>
					<path style="fill:#455A64;" d="M370.661,258.333c-0.008-0.013,0.139,0.005,0.428,0.05c0.338,0.057,0.762,0.129,1.283,0.217       c1.192,0.215,2.828,0.51,4.854,0.875c4.239,0.798,10.101,1.901,16.874,3.176l0.235,0.044l-0.035,0.238       c-0.414,2.773-0.86,5.761-1.321,8.852l-0.041,0.278L392.662,272c-0.086-0.02-0.18-0.041-0.273-0.063       c-9.731-2.228-18.446-4.259-24.238-5.641l-0.183-0.043l0.058-0.174c0.804-2.411,1.452-4.351,1.92-5.752       c0.214-0.617,0.386-1.114,0.521-1.503C370.587,258.486,370.652,258.319,370.661,258.333c0.008,0.014-0.041,0.209-0.142,0.57       c-0.117,0.405-0.266,0.921-0.451,1.562c-0.418,1.392-0.997,3.321-1.717,5.717l-0.124-0.218       c5.817,1.275,14.547,3.238,24.279,5.466c0.094,0.021,0.187,0.043,0.273,0.063l-0.315,0.215c0.469-3.09,0.921-6.077,1.341-8.849       l0.199,0.282c-6.693-1.352-12.485-2.522-16.674-3.369c-2.036-0.427-3.68-0.772-4.879-1.023       c-0.535-0.118-0.971-0.214-1.318-0.291C370.829,258.388,370.668,258.345,370.661,258.333z"></path>
				</g>
			</g>
			<g>
				<g>
					<path style="fill:#455A64;" d="M322.684,306.96c-0.011-0.063,1.006-0.322,2.69-0.519c1.68-0.196,4.039-0.302,6.617-0.008       c2.581,0.28,4.86,0.914,6.446,1.507c1.586,0.605,2.501,1.124,2.476,1.175c-0.035,0.079-1-0.319-2.595-0.827       c-1.598-0.497-3.847-1.062-6.385-1.338c-2.535-0.29-4.856-0.243-6.528-0.143C323.732,306.909,322.697,307.039,322.684,306.96z"></path>
				</g>
			</g>
			<g>
				<g>
					<path style="fill:#455A64;" d="M369.929,245.355c-0.142-0.023-0.149-0.714-0.015-1.543c0.134-0.83,0.357-1.483,0.499-1.46       c0.142,0.023,0.149,0.714,0.015,1.543C370.294,244.724,370.071,245.378,369.929,245.355z"></path>
				</g>
			</g>
			<g>
				<g>
					<path style="fill:#455A64;" d="M371.929,245.98c-0.142-0.025-0.116-0.83,0.056-1.796c0.173-0.967,0.427-1.73,0.569-1.705       c0.142,0.025,0.116,0.829-0.056,1.796C372.325,245.242,372.07,246.005,371.929,245.98z"></path>
				</g>
			</g>
			<g>
				<g>
					<path style="fill:#455A64;" d="M388.53,248.727c-0.142-0.021-0.15-0.766-0.017-1.665c0.133-0.899,0.355-1.61,0.498-1.589       c0.142,0.021,0.15,0.766,0.017,1.665C388.895,248.036,388.672,248.747,388.53,248.727z"></path>
				</g>
			</g>
			<g>
				<g>
					<path style="fill:#455A64;" d="M390.419,249.604c-0.143-0.018-0.147-0.901-0.01-1.971c0.137-1.071,0.364-1.924,0.507-1.905       c0.143,0.018,0.147,0.901,0.01,1.971C390.788,248.769,390.562,249.622,390.419,249.604z"></path>
				</g>
			</g>
			<g>
				<g>
					<path style="fill:#455A64;" d="M406.434,252.356c-0.143-0.014-0.174-0.866-0.07-1.901c0.105-1.036,0.305-1.864,0.448-1.849       c0.143,0.014,0.174,0.866,0.07,1.902C406.777,251.542,406.577,252.37,406.434,252.356z"></path>
				</g>
			</g>
			<g>
				<g>
					<path style="fill:#455A64;" d="M408.858,252.984c-0.144-0.008-0.204-0.967-0.136-2.141c0.069-1.174,0.241-2.119,0.384-2.111       c0.143,0.008,0.204,0.967,0.136,2.141C409.173,252.048,409.001,252.993,408.858,252.984z"></path>
				</g>
			</g>
		</g>
		<g>
			<g>
				<path style="fill:#FF725E;" d="M350.347,198.02l30.468,8.802c0,0,4.647-17.189,6.879-27.323      c2.443-11.093,0.483-16.855-6.908-22.002c-1.848-1.287-3.772-1.929-5.619-2.168c-5.834-0.756-11.415,2.656-13.791,8.037      c-1.313,2.975-2.973,7.412-4.924,13.995C353.537,187.201,350.347,198.02,350.347,198.02z"></path>
			</g>
			<g>
				<g>
					<path style="fill:#263238;" d="M387.693,179.498c0.013,0.003-0.014,0.181-0.078,0.523c-0.076,0.379-0.176,0.877-0.301,1.504       c-0.28,1.312-0.703,3.228-1.277,5.643c-1.142,4.832-2.853,11.666-4.994,19.714l-0.062,0.233l-0.233-0.067       c-5.807-1.67-12.319-3.543-19.182-5.517c-3.917-1.134-7.72-2.236-11.29-3.27l-0.245-0.071l0.073-0.243       c3.005-10.032,5.536-18.764,7.524-24.94c1.015-3.08,1.933-5.502,2.612-7.144c0.34-0.821,0.619-1.448,0.814-1.869       c0.197-0.42,0.308-0.635,0.321-0.629c0.014,0.006-0.069,0.233-0.239,0.664c-0.182,0.469-0.426,1.1-0.734,1.898       c-0.627,1.659-1.496,4.092-2.467,7.18c-1.898,6.186-4.37,14.948-7.347,24.984l-0.172-0.314       c3.572,1.029,7.376,2.125,11.294,3.255c6.858,1.99,13.365,3.878,19.169,5.562l-0.294,0.166       c2.179-8.033,3.954-14.849,5.174-19.659c0.595-2.374,1.069-4.265,1.406-5.609c0.155-0.62,0.279-1.113,0.373-1.487       C387.628,179.668,387.68,179.495,387.693,179.498z"></path>
				</g>
			</g>
			<g>
				<g>
					<path style="fill:#263238;" d="M385.647,162.762c-0.073,0.051-0.679-0.861-1.925-2.076c-1.234-1.214-3.186-2.686-5.667-3.605       c-2.482-0.92-4.923-1.074-6.65-0.956c-1.737,0.11-2.79,0.408-2.812,0.321c-0.009-0.032,0.243-0.142,0.718-0.284       c0.475-0.143,1.178-0.301,2.062-0.405c1.758-0.215,4.291-0.118,6.862,0.835c2.571,0.951,4.557,2.527,5.75,3.836       c0.603,0.654,1.034,1.232,1.301,1.65C385.554,162.496,385.674,162.743,385.647,162.762z"></path>
				</g>
			</g>
			<g>
				<g>
					<path style="fill:#FFBE9D;" d="M353.403,199.008l-1.538,5.116l-29.146-12.611l-6.299,9.675c0,0,22.884,16.989,30.053,22.414       c7.169,5.425,15.467,3.526,20.29-2.814c4.952-6.51,6.868-15.853,6.868-15.853L353.403,199.008z"></path>
				</g>
				<g>
					<g>
						<path style="fill:#EB996E;" d="M354.969,210.502c-0.152,0.028-0.5-1.534-1.368-3.274c-0.852-1.749-1.879-2.976-1.764-3.079        c0.089-0.099,1.337,1.019,2.231,2.849C354.974,208.82,355.101,210.492,354.969,210.502z"></path>
					</g>
				</g>
				<g>
					<path style="fill:#FFBE9D;" d="M327.251,193.838l-3.851-2.661c-2.049-6.084-5.855-17.119-6.981-16.789       c-1.239,0.364-1.754,1.451-1.398,3.797c0.851,5.618-0.544,8.093-3.825,7.351c-1.128-0.255-10.943-1.825-10.943-1.825       s-2.708,1.551,0.014,4.203c0,0-1.324,3.461,2.29,4.297c0,0,0.45,3.92,3.164,4.081c0,0,2.899,1.619,8.993,3.872l4.889,2.934       L327.251,193.838z"></path>
				</g>
				<g>
					<g>
						<path style="fill:#EB996E;" d="M307.701,190.078c-0.035,0.188-1.95-0.237-4.177-1.013c-0.804-0.264-1.552-0.514-2.17-0.664        l0.077-0.432l0.373,0.079l-0.083,0.396c-0.944-0.287-1.529-0.51-1.509-0.59c0.02-0.079,0.641,0.002,1.609,0.197l-0.083,0.396        l-0.379-0.046l0.077-0.432c0.673,0.109,1.439,0.335,2.25,0.6C305.932,189.351,307.712,189.98,307.701,190.078z"></path>
					</g>
				</g>
				<g>
					<g>
						<path style="fill:#EB996E;" d="M308.438,194.501c-0.039,0.149-1.454-0.16-3.091-0.813c-1.644-0.637-2.891-1.374-2.818-1.51        c0.064-0.118,1.378,0.393,3.008,1.025C307.161,193.851,308.471,194.371,308.438,194.501z"></path>
					</g>
				</g>
			</g>
		</g>
	</g>
</g>
</svg>
