<?xml version="1.0" encoding="UTF-8" standalone="no"?>
<svg xmlns="http://www.w3.org/2000/svg" version="1.0" width="4500.000000pt" height="3430.000000pt" viewBox="0 0 4500.000000 3430.000000" preserveAspectRatio="xMidYMid meet">
  <g transform="translate(0.000000,3430.000000) scale(0.100000,-0.100000)" fill="#000000" stroke="none">
    <path d="M37910 33470 l0 -220 220 0 220 0 0 220 0 220 -220 0 -220 0 0 -220z m253 111 l87 -1 0 -115 0 -116 -117 3 -117 3 3 110 c1 60 4 112 6 116 2 3 14 5 27 3 13 -1 62 -3 111 -3z"></path>
    <path d="M7780 33236 c0 -178 2 -215 15 -219 8 -4 100 -6 205 -6 105 0 197 2 205 6 13 4 15 41 15 219 l0 214 -220 0 -220 0 0 -214z m340 -1 l0 -115 -120 0 -120 0 0 115 0 115 120 0 120 0 0 -115z"></path>
    <path d="M26450 29850 l0 -1230 -6505 0 -6505 0 0 -770 0 -770 2420 0 2420 0 0 -695 0 -695 -2105 0 -2105 0 0 -1055 0 -1055 50 0 50 0 0 255 0 255 1920 0 c1056 0 1920 -2 1920 -5 0 -6 -348 -484 -373 -513 l-21 -22 -1695 0 c-933 0 -2140 0 -2683 0 l-988 0 0 -3225 0 -3225 -1355 0 -1354 0 -3 -267 c-2 -148 -2 -474 0 -725 l2 -458 1355 0 1355 0 2 -2802 3 -2803 4302 -3 4301 -2 444 -532 c244 -293 457 -549 473 -569 77 -96 250 -299 255 -299 8 0 475 391 478 401 2 4 -182 230 -408 501 l-411 493 726 3 725 2 0 1065 0 1065 905 0 905 0 0 6760 0 6760 -3285 0 -3285 0 0 695 0 695 4035 0 4035 0 0 -6145 0 -6145 -380 0 -380 0 2 -1877 3 -1878 378 -3 377 -2 0 -800 0 -800 2900 0 2900 0 0 800 0 800 360 0 360 0 0 1880 0 1880 -360 0 -360 0 0 885 0 885 -2110 0 -2110 0 0 5260 0 5260 315 0 315 0 2 -712 3 -713 1608 -3 1607 -2 0 1485 0 1485 -1925 0 -1925 0 0 1230 0 1230 -790 0 -790 0 0 -1230z m1480 805 l0 -326 -62 35 c-35 19 -306 163 -603 321 -297 158 -542 289 -544 291 -2 2 269 4 602 4 l607 0 0 -325z m-995 87 c171 -90 346 -184 390 -207 44 -24 170 -91 280 -149 110 -59 203 -110 207 -114 5 -5 -1197 -654 -1243 -670 -5 -2 -9 258 -9 667 l0 672 33 -17 c17 -9 172 -91 342 -182z m995 -1232 c0 -379 -3 -690 -7 -690 -12 0 -1293 683 -1293 689 0 3 57 36 128 73 70 37 359 191 642 342 283 151 518 275 523 276 4 0 7 -310 7 -690z m-720 -433 c311 -165 576 -306 589 -314 23 -15 21 -16 -97 -79 l-121 -64 -510 0 -511 0 0 400 0 400 43 -21 c23 -12 296 -157 607 -322z m720 -427 l0 -30 -62 0 -63 1 55 29 c30 16 58 29 63 30 4 0 7 -13 7 -30z m-13703 -172 c-13 -24 -165 -295 -337 -603 -172 -308 -321 -573 -331 -590 -18 -30 -19 -20 -19 603 l0 632 356 0 356 0 -25 -42z m1529 25 c-6 -16 -430 -779 -629 -1131 -38 -68 -73 -120 -77 -115 -5 4 -156 271 -335 593 -180 322 -338 604 -351 628 l-25 42 712 0 c673 0 711 -1 705 -17z m1509 -30 c-15 -27 -175 -315 -357 -640 -182 -326 -333 -592 -334 -590 -1 1 -161 286 -354 632 -194 347 -354 633 -357 638 -2 4 318 7 712 7 l717 0 -27 -47z m1542 40 c-3 -5 -163 -291 -357 -638 -193 -346 -352 -631 -353 -632 -1 -1 -25 40 -53 90 -27 51 -183 331 -346 622 -163 292 -300 538 -303 548 -7 16 31 17 705 17 391 0 709 -3 707 -7z m1490 -51 c-17 -32 -178 -319 -357 -639 l-325 -582 -26 47 c-143 252 -679 1217 -679 1224 0 4 319 8 710 8 l710 0 -33 -58z m1543 51 c0 -15 -695 -1251 -705 -1254 -7 -2 -533 924 -701 1234 l-15 27 711 0 c390 0 710 -3 710 -7z m1507 -35 c-13 -24 -167 -299 -342 -613 -174 -313 -325 -583 -334 -598 l-18 -28 -331 593 c-182 326 -343 614 -357 641 l-27 47 717 0 717 0 -25 -42z m1525 10 c-11 -18 -171 -305 -357 -638 -186 -333 -338 -606 -339 -607 -1 -1 -264 468 -588 1051 -65 116 -118 214 -118 218 0 5 320 8 711 8 l711 0 -20 -32z m1528 24 c0 -15 -697 -1254 -706 -1254 -5 -1 -161 271 -346 603 -185 332 -344 616 -353 632 l-16 27 710 0 c391 0 711 -3 711 -8z m978 3 c-6 -6 -810 -435 -815 -435 -2 0 -3 99 -3 220 l0 220 412 0 c226 0 409 -2 406 -5z m550 -613 l2 -613 -118 63 c-65 35 -359 191 -654 348 -295 157 -533 288 -530 292 4 3 228 124 497 267 l490 261 155 -2 155 -3 3 -613z m1489 560 c-598 -1077 -682 -1221 -693 -1199 -6 12 -151 295 -323 629 -171 334 -311 612 -311 618 0 7 220 10 680 10 l680 0 -33 -58z m1603 53 c0 -3 -163 -296 -361 -652 -199 -357 -365 -654 -369 -661 -4 -8 -146 237 -365 630 -197 354 -365 653 -373 666 l-14 22 741 0 c407 0 741 -2 741 -5z m760 -597 c0 -592 -1 -602 -19 -573 -30 49 -651 1164 -651 1170 0 3 151 5 335 5 l335 0 0 -602z m-17146 -137 c179 -321 325 -586 323 -588 -2 -2 -302 -2 -665 -1 l-662 3 226 405 c124 223 273 490 331 593 58 104 109 185 113 180 5 -4 155 -271 334 -592z m1518 1 l328 -587 -662 -3 c-364 -1 -663 -1 -665 1 -2 2 112 211 253 463 385 691 405 726 412 719 3 -3 153 -270 334 -593z m1359 293 c89 -159 236 -422 326 -584 90 -161 162 -295 160 -297 -2 -2 -301 -3 -665 -2 l-661 3 331 593 c182 326 335 589 339 585 4 -4 81 -138 170 -298z m1683 -294 c180 -321 325 -586 323 -588 -2 -2 -301 -2 -665 -1 l-662 3 331 593 c183 326 335 590 339 585 5 -4 155 -271 334 -592z m1520 -1 l326 -585 -662 -3 c-364 -1 -663 -1 -665 1 -3 3 202 373 604 1090 30 55 59 95 63 90 4 -4 154 -271 334 -593z m1517 3 l328 -588 -661 -3 c-364 -1 -663 0 -665 2 -2 2 134 251 302 552 368 660 355 637 362 630 3 -3 153 -270 334 -593z m1523 -2 c179 -321 326 -585 326 -587 0 -2 -300 -4 -666 -4 l-666 0 29 53 c17 28 166 296 333 595 166 299 306 540 311 535 4 -4 154 -271 333 -592z m1344 314 c83 -148 230 -412 326 -585 l176 -315 -661 -3 c-364 -1 -664 -1 -666 1 -3 3 137 255 604 1090 30 55 59 95 63 90 4 -4 75 -129 158 -278z m3246 -318 c163 -318 296 -580 296 -582 0 -3 -137 -5 -305 -5 l-305 0 0 598 c0 330 4 590 9 582 5 -8 142 -275 305 -593z m1490 4 c179 -322 326 -586 326 -588 0 -2 -299 -3 -665 -3 -366 0 -665 1 -665 3 0 3 313 564 607 1090 30 55 59 95 63 90 4 -4 155 -271 334 -592z m-3384 -1 l0 -590 -331 0 c-197 0 -329 4 -327 9 5 15 652 1171 655 1171 2 0 3 -265 3 -590z m4747 360 c389 -696 514 -922 520 -935 4 -13 -79 -15 -655 -15 l-660 0 225 403 c124 221 272 487 330 590 58 104 109 185 113 180 4 -4 61 -105 127 -223z m-4007 -575 c338 -180 619 -330 624 -333 5 -3 -6 -13 -25 -23 -32 -17 -75 -18 -631 -19 l-598 0 0 356 c0 195 3 353 8 351 4 -3 284 -152 622 -332z m349 -489 c-8 -7 -967 -516 -973 -516 -3 0 -6 117 -6 260 l0 260 492 0 c270 0 489 -2 487 -4z m391 -652 l0 -655 -52 29 c-29 16 -322 172 -650 347 -329 174 -598 320 -598 324 1 3 256 142 568 308 l567 302 83 0 82 1 0 -656z m2733 649 l1117 -6 0 -654 0 -653 -1505 0 -1505 0 0 660 0 660 388 0 c213 0 890 -3 1505 -7z m-3368 -1083 c281 -149 513 -274 517 -278 5 -5 -1199 -655 -1243 -670 -5 -2 -9 249 -9 668 l0 671 113 -60 c61 -32 342 -182 622 -331z m635 -1041 c0 -560 -2 -690 -13 -687 -22 5 -1287 681 -1287 687 0 6 1280 690 1293 691 4 0 7 -311 7 -691z m-9650 384 c-1 -255 -7 -310 -37 -352 -11 -14 -69 -57 -129 -94 -134 -84 -157 -105 -194 -181 -26 -51 -30 -70 -30 -141 0 -142 53 -250 157 -322 29 -20 50 -40 45 -45 -4 -4 -888 -7 -1963 -6 l-1954 3 -3 675 c-1 371 0 681 3 687 3 10 432 13 2055 13 l2050 0 0 -237z m6558 -455 l2 -688 -3206 0 c-2225 0 -3211 3 -3225 11 -18 9 -16 13 27 42 81 55 126 136 140 254 9 72 -2 120 -31 139 -23 15 -27 15 -49 1 -21 -14 -24 -25 -28 -105 -5 -107 -34 -166 -101 -207 l-42 -25 -26 30 c-35 41 -80 41 -109 0 -18 -26 -24 -28 -48 -19 -15 6 -46 29 -69 51 -51 50 -77 118 -78 203 0 104 41 153 205 248 70 40 126 92 154 143 l26 47 0 277 c0 213 3 280 13 283 6 3 1459 5 3227 4 l3215 -2 3 -687z m2262 -303 c250 -133 512 -272 582 -309 70 -37 129 -70 132 -74 3 -5 -1200 -653 -1245 -670 -5 -2 -9 296 -9 667 l0 671 43 -21 c23 -12 247 -131 497 -264z m830 -1145 c0 -379 -3 -690 -7 -690 -10 0 -1293 685 -1293 690 0 5 245 137 815 439 66 35 199 106 295 157 96 52 178 94 183 94 4 0 7 -310 7 -690z m-9363 398 c116 -145 209 -266 207 -270 -3 -4 -230 -8 -505 -8 -412 0 -500 2 -497 13 2 7 86 129 188 270 l185 256 105 1 105 0 212 -262z m6281 -5645 l2 -5903 -855 0 -855 0 0 5638 0 5637 -2087 -3 c-1149 -1 -2098 0 -2110 3 -14 3 -103 105 -233 265 -115 143 -210 262 -210 265 0 3 1428 4 3173 3 l3172 -3 3 -5902z m2350 4822 c460 -245 618 -333 609 -341 -9 -8 -1082 -580 -1229 -656 -17 -8 -18 27 -18 662 0 377 4 670 9 668 4 -1 288 -151 629 -333z m732 -1100 l0 -695 -108 57 c-59 32 -354 189 -655 348 -515 274 -545 291 -525 305 36 25 1262 678 1276 679 9 1 12 -144 12 -694z m-4892 -5832 l2 -5933 -719 0 -719 0 -179 214 -178 214 -42 -34 c-23 -19 -43 -34 -45 -34 -2 0 -21 23 -42 50 l-38 50 39 53 c22 28 45 62 52 74 l12 23 497 2 497 3 3 898 2 897 -581 0 -581 0 -85 80 c-577 539 -1469 539 -2046 0 l-85 -80 -556 0 -556 0 0 -900 0 -900 473 0 473 0 50 -72 c67 -100 220 -256 336 -343 53 -41 152 -101 218 -134 l121 -61 -3500 0 -3501 0 0 2755 0 2755 205 0 205 0 0 725 0 725 -205 0 -205 0 0 2455 0 2455 5338 -2 5337 -3 3 -5932z m4107 5437 c625 -332 678 -361 673 -365 -6 -6 -1249 -665 -1253 -665 -3 0 -5 302 -5 670 0 636 1 670 18 662 9 -5 265 -141 567 -302z m785 -1121 c0 -562 -2 -690 -13 -687 -22 5 -1287 681 -1287 687 0 6 1279 690 1293 691 4 0 7 -311 7 -691z m-900 -337 c626 -332 774 -412 782 -420 4 -4 -93 -60 -215 -125 -122 -64 -267 -141 -322 -171 -324 -173 -708 -376 -711 -376 -2 0 -4 302 -4 670 l0 671 33 -17 c17 -9 214 -113 437 -232z m900 -1182 c0 -379 -3 -690 -7 -690 -11 0 -1293 684 -1293 690 0 3 228 127 507 275 279 149 568 302 642 342 75 40 139 73 144 73 4 0 7 -310 7 -690z m-735 -424 c603 -321 626 -335 604 -349 -22 -13 -1127 -601 -1206 -641 l-33 -17 0 671 c0 368 2 670 4 670 1 0 285 -150 631 -334z m735 -1096 c0 -379 -3 -690 -6 -690 -10 0 -1294 685 -1294 691 0 3 109 64 243 134 133 71 422 225 642 342 220 117 403 213 408 213 4 0 7 -310 7 -690z m-1063 -249 c164 -87 444 -236 623 -331 179 -95 327 -174 328 -176 2 -1 -10 -10 -27 -18 -26 -14 -104 -16 -631 -16 l-600 0 0 350 c0 193 2 350 5 350 2 0 138 -71 302 -159z m-14197 -951 l0 -400 -1515 0 -1515 0 0 400 0 400 1515 0 1515 0 0 -400z m19478 -907 l2 -453 -2795 0 -2795 0 0 455 0 455 2793 -2 2792 -3 3 -452z m712 -2713 l0 -1390 -3530 0 -3530 0 0 1390 0 1390 3530 0 3530 0 0 -1390z m-12659 371 c133 -30 234 -67 350 -127 379 -197 649 -561 730 -986 18 -98 21 -136 16 -293 -4 -160 -8 -193 -35 -295 -105 -397 -354 -710 -714 -900 -196 -103 -404 -153 -638 -153 -226 0 -404 41 -605 138 -388 187 -677 557 -759 970 -25 129 -28 163 -28 295 2 353 139 689 385 947 216 226 473 362 787 419 110 20 398 11 511 -15z m-1519 -508 c-21 -32 -52 -80 -67 -108 -16 -27 -29 -51 -31 -53 -2 -3 -546 206 -553 213 -2 3 152 5 343 5 l347 0 -39 -57z m3157 53 c-7 -7 -577 -226 -588 -226 -6 0 -20 19 -32 43 -12 23 -44 75 -71 115 l-49 72 372 0 c205 0 370 -2 368 -4z m-3675 -165 c197 -77 360 -142 363 -144 2 -3 -11 -51 -31 -108 -62 -189 -87 -353 -80 -544 4 -107 27 -276 45 -323 7 -18 5 -24 -9 -29 -9 -4 -159 -62 -332 -129 -173 -67 -316 -121 -318 -119 -5 4 -7 1535 -2 1535 3 0 166 -63 364 -139z m3906 -631 l0 -769 -67 25 c-128 48 -638 246 -641 249 -2 1 6 48 18 104 24 119 33 318 19 441 -12 105 -49 264 -83 354 l-26 67 28 10 c15 5 187 72 382 148 195 77 358 140 363 140 4 1 7 -345 7 -769z m-488 -692 c131 -50 236 -94 233 -96 -2 -2 -129 -4 -282 -3 -214 1 -278 4 -276 14 5 29 69 176 77 177 5 0 117 -41 248 -92z m-3049 -6 c20 -48 37 -89 37 -92 0 -3 -120 -5 -266 -5 -156 0 -260 4 -252 9 13 7 424 172 438 175 3 1 22 -38 43 -87z m13613 -672 l2 -750 -2794 0 -2794 0 0 750 0 750 2793 0 2792 0 1 -750z m-10450 -421 c253 -302 459 -554 459 -558 0 -5 -71 -68 -158 -141 l-157 -132 -19 23 c-10 13 -220 265 -465 559 -245 294 -446 537 -445 540 1 10 304 259 315 259 6 1 218 -247 470 -550z m-860 434 l28 -37 -54 -46 c-31 -28 -50 -52 -46 -59 5 -8 -36 -11 -149 -11 l-156 0 118 60 c65 32 141 75 168 94 28 19 53 35 56 35 4 1 19 -16 35 -36z"></path>
    <path d="M14845 25001 c-148 -69 -182 -266 -64 -378 46 -43 97 -63 163 -63 60 0 93 11 143 48 96 71 115 228 39 327 -60 78 -190 108 -281 66z"></path>
    <path d="M15575 25001 c-51 -23 -111 -89 -124 -138 -24 -87 -8 -161 49 -226 82 -93 218 -106 317 -31 113 86 118 269 11 359 -18 16 -47 34 -65 42 -46 19 -140 16 -188 -6z"></path>
    <path d="M13365 21410 l-320 -320 328 -327 327 -328 320 320 c176 176 320 324 320 330 0 13 -632 645 -645 645 -6 0 -154 -144 -330 -320z m588 -572 c-137 -137 -252 -248 -257 -248 -11 0 -496 485 -496 496 0 5 111 120 247 256 l248 248 252 -252 253 -253 -247 -247z"></path>
    <path d="M15082 21088 l3 -53 3485 0 3485 0 0 50 0 50 -3488 3 -3488 2 3 -52z"></path>
    <path d="M12970 18250 l0 -1740 3155 0 3155 0 0 1740 0 1740 -3155 0 -3155 0 0 -1740z m6049 1636 c-2 -2 -83 -46 -179 -98 -218 -119 -1306 -710 -1380 -751 -30 -16 -77 -42 -105 -57 -27 -15 -185 -101 -350 -190 -165 -90 -408 -222 -540 -294 -132 -72 -265 -144 -296 -160 l-56 -30 -284 154 c-156 84 -302 163 -324 175 -22 12 -155 84 -295 160 -415 224 -618 334 -740 400 -63 34 -230 124 -370 200 -140 76 -361 195 -490 265 -129 70 -275 149 -325 175 -49 27 -92 50 -94 52 -2 1 1309 3 2914 3 1605 0 2916 -2 2914 -4z m161 -1637 l0 -1601 -72 40 c-40 21 -212 114 -383 207 -170 92 -337 182 -370 200 -33 18 -114 62 -180 97 -66 36 -376 204 -690 373 -313 170 -649 351 -745 403 -311 167 -502 272 -508 277 -5 5 124 76 1768 968 162 88 338 183 390 212 52 29 230 126 395 216 165 89 318 173 340 185 22 13 43 23 48 24 4 0 7 -720 7 -1601z m-5933 1490 c92 -50 224 -122 293 -159 69 -37 154 -83 190 -103 36 -19 139 -75 230 -124 91 -50 230 -125 310 -168 80 -43 168 -90 195 -105 59 -33 505 -274 1095 -592 234 -126 429 -233 433 -237 4 -4 -218 -131 -495 -281 -277 -150 -546 -296 -598 -325 -52 -29 -225 -124 -385 -210 -159 -87 -312 -170 -340 -185 -27 -15 -185 -101 -350 -190 -165 -89 -367 -200 -450 -245 -82 -45 -185 -101 -227 -124 l-78 -42 0 1590 c0 875 2 1591 4 1591 3 0 80 -41 173 -91z m3253 -1759 c135 -73 297 -161 360 -195 63 -34 144 -78 180 -97 36 -20 124 -67 195 -106 605 -327 772 -417 920 -497 94 -50 258 -139 365 -197 107 -58 238 -129 290 -157 52 -29 119 -64 148 -79 28 -14 52 -29 52 -32 0 -3 -1298 -5 -2885 -5 -1587 0 -2885 2 -2885 5 0 3 146 84 323 179 177 96 360 196 407 222 68 37 957 521 1300 707 41 23 248 135 460 251 l385 209 70 -38 c39 -20 180 -97 315 -170z"></path>
    <path d="M15460 17109 c-116 -46 -136 -208 -35 -284 51 -40 125 -45 180 -13 45 26 85 93 85 143 0 50 -40 117 -85 142 -43 24 -102 29 -145 12z"></path>
    <path d="M16055 17106 c-85 -39 -119 -140 -75 -226 41 -80 137 -112 217 -71 150 76 107 297 -60 308 -31 2 -64 -2 -82 -11z"></path>
    <path d="M16652 17104 c-122 -62 -119 -241 5 -296 79 -35 155 -15 207 56 16 21 21 42 21 91 0 68 -15 99 -68 139 -36 27 -122 32 -165 10z"></path>
    <path d="M19670 19500 l0 -490 1190 0 1190 0 0 490 0 490 -1190 0 -1190 0 0 -490z m2280 5 l0 -385 -1085 0 -1085 0 0 385 0 385 1085 0 1085 0 0 -385z"></path>
    <path d="M19670 18250 l0 -490 1190 0 1190 0 0 490 0 490 -1190 0 -1190 0 0 -490z m2280 5 l0 -385 -1085 0 -1085 0 0 385 0 385 1085 0 1085 0 0 -385z"></path>
    <path d="M19670 17000 l0 -490 1190 0 1190 0 0 490 0 490 -1190 0 -1190 0 0 -490z m2280 0 l0 -380 -1085 0 -1085 0 0 380 0 380 1085 0 1085 0 0 -380z"></path>
    <path d="M13713 15830 c-356 -38 -662 -313 -744 -666 -31 -133 -24 -320 16 -444 51 -158 116 -261 238 -376 331 -315 847 -313 1179 4 133 128 217 279 255 460 19 94 13 296 -12 387 -26 94 -99 237 -164 317 -185 230 -475 349 -768 318z m249 -115 c118 -25 245 -85 332 -159 l38 -31 -257 -235 c-141 -129 -260 -236 -265 -238 -12 -4 -535 438 -535 452 0 19 119 107 200 147 44 21 114 48 155 59 91 23 237 26 332 5z m484 -331 c130 -203 158 -444 77 -667 -25 -70 -88 -187 -101 -187 -6 0 -496 411 -525 439 -9 9 486 471 504 471 5 0 25 -25 45 -56z m-988 -180 c141 -119 260 -220 265 -224 6 -5 -101 -106 -469 -443 l-41 -37 -41 62 c-161 249 -162 561 -3 815 14 24 27 43 29 43 2 0 119 -97 260 -216z m626 -530 c147 -124 266 -230 264 -235 -7 -20 -117 -102 -189 -139 -116 -60 -212 -83 -349 -83 -135 0 -209 16 -325 72 -79 38 -195 117 -195 132 0 10 509 479 520 479 4 0 127 -102 274 -226z"></path>
    <path d="M16200 15830 c-299 -33 -565 -228 -692 -507 -73 -162 -93 -390 -49 -558 71 -268 277 -505 520 -596 124 -46 171 -54 321 -53 172 0 229 13 375 84 452 220 621 780 365 1211 -51 85 -162 205 -247 265 -164 118 -388 176 -593 154z m325 -134 c90 -30 201 -91 257 -140 l36 -32 -259 -238 c-143 -131 -265 -235 -272 -233 -17 8 -521 436 -525 446 -4 13 86 89 148 125 137 80 246 107 415 102 98 -3 135 -8 200 -30z m409 -313 c84 -131 120 -257 119 -418 -1 -122 -22 -213 -74 -320 -53 -109 -63 -122 -86 -104 -102 80 -513 433 -511 439 3 6 499 468 506 469 1 1 22 -29 46 -66z m-976 -191 c139 -118 252 -217 250 -222 -2 -4 -115 -112 -253 -238 l-250 -230 -23 26 c-38 44 -101 182 -122 266 -26 104 -26 243 0 353 28 118 110 280 133 266 7 -4 126 -103 265 -221z m618 -522 l267 -225 -58 -52 c-65 -59 -208 -134 -300 -157 -238 -59 -498 2 -682 161 l-33 28 258 237 c141 130 263 236 270 235 7 -1 132 -103 278 -227z"></path>
    <path d="M18690 15830 c-342 -42 -614 -265 -726 -593 -111 -326 1 -706 273 -932 77 -64 236 -145 333 -170 92 -23 254 -30 345 -16 347 56 615 301 707 645 31 112 30 306 -1 421 -54 203 -183 386 -356 505 -153 105 -390 163 -575 140z m268 -120 c119 -28 272 -108 325 -167 18 -20 17 -22 -40 -75 -154 -145 -455 -418 -462 -418 -6 0 -484 400 -524 439 -17 16 -15 19 45 68 103 83 220 138 343 163 78 15 226 11 313 -10z m482 -357 c123 -203 135 -490 28 -708 -16 -34 -40 -74 -52 -90 l-22 -28 -230 193 c-126 107 -245 208 -265 226 l-37 32 257 235 c291 267 254 251 321 140z m-987 -167 c136 -114 247 -211 246 -215 -1 -10 -487 -451 -503 -457 -32 -12 -121 161 -152 294 -20 86 -19 255 2 341 18 72 70 194 104 241 18 26 24 28 39 18 9 -7 128 -107 264 -222z m611 -516 l267 -225 -47 -43 c-177 -161 -447 -226 -689 -166 -128 32 -354 169 -326 197 87 88 509 466 517 464 7 -1 132 -103 278 -227z"></path>
    <path d="M21170 15829 c-183 -22 -346 -99 -484 -229 -144 -137 -228 -287 -263 -475 -20 -106 -13 -282 16 -383 83 -289 314 -520 603 -603 105 -30 279 -37 389 -14 190 38 331 116 466 259 223 236 294 554 192 861 -128 385 -517 632 -919 584z m315 -129 c91 -29 209 -90 264 -138 l44 -38 -259 -237 c-142 -130 -264 -235 -271 -233 -14 6 -505 419 -522 440 -10 12 -2 22 45 60 98 80 206 133 328 161 91 21 281 13 371 -15z m471 -404 c89 -188 98 -402 25 -596 -26 -70 -83 -165 -98 -165 -6 0 -120 92 -254 205 -134 113 -252 212 -262 221 -19 15 -7 26 238 251 l258 236 30 -41 c16 -22 45 -72 63 -111z m-991 -130 c110 -93 206 -174 213 -181 11 -10 -36 -58 -244 -248 l-258 -236 -24 32 c-71 95 -126 250 -137 385 -12 133 26 304 93 422 49 86 48 86 106 37 28 -24 141 -119 251 -211z m577 -487 c145 -122 267 -225 271 -229 10 -9 -109 -107 -173 -142 -222 -122 -494 -125 -718 -8 -43 22 -99 59 -126 83 l-48 42 258 238 c143 130 262 237 266 237 5 0 126 -100 270 -221z"></path>
    <path d="M13070 13500 l0 -50 720 0 720 0 0 50 0 50 -720 0 -720 0 0 -50z"></path>
    <path d="M15560 13500 l0 -50 720 0 720 0 0 50 0 50 -720 0 -720 0 0 -50z"></path>
    <path d="M18050 13500 l0 -50 720 0 720 0 0 50 0 50 -720 0 -720 0 0 -50z"></path>
    <path d="M20530 13500 l0 -50 725 0 725 0 0 50 0 50 -725 0 -725 0 0 -50z"></path>
    <path d="M13020 12370 l0 -50 1995 0 1995 0 0 50 0 50 -1995 0 -1995 0 0 -50z"></path>
    <path d="M13020 11685 l0 -55 1995 0 1995 0 0 55 0 55 -1995 0 -1995 0 0 -55z"></path>
    <path d="M13020 11060 l0 -50 1495 0 1495 0 0 50 0 50 -1495 0 -1495 0 0 -50z"></path>
    <path d="M10039 16490 c-137 -23 -249 -156 -249 -297 0 -261 293 -406 497 -245 97 77 139 220 99 340 -46 138 -198 226 -347 202z m172 -135 c106 -75 117 -232 22 -315 -67 -59 -143 -71 -220 -35 -56 26 -86 56 -108 107 -39 95 5 210 98 258 62 31 152 25 208 -15z"></path>
    <path d="M10560 16365 l0 -55 545 0 545 0 6 25 c9 38 -3 72 -28 78 -12 4 -258 7 -545 7 l-523 0 0 -55z"></path>
    <path d="M10560 16015 l0 -55 256 0 255 0 -3 53 -3 52 -252 3 -253 2 0 -55z"></path>
    <path d="M27095 15410 c-93 -93 -166 -173 -162 -177 4 -4 83 -83 174 -176 l167 -167 173 172 c95 95 171 173 170 175 -21 24 -342 343 -346 343 -4 0 -82 -76 -176 -170z m281 -79 l96 -94 -98 -98 -99 -99 -100 100 -100 100 95 95 c52 52 98 94 102 93 4 -2 51 -45 104 -97z"></path>
    <path d="M27972 15198 l3 -53 1840 0 1840 0 0 50 0 50 -1843 3 -1843 2 3 -52z"></path>
    <path d="M27693 13598 c-22 -35 -110 -173 -195 -308 -85 -135 -269 -425 -408 -645 -139 -220 -290 -458 -335 -530 -45 -71 -123 -195 -174 -275 -50 -79 -91 -148 -91 -152 0 -4 563 -8 1250 -8 688 0 1250 3 1250 8 0 4 -74 124 -164 267 -90 143 -261 413 -379 600 -118 187 -263 417 -322 510 -60 94 -168 264 -241 380 -72 115 -136 211 -142 213 -5 1 -27 -26 -49 -60z m721 -1196 c3 -5 -1 -9 -9 -9 -8 0 -12 4 -9 9 3 4 7 8 9 8 2 0 6 -4 9 -8z m-744 -66 c0 -2 -7 -7 -16 -10 -8 -3 -12 -2 -9 4 6 10 25 14 25 6z m123 -116 c72 -57 16 -175 -74 -155 -40 9 -64 40 -64 87 0 74 80 113 138 68z"></path>
    <path d="M29444 13231 c-2 -2 -4 -26 -4 -53 l0 -48 1000 0 1000 0 0 50 0 50 -996 2 c-548 2 -998 1 -1000 -1z"></path>
    <path d="M29440 12575 l0 -55 1330 0 1330 0 0 55 0 55 -1330 0 -1330 0 0 -55z"></path>
    <path d="M29440 12220 l0 -50 1330 -2 1330 -3 0 53 0 52 -1330 0 -1330 0 0 -50z"></path>
    <path d="M29440 11865 l0 -55 453 2 452 3 3 53 3 52 -455 0 -456 0 0 -55z"></path>
    <path d="M19869 12421 c-114 -35 -199 -151 -199 -272 0 -46 -4 -55 -47 -105 -27 -29 -54 -54 -61 -54 -8 0 -86 20 -173 45 -88 25 -163 45 -169 45 -8 0 -30 -61 -30 -86 0 -6 71 -30 158 -54 86 -24 160 -45 163 -46 4 -2 -6 -43 -21 -91 -15 -49 -31 -116 -35 -150 l-7 -63 -179 0 -179 0 0 -50 0 -50 179 0 179 0 7 -62 c4 -34 16 -92 26 -128 10 -36 15 -68 11 -72 -4 -4 -74 -35 -157 -69 -82 -34 -152 -63 -154 -65 -5 -4 29 -94 36 -94 2 0 77 30 165 67 l161 67 21 -29 c54 -76 149 -164 213 -195 119 -59 260 -53 379 16 40 24 139 122 179 177 l20 28 159 -66 c87 -36 159 -65 161 -63 10 11 35 69 35 80 0 8 -64 40 -155 78 -85 35 -155 65 -155 67 0 2 9 35 20 74 10 39 22 97 26 130 l7 59 173 0 174 0 0 50 0 50 -174 0 -174 0 -7 63 c-4 34 -20 101 -35 150 -15 48 -25 89 -21 91 3 1 77 22 164 46 86 24 157 48 157 54 0 25 -22 86 -30 86 -6 0 -81 -20 -169 -45 -87 -25 -165 -45 -173 -45 -7 0 -34 25 -60 54 -44 50 -48 59 -48 105 0 113 -74 222 -178 261 -53 20 -135 25 -183 11z m181 -125 c33 -22 90 -110 79 -121 -3 -2 -29 5 -59 15 -70 25 -162 25 -238 1 l-60 -18 8 28 c23 81 102 134 184 125 28 -3 65 -16 86 -30z"></path>
    <path d="M29330 10250 l0 -500 1205 0 1205 0 0 500 0 500 -1205 0 -1205 0 0 -500z m2310 5 l0 -395 -1105 0 -1105 0 0 395 0 395 1105 0 1105 0 0 -395z"></path>
    <path d="M26887 10683 c-4 -3 -7 -28 -7 -55 l0 -48 1055 0 1055 0 0 55 0 55 -1048 0 c-577 0 -1052 -3 -1055 -7z"></path>
    <path d="M36600 26925 l0 -225 225 0 225 0 0 225 0 225 -225 0 -225 0 0 -225z m350 0 l0 -125 -125 0 -125 0 0 125 0 125 125 0 125 0 0 -125z"></path>
    <path d="M9180 26625 l0 -165 -85 0 -85 0 2 -1362 3 -1363 1640 0 1640 0 3 1362 2 1363 -807 2 -806 3 -91 162 -91 163 -662 0 -663 0 0 -165z m2718 -631 c2 -57 0 -73 -13 -78 -8 -3 -568 -4 -1243 -3 l-1227 2 -3 64 c-2 35 -1 70 2 77 5 12 207 14 1243 12 l1238 -3 3 -71z"></path>
    <path d="M39412 26692 c-9 -3 -12 -55 -12 -193 l0 -189 50 0 50 0 0 194 0 194 -38 -1 c-21 0 -44 -3 -50 -5z"></path>
    <path d="M5626 26269 c-382 -58 -673 -317 -765 -683 -36 -140 -35 -201 8 -499 42 -290 67 -490 76 -627 3 -47 8 -103 10 -125 3 -22 5 -111 6 -197 1 -108 5 -158 13 -161 6 -3 112 -5 236 -5 l225 0 3 -75 3 -74 -113 -5 c-131 -6 -207 -28 -313 -90 -133 -79 -237 -208 -291 -363 l-28 -80 -4 -338 -4 -337 1034 2 1033 3 1 295 c2 312 -5 386 -45 491 -51 134 -169 269 -292 334 -117 61 -172 76 -302 82 l-118 6 3 75 3 75 236 -2 236 -2 6 78 c4 43 7 128 7 188 0 61 2 122 4 135 3 14 7 61 10 105 9 111 31 237 71 395 60 239 69 302 69 475 0 134 -4 173 -22 243 -91 340 -361 600 -692 667 -89 19 -233 25 -304 14z m364 -138 c247 -84 431 -268 516 -516 24 -69 28 -100 32 -230 5 -175 -2 -230 -63 -485 -24 -102 -45 -196 -48 -210 -2 -14 -5 128 -6 315 -1 275 2 349 14 389 8 27 15 75 15 108 l0 58 -49 0 -48 0 -6 -66 c-5 -72 -44 -163 -97 -227 -37 -43 -139 -118 -192 -140 l-37 -16 34 48 c40 55 77 133 98 207 l15 51 -45 22 -46 22 -31 -29 c-104 -99 -294 -175 -611 -246 -197 -43 -453 -91 -459 -85 -15 15 -38 245 -33 329 15 270 181 522 426 648 145 75 222 92 396 88 115 -3 141 -7 225 -35z m0 -880 c0 -17 -102 -121 -149 -153 -25 -17 -47 -32 -49 -33 -2 -2 2 -24 9 -50 l12 -48 66 7 c132 12 283 75 375 157 30 27 56 49 58 49 1 0 2 -139 1 -309 -2 -303 -2 -310 -28 -386 -61 -184 -194 -318 -377 -382 -61 -21 -91 -26 -183 -26 -93 0 -121 4 -183 26 -102 36 -174 82 -242 154 -70 75 -103 129 -138 226 -24 68 -26 85 -30 304 l-4 232 38 6 c284 49 658 150 769 208 59 31 55 29 55 18z m-961 -398 l-1 -148 -19 135 c-10 74 -18 138 -19 142 0 3 8 9 18 11 9 3 18 5 20 6 1 0 2 -65 1 -146z m84 -519 c34 -68 106 -154 173 -209 l56 -45 -135 0 -135 0 -6 118 c-4 64 -9 155 -12 202 l-5 85 19 -50 c10 -27 31 -73 45 -101z m1274 -56 l-11 -198 -135 0 -136 0 40 32 c104 83 193 204 231 315 10 29 19 51 20 50 1 -1 -3 -91 -9 -199z m-662 -303 c50 0 109 3 133 8 l42 7 0 -135 0 -135 70 0 c80 0 80 1 55 -95 -22 -81 -71 -170 -118 -210 -107 -92 -291 -90 -385 5 -54 53 -97 159 -104 255 l-3 40 63 3 62 3 0 135 0 135 48 -8 c26 -4 88 -8 137 -8z"></path>
    <path d="M25435 26110 l-160 -160 163 -163 162 -162 162 162 163 163 -160 160 c-88 88 -162 160 -165 160 -3 0 -77 -72 -165 -160z m255 -75 l85 -85 -88 -88 -87 -87 -87 87 -88 88 85 85 c46 47 87 85 90 85 3 0 44 -38 90 -85z"></path>
    <path d="M38078 26083 l-38 -39 135 -134 135 -135 34 35 35 35 -132 138 -132 139 -37 -39z"></path>
    <path d="M40613 25981 l-132 -138 34 -33 c18 -18 37 -31 42 -29 4 2 65 63 135 135 l128 130 -38 36 -37 37 -132 -138z"></path>
    <path d="M39322 25810 c-355 -50 -621 -246 -787 -580 -25 -49 -45 -94 -45 -99 0 -5 -21 -22 -47 -37 -402 -233 -674 -607 -790 -1084 -24 -97 -26 -127 -30 -398 l-5 -293 -130 -237 c-220 -400 -228 -416 -228 -470 0 -31 9 -66 25 -98 43 -88 100 -114 241 -114 l94 0 0 -217 c1 -359 8 -555 21 -608 34 -141 116 -243 247 -308 l85 -42 203 -3 203 -4 3 -256 c3 -247 4 -259 27 -304 31 -63 88 -121 153 -155 l53 -28 670 0 670 0 59 30 c71 36 128 98 158 174 20 50 22 74 23 223 0 135 2 164 13 155 10 -8 27 4 72 48 l59 58 43 -18 c24 -10 46 -22 51 -25 4 -4 8 -43 8 -88 l1 -82 164 0 164 0 0 84 0 83 53 21 52 20 55 -54 c31 -30 60 -54 65 -54 14 0 225 212 225 226 0 5 -24 34 -54 63 l-54 53 21 52 c11 28 22 53 24 56 2 2 37 5 76 6 40 1 75 3 80 3 4 1 7 74 7 164 l0 162 -81 0 -80 0 -23 57 -23 56 61 61 c45 45 69 61 89 61 35 0 34 -17 -4 -56 l-30 -31 75 -79 74 -79 35 34 c20 18 40 30 46 27 6 -4 11 -27 11 -52 l0 -44 105 0 105 0 0 44 c0 25 5 48 11 52 6 3 26 -9 45 -27 l34 -33 77 77 77 77 -33 34 c-18 19 -30 39 -27 45 4 6 27 11 52 11 l44 0 0 109 0 109 -32 -2 c-18 -1 -41 2 -52 7 -17 8 -16 12 15 43 l33 34 -24 27 c-14 16 -47 52 -74 80 l-50 53 -32 -31 c-43 -42 -59 -35 -55 24 l3 47 -111 0 -111 0 0 -50 c0 -59 -13 -64 -55 -20 l-29 30 -78 -77 -78 -77 30 -31 c41 -43 38 -53 -17 -57 l-48 -3 0 -87 c0 -49 -3 -88 -7 -88 -3 0 -48 44 -98 98 l-92 97 -56 -61 -57 -61 -52 23 -53 24 0 54 c0 48 5 60 38 103 121 153 236 351 302 517 43 110 86 280 106 422 22 162 15 478 -14 609 -60 265 -163 488 -320 690 -77 100 -258 278 -344 340 -48 34 -58 47 -73 95 -98 315 -324 570 -607 685 -46 18 -119 41 -163 50 -94 20 -294 27 -383 15z m398 -125 c354 -94 615 -398 697 -812 23 -120 23 -330 -1 -443 -46 -218 -140 -388 -310 -565 -169 -175 -257 -328 -311 -540 l-23 -90 -302 0 -302 0 -23 91 c-53 211 -131 347 -299 525 -137 146 -203 244 -265 392 -130 314 -95 709 92 1022 134 226 343 377 597 431 91 19 362 12 450 -11z m-1304 -821 c-23 -128 -21 -323 4 -445 50 -244 139 -412 323 -609 112 -119 158 -181 213 -284 41 -78 84 -194 97 -264 l7 -34 -60 4 -60 3 0 -335 0 -335 105 3 105 3 18 -32 c50 -95 148 -163 252 -177 136 -19 252 33 331 149 30 45 46 60 62 59 12 -1 59 -2 105 -1 l82 1 0 330 0 330 -54 0 c-30 0 -57 3 -59 8 -10 16 37 163 83 257 56 116 110 190 240 330 174 187 270 374 315 615 16 87 21 301 9 367 -6 32 -5 34 12 25 34 -18 210 -200 266 -274 211 -280 316 -577 323 -913 10 -449 -108 -808 -388 -1177 l-51 -68 -123 0 -123 0 0 -83 0 -83 -52 -22 -52 -22 -58 57 -58 58 -117 -118 -118 -117 58 -58 58 -58 -27 -57 c-14 -32 -31 -57 -37 -56 -7 1 -42 1 -79 0 l-68 -1 0 -165 0 -164 81 -3 82 -3 20 -53 20 -53 -56 -57 -55 -57 49 -55 49 -55 0 -204 c0 -124 -4 -219 -11 -242 -16 -50 -61 -105 -112 -132 -42 -22 -44 -22 -655 -25 -694 -3 -690 -4 -761 67 -66 66 -71 97 -71 408 l0 273 -198 0 c-109 0 -225 5 -258 11 -119 22 -222 106 -265 217 -22 54 -23 77 -30 422 -4 201 -7 402 -8 448 l-1 82 -127 1 c-71 0 -144 5 -163 12 -40 14 -74 67 -66 107 3 14 83 169 179 345 l175 320 5 295 c4 271 7 304 30 400 34 142 60 215 121 345 89 187 202 344 339 471 72 67 207 168 214 160 2 -2 -3 -44 -11 -92z m1235 -2312 c-14 -27 -43 -49 -91 -71 -81 -37 -171 -23 -240 36 -22 19 -40 39 -40 44 0 5 81 9 190 9 179 0 190 -1 181 -18z m1013 -663 c59 -15 114 -62 142 -123 40 -86 28 -170 -34 -238 -139 -154 -376 -61 -376 147 0 100 60 183 151 212 49 15 65 15 117 2z"></path>
    <path d="M39425 25009 c-170 -215 -328 -412 -349 -440 l-39 -49 18 -40 18 -40 179 0 c98 0 178 -3 178 -7 0 -3 -24 -52 -54 -107 -30 -56 -99 -186 -155 -289 -56 -104 -101 -191 -101 -193 0 -5 73 -54 81 -54 3 0 149 154 325 343 175 188 352 378 394 422 132 140 123 125 103 173 l-18 41 -206 3 -207 3 114 274 c62 151 116 281 119 290 3 11 -8 23 -35 39 -21 12 -43 22 -47 21 -4 0 -147 -176 -318 -390z m101 -122 l-63 -154 21 -29 c11 -16 25 -33 31 -37 5 -5 91 -6 189 -3 l179 5 -25 -27 c-104 -114 -441 -472 -444 -472 -3 0 13 33 35 73 22 39 58 106 80 147 l39 74 -21 38 -22 37 -167 3 -168 3 198 248 c108 136 198 247 199 247 1 0 -26 -69 -61 -153z"></path>
    <path d="M33670 24980 l0 -650 1450 0 1450 0 0 650 0 650 -1450 0 -1450 0 0 -650z m2790 -200 l0 -350 -1345 0 -1345 0 0 350 0 350 1345 0 1345 0 0 -350z"></path>
    <path d="M35919 25090 c-88 -15 -156 -67 -198 -152 -88 -176 22 -377 220 -404 102 -14 217 48 273 146 28 49 31 64 31 135 0 97 -20 141 -94 207 -64 58 -146 82 -232 68z m131 -120 c58 -30 95 -90 94 -154 -2 -109 -71 -176 -183 -176 -108 0 -193 116 -162 221 33 109 151 160 251 109z"></path>
    <path d="M34000 24970 l0 -50 490 0 490 0 0 50 0 50 -490 0 -490 0 0 -50z"></path>
    <path d="M34000 24660 l0 -50 230 0 230 0 0 50 0 50 -230 0 -230 0 0 -50z"></path>
    <path d="M37670 24850 l0 -50 179 0 180 0 -1 50 0 50 -179 0 -179 0 0 -50z"></path>
    <path d="M40834 24850 l0 -50 178 0 178 0 0 50 0 50 -178 0 -178 0 0 -50z"></path>
    <path d="M29012 24083 l3 -278 1283 -3 1282 -2 275 141 c151 78 275 144 275 148 0 4 -124 66 -275 139 l-276 132 -1285 0 -1284 0 2 -277z m208 2 l0 -175 -50 0 -50 0 0 175 0 175 50 0 50 0 0 -175z m2096 162 c-13 -10 -17 -24 -14 -57 3 -42 6 -46 56 -74 28 -17 52 -33 52 -37 0 -4 -25 -20 -55 -35 -55 -28 -55 -28 -55 -75 0 -29 5 -49 13 -52 6 -3 -396 -6 -895 -6 l-908 -1 0 175 0 175 912 0 c746 0 909 -2 894 -13z m578 -157 c9 -9 -304 -173 -339 -178 -11 -1 -42 11 -69 27 l-48 28 61 34 62 34 -3 44 c-3 43 -5 46 -61 79 -32 18 -57 36 -55 38 3 2 28 17 57 33 l53 29 167 -80 c91 -44 170 -84 175 -88z m-2494 -5 l0 -165 -40 0 -40 0 0 165 0 165 40 0 40 0 0 -165z"></path>
    <path d="M7840 23875 l0 -235 235 0 235 0 0 235 0 235 -235 0 -235 0 0 -235z m350 125 c13 0 15 -19 13 -118 -1 -64 -2 -121 -2 -127 -1 -8 -176 -12 -253 -6 -8 1 -11 244 -4 252 4 3 93 3 246 -1z"></path>
    <path d="M33070 23155 l0 -345 -2050 0 -2050 0 0 -2150 0 -2150 1225 0 1225 0 0 -305 0 -305 -475 0 -475 0 0 -205 0 -205 1783 2 1782 3 3 203 2 202 -530 0 -530 0 0 305 0 305 1275 0 1275 0 0 280 0 280 478 2 477 3 3 2212 2 2212 -1710 1 -1710 0 0 -345z m3310 20 l0 -225 -217 2 -218 3 -3 223 -2 222 220 0 220 0 0 -225z m-540 -55 l0 -270 270 0 270 0 0 -1835 0 -1835 -1605 0 -1605 0 0 2105 0 2105 1335 0 1335 0 0 -270z m-2770 -520 l0 -100 -1880 0 -1880 0 0 -1535 0 -1535 1878 -2 1877 -3 3 -117 3 -118 -2001 0 -2000 0 0 1755 0 1755 2000 0 2000 0 0 -100z m-5 -1310 l0 -1105 -1522 -3 -1523 -2 0 -55 0 -55 1525 0 1526 0 -3 -267 -3 -268 -1822 -3 -1823 -2 0 1435 0 1435 1823 -2 1822 -3 0 -1105z m0 -2210 c4 -7 410 -10 1186 -10 l1179 0 0 -225 0 -225 -3180 0 -3180 0 0 228 c0 126 3 232 7 235 11 12 3981 8 3988 -3z m-185 -875 l0 -305 -680 0 -680 0 0 305 0 305 680 0 680 0 0 -305z m1048 -507 l3 -98 -1681 0 -1680 0 0 93 c0 52 2 96 4 98 2 2 757 4 1678 4 l1673 0 3 -97z"></path>
    <path d="M34020 23015 l0 -55 755 0 755 0 0 55 0 55 -755 0 -755 0 0 -55z"></path>
    <path d="M34657 22775 c-184 -51 -338 -210 -382 -396 -28 -121 -16 -223 41 -347 82 -180 273 -302 472 -302 300 0 536 233 536 530 0 297 -236 532 -531 529 -48 0 -110 -7 -136 -14z"></path>
    <path d="M33512 21218 l3 -283 1263 -3 1262 -2 0 285 0 285 -1265 0 -1265 0 2 -282z m2428 2 c0 -178 0 -180 -22 -185 -13 -3 -534 -4 -1158 -3 l-1135 3 -3 183 -2 182 1160 0 1160 0 0 -180z"></path>
    <path d="M33515 20777 c-3 -7 -4 -136 -3 -287 l3 -275 1263 -3 1262 -2 0 290 0 290 -1260 0 c-1007 0 -1262 -3 -1265 -13z m2425 -277 l0 -180 -1160 0 -1160 0 0 180 0 180 1160 0 1160 0 0 -180z"></path>
    <path d="M33500 19755 l0 -325 1270 0 1270 0 0 325 0 325 -1270 0 -1270 0 0 -325z m2440 0 l0 -225 -1170 0 -1170 0 0 225 0 225 1170 0 1170 0 0 -225z"></path>
    <path d="M34220 19755 l0 -55 585 0 585 0 0 55 0 55 -585 0 -585 0 0 -55z"></path>
    <path d="M29667 22173 c-4 -3 -7 -28 -7 -55 l0 -48 1266 0 1265 0 -3 53 -3 52 -1256 3 c-690 1 -1259 -1 -1262 -5z"></path>
    <path d="M30370 21790 l0 -50 255 0 255 0 0 50 0 50 -255 0 -255 0 0 -50z"></path>
    <path d="M29660 21460 l0 -50 510 0 510 0 0 50 0 50 -510 0 -510 0 0 -50z"></path>
    <path d="M29662 21128 l3 -53 748 -3 747 -2 0 55 0 55 -751 0 -750 0 3 -52z"></path>
    <path d="M31500 21125 l0 -55 750 0 750 0 0 55 0 55 -750 0 -750 0 0 -55z"></path>
    <path d="M30048 20812 c-7 -78 -40 -72 378 -72 l375 0 -3 53 -3 52 -371 3 -372 2 -4 -38z"></path>
    <path d="M30930 20795 l0 -55 216 0 215 0 -3 53 -3 52 -212 3 -213 2 0 -55z"></path>
    <path d="M29660 20460 l0 -50 1265 0 1265 0 0 50 0 50 -1265 0 -1265 0 0 -50z"></path>
    <path d="M30539 19845 c0 -3 -1 -26 -1 -52 l-1 -48 347 -3 346 -2 0 55 0 55 -345 0 c-190 0 -345 -2 -346 -5z"></path>
    <path d="M32105 19054 c-71 -37 -105 -91 -105 -169 0 -60 19 -103 63 -142 88 -77 233 -48 287 57 36 70 19 173 -36 221 -56 49 -150 64 -209 33z m131 -108 c21 -18 28 -32 28 -61 0 -86 -118 -116 -153 -38 -18 39 -13 63 18 94 36 35 70 37 107 5z"></path>
    <path d="M4288 22227 c-130 -37 -222 -164 -212 -295 8 -104 51 -178 133 -231 61 -39 150 -56 217 -41 98 22 189 103 216 192 7 23 17 38 27 38 9 0 500 0 1091 0 591 1 1082 1 1090 0 8 -1 -39 -17 -104 -36 -1050 -309 -1894 -1080 -2299 -2099 -145 -363 -224 -737 -243 -1142 l-7 -143 52 0 c42 0 51 3 52 18 16 417 62 695 171 1032 127 395 324 756 602 1104 106 134 374 400 511 510 529 421 1133 668 1808 740 l47 5 0 -110 0 -109 285 0 285 0 0 111 0 111 28 -6 c15 -2 59 -8 97 -11 259 -24 643 -128 929 -250 983 -420 1728 -1296 1981 -2330 47 -191 73 -352 86 -525 6 -80 13 -178 15 -217 l6 -73 50 0 51 0 -7 147 c-48 1071 -572 2051 -1439 2692 -216 160 -498 319 -746 420 -128 53 -371 135 -435 146 -20 4 -38 10 -40 14 -2 3 258 5 577 4 320 -2 835 -3 1144 -3 l561 0 13 -37 c53 -164 246 -246 402 -170 104 52 161 144 161 262 0 150 -101 268 -250 291 -130 19 -272 -70 -313 -198 l-13 -38 -1429 0 -1429 0 0 115 0 115 -285 0 -285 0 0 -115 0 -115 -1393 0 -1392 0 -17 48 c-49 136 -210 218 -350 179z m155 -111 c46 -19 86 -66 101 -117 23 -78 -1 -150 -67 -203 -31 -25 -49 -31 -100 -34 -73 -4 -115 15 -161 72 -71 87 -30 243 74 285 37 14 116 13 153 -3z m3458 -166 c-1 -96 -5 -178 -7 -182 -6 -9 -330 -6 -339 3 -5 5 -10 293 -6 346 1 8 50 11 178 10 l177 -2 -3 -175z m3326 169 c35 -13 80 -55 100 -93 19 -36 18 -126 -1 -163 -19 -37 -64 -79 -99 -92 -66 -25 -165 -4 -208 45 -67 76 -63 204 7 265 53 46 137 62 201 38z"></path>
    <path d="M7771 19359 c-1 -728 2 -1329 7 -1335 4 -6 26 -21 49 -34 57 -32 95 -88 101 -150 7 -74 -5 -113 -48 -163 -101 -114 -272 -91 -342 46 -16 32 -19 54 -16 103 5 78 38 130 108 168 l50 27 -1 1325 c0 787 -4 1324 -9 1324 -5 0 -17 -15 -26 -32 -15 -28 -102 -180 -474 -823 -31 -55 -91 -158 -133 -230 -41 -71 -165 -285 -274 -475 -110 -190 -270 -466 -355 -615 -86 -148 -206 -358 -268 -465 -235 -406 -211 -358 -194 -392 8 -16 20 -31 27 -33 106 -30 226 -75 287 -105 485 -246 739 -809 602 -1337 l-29 -113 888 0 887 0 -19 63 c-33 108 -50 227 -48 349 4 328 130 614 370 843 139 133 304 229 474 275 44 12 85 24 92 26 7 1 19 16 27 33 l16 30 -178 308 c-98 169 -275 475 -392 678 -117 204 -243 422 -280 485 -97 167 -612 1059 -753 1305 -66 116 -126 216 -133 224 -10 11 -13 -247 -13 -1310z m-255 -1319 c-73 -67 -101 -131 -100 -230 0 -122 61 -222 168 -278 44 -23 63 -27 141 -27 78 0 97 4 141 27 108 57 169 157 168 278 0 98 -27 161 -100 230 l-54 51 2 1099 3 1099 104 -182 c58 -100 143 -247 189 -327 46 -80 110 -190 142 -245 32 -55 89 -154 127 -220 39 -66 157 -271 263 -455 324 -563 530 -919 602 -1042 37 -64 68 -119 68 -121 0 -2 -35 -17 -77 -32 -179 -62 -328 -153 -464 -282 -234 -223 -364 -487 -399 -813 -14 -123 -1 -309 26 -402 5 -17 -35 -18 -746 -18 l-752 0 7 28 c17 65 25 156 25 285 0 266 -66 484 -215 707 -146 220 -383 403 -635 491 -36 12 -69 26 -73 30 -5 4 23 63 63 130 112 192 580 1002 956 1654 72 127 171 298 219 380 48 83 124 214 169 292 l81 142 3 -1100 2 -1100 -54 -49z"></path>
    <path d="M2926 20553 c-3 -21 -6 -120 -6 -220 l0 -183 220 0 220 0 0 220 0 220 -214 0 -213 0 -7 -37z m334 -185 l0 -118 -117 0 -118 0 1 113 c0 61 1 114 2 117 1 3 54 5 117 5 l115 0 0 -117z"></path>
    <path d="M37340 20100 l0 -230 225 0 225 0 0 230 0 230 -225 0 -225 0 0 -230z m263 121 l87 -1 0 -120 0 -120 -92 -1 c-96 -2 -137 -2 -150 0 -13 2 -9 239 3 243 7 2 23 3 38 2 14 -1 65 -2 114 -3z"></path>
    <path d="M5550 19431 l0 -220 218 2 217 2 0 215 0 215 -217 3 -218 2 0 -219z m330 4 l0 -115 -115 0 -115 0 0 115 0 115 115 0 115 0 0 -115z"></path>
    <path d="M37230 17245 l0 -1725 1338 0 1339 0 37 -95 c69 -175 161 -309 309 -452 184 -177 394 -287 662 -345 92 -19 380 -16 483 6 260 55 479 173 663 356 249 248 380 563 380 915 0 248 -62 467 -193 689 l-23 38 50 44 c28 24 54 44 58 44 4 0 18 -12 31 -27 l24 -27 117 104 c65 58 123 108 128 111 8 6 -343 440 -362 447 -6 2 -161 -129 -240 -203 -11 -11 -9 -19 13 -48 l27 -35 -62 -51 c-33 -28 -67 -51 -75 -51 -12 0 -14 147 -14 1015 l0 1015 -2345 0 -2345 0 0 -1725z m4580 938 c0 -16 1 -283 2 -596 2 -312 1 -566 -2 -564 -3 1 -38 19 -78 40 -72 37 -264 107 -295 107 -18 0 -26 11 -32 40 -3 17 2 20 31 20 l34 0 0 95 0 95 116 0 116 0 -7 78 c-19 215 -137 395 -319 487 -129 64 -265 80 -400 45 -110 -28 -190 -74 -271 -155 -105 -104 -156 -219 -171 -384 l-7 -71 112 0 111 0 0 -95 0 -95 45 0 c43 0 45 -1 45 -30 0 -31 -10 -38 -72 -54 -21 -5 -28 -3 -28 9 0 13 -35 15 -271 15 l-271 0 -86 73 c-48 40 -92 77 -99 80 -7 5 -37 -23 -79 -73 l-67 -80 -574 0 -573 0 0 -56 0 -55 521 2 c286 0 522 -1 524 -3 3 -2 -25 -39 -60 -82 -36 -43 -65 -82 -65 -86 0 -5 57 -56 128 -113 l127 -106 21 27 22 26 56 -43 c31 -24 59 -47 61 -51 3 -4 -23 -62 -58 -129 l-62 -121 -363 0 -363 0 3 -51 3 -51 344 1 343 0 -5 -27 c-4 -15 -13 -58 -22 -97 -28 -123 -28 -374 1 -507 l6 -28 -1274 0 -1273 0 2 1282 c2 706 3 1289 3 1296 0 9 454 12 2235 12 l2235 0 0 -27z m-541 -265 c73 -24 139 -68 196 -129 49 -52 109 -168 120 -231 l6 -38 -61 0 -60 0 0 90 0 89 -328 1 c-180 0 -342 -2 -360 -6 l-32 -6 0 -84 0 -84 -55 0 -56 0 7 38 c18 99 65 182 147 259 124 118 312 158 476 101z m99 -455 l3 -123 -261 0 -260 0 0 125 0 125 258 -2 257 -3 3 -122z m-68 -248 c0 -13 -23 -15 -149 -15 -82 0 -162 -3 -179 -6 -29 -6 -33 -1 -23 34 1 1 80 2 176 2 149 0 175 -2 175 -15z m-1231 -73 l45 -39 -20 -26 c-40 -53 -209 -256 -214 -256 -3 0 -26 18 -52 42 l-47 42 116 138 c63 75 118 137 122 137 3 0 26 -17 50 -38z m2306 -96 c60 -74 111 -138 112 -143 2 -5 -17 -26 -43 -47 -38 -32 -48 -36 -58 -25 -55 61 -216 260 -216 268 0 10 79 81 89 80 3 0 55 -60 116 -133z m-988 30 c366 -79 669 -316 831 -648 93 -188 129 -368 119 -581 -15 -310 -141 -584 -369 -803 -468 -448 -1205 -439 -1663 21 -469 470 -467 1220 4 1685 181 180 405 295 649 335 108 18 328 13 429 -9z m-837 -17 c0 -4 -8 -10 -19 -14 -10 -3 -55 -30 -101 -60 -46 -30 -85 -55 -88 -55 -11 0 -132 107 -132 117 0 9 37 13 138 15 75 2 152 3 170 4 17 0 32 -3 32 -7z m1651 -176 l63 -76 -44 -39 -45 -39 -39 43 c-21 24 -50 58 -64 77 l-26 34 44 38 c25 22 46 39 46 39 1 0 30 -34 65 -77z m-2008 32 l39 -34 -63 -75 c-35 -42 -66 -76 -69 -76 -3 1 -24 18 -47 38 l-42 37 60 73 c33 39 66 72 72 72 7 -1 29 -16 50 -35z"></path>
    <path d="M37740 17915 l0 -55 799 0 c630 0 800 3 803 13 3 6 4 30 4 52 l-2 40 -802 3 -802 2 0 -55z"></path>
    <path d="M37740 17520 c0 -43 3 -50 23 -55 12 -3 373 -4 802 -3 l780 3 0 50 0 50 -802 3 -803 2 0 -50z"></path>
    <path d="M39492 17518 l3 -53 318 -2 317 -2 0 55 0 54 -321 0 -320 0 3 -52z"></path>
    <path d="M37740 17121 c0 -35 4 -51 16 -55 9 -3 175 -6 369 -6 273 0 354 3 357 13 2 6 4 30 3 52 l0 40 -372 3 -373 2 0 -49z"></path>
    <path d="M37740 16720 l0 -50 380 0 380 0 0 50 0 50 -380 0 -380 0 0 -50z"></path>
    <path d="M37740 16320 l0 -50 600 0 600 0 0 50 0 50 -600 0 -600 0 0 -50z"></path>
    <path d="M37740 15920 l0 -50 794 0 794 0 -2 48 -2 47 -792 3 -792 2 0 -50z"></path>
    <path d="M41096 17003 c-3 -10 -4 -74 -3 -143 l2 -125 53 -3 52 -3 0 145 0 146 -49 0 c-39 0 -51 -4 -55 -17z"></path>
    <path d="M41715 16620 c-52 -20 -59 -79 -13 -113 23 -17 31 -19 53 -9 14 6 31 23 37 38 22 47 -29 102 -77 84z"></path>
    <path d="M40477 16592 c-23 -25 -21 -68 3 -92 27 -27 56 -25 85 5 29 28 31 51 9 83 -19 28 -74 30 -97 4z"></path>
    <path d="M41000 16464 c-361 -96 -540 -485 -378 -820 41 -85 140 -192 221 -240 129 -75 280 -101 418 -70 330 73 523 392 439 721 -11 44 -17 82 -13 86 5 3 94 53 200 109 l191 103 -21 44 c-11 23 -25 43 -29 43 -5 0 -96 -48 -203 -106 l-194 -106 -73 74 c-121 121 -256 178 -423 177 -44 0 -105 -7 -135 -15z m231 -94 c84 -16 173 -63 239 -126 33 -31 60 -60 60 -64 0 -5 -23 -20 -52 -35 -28 -15 -59 -32 -68 -37 -13 -9 -28 -2 -68 30 -66 52 -110 66 -197 66 -211 0 -348 -198 -280 -404 38 -113 151 -192 279 -193 96 0 160 28 226 100 63 69 85 137 76 233 l-6 66 66 37 c37 20 70 37 74 37 11 0 30 -74 37 -143 12 -136 -49 -291 -153 -386 -167 -153 -415 -168 -599 -36 -288 206 -260 637 52 807 96 53 203 69 314 48z m23 -299 l38 -24 -84 -45 c-45 -25 -84 -46 -86 -47 -5 -4 42 -95 49 -95 3 0 42 20 85 44 l79 43 3 -30 c9 -79 -36 -153 -113 -188 -187 -86 -361 150 -225 305 45 51 85 67 155 63 42 -2 72 -10 99 -26z"></path>
    <path d="M40040 15910 l0 -50 145 0 145 0 0 50 0 50 -145 0 -145 0 0 -50z"></path>
    <path d="M41970 15910 l0 -50 140 0 c105 0 140 3 141 13 0 6 2 29 4 50 l4 37 -144 0 -145 0 0 -50z"></path>
    <path d="M41702 15368 c-29 -15 -39 -55 -21 -87 20 -36 80 -42 103 -9 23 33 20 64 -10 87 -30 23 -39 24 -72 9z"></path>
    <path d="M40510 15362 c-74 -23 -60 -124 17 -124 29 0 63 33 63 61 0 39 -45 74 -80 63z"></path>
    <path d="M41093 14948 l2 -143 53 -3 52 -3 0 145 0 146 -54 0 -54 0 1 -142z"></path>
    <path d="M35895 17660 l-160 -160 160 -160 160 -160 160 160 160 160 -160 160 -160 160 -160 -160z m245 -75 l85 -85 -88 -88 -87 -87 -87 87 -88 88 85 85 c46 47 87 85 90 85 3 0 44 -38 90 -85z"></path>
    <path d="M28972 17597 l-162 -162 165 -165 165 -165 165 165 165 165 -162 162 c-90 90 -165 163 -168 163 -3 0 -78 -73 -168 -163z m348 -162 c0 -5 -39 -49 -87 -97 l-88 -88 -92 92 -93 93 92 92 93 93 87 -87 c49 -48 88 -92 88 -98z"></path>
    <path d="M3150 15705 l0 -1455 1195 0 1195 0 0 1455 0 1455 -1195 0 -1195 0 0 -1455z m2290 -290 l0 -1065 -1095 0 -1095 0 0 1058 c0 582 3 1062 7 1065 3 4 496 7 1095 7 l1088 0 0 -1065z"></path>
    <path d="M3462 15848 l3 -473 880 0 880 0 3 473 2 472 -885 0 -885 0 2 -472z m1659 125 c0 -137 2 -256 4 -265 4 -23 -1 -25 -64 -33 -83 -9 -244 12 -536 70 -148 30 -324 61 -390 70 -136 18 -403 21 -484 5 -94 -18 -86 -36 -83 195 l3 205 774 0 775 0 1 -247z m-961 -268 c58 -9 204 -36 325 -60 294 -60 399 -75 528 -75 l107 0 0 -45 0 -45 -775 0 -775 0 0 109 0 109 32 7 c122 27 374 27 558 0z"></path>
    <path d="M4792 16107 c-52 -30 -71 -111 -38 -162 21 -32 79 -58 109 -50 67 19 97 56 97 121 0 52 -53 104 -106 104 -22 -1 -49 -6 -62 -13z"></path>
    <path d="M3547 15233 c-4 -3 -7 -28 -7 -55 l0 -48 821 0 820 0 -3 53 -3 52 -811 3 c-446 1 -814 -1 -817 -5z"></path>
    <path d="M3540 14930 l0 -50 820 0 820 0 0 50 0 50 -820 0 -820 0 0 -50z"></path>
    <path d="M3540 14680 l0 -50 275 0 275 0 0 50 0 50 -275 0 -275 0 0 -50z"></path>
    <path d="M32710 15695 l0 -605 660 0 660 0 0 -251 c0 -138 -3 -249 -7 -247 -79 40 -113 51 -167 51 -80 0 -153 -31 -207 -90 -76 -83 -74 -66 -77 -549 -3 -482 0 -520 62 -650 58 -122 219 -257 351 -294 l45 -13 0 -143 0 -144 -60 0 -60 0 0 -115 0 -115 -55 0 -55 0 0 -360 0 -360 1179 0 c649 0 1187 3 1196 6 14 6 16 41 14 355 -1 314 -3 349 -18 351 -9 1 -34 2 -56 2 l-40 1 -3 118 -3 117 -59 0 -60 0 0 828 0 827 -24 50 c-43 93 -153 165 -251 165 -52 0 -133 -29 -169 -60 l-33 -30 -26 39 c-86 129 -270 160 -393 66 l-32 -24 -28 45 c-81 128 -238 158 -396 76 -5 -2 -8 75 -8 172 l0 176 1000 0 1000 0 0 605 0 605 -1940 0 -1940 0 0 -605z m3770 5 l0 -500 -945 0 -945 0 0 220 0 220 643 2 642 3 3 52 3 53 -647 2 -647 3 -14 42 c-19 57 -83 126 -145 157 -141 70 -335 -8 -384 -156 l-16 -48 -319 0 -319 0 0 -55 0 -55 320 0 320 0 0 -220 0 -220 -610 0 -610 0 0 500 0 500 1835 0 1835 0 0 -500z m-2128 170 c48 -14 97 -55 114 -97 11 -26 14 -151 14 -648 l0 -615 54 0 53 0 7 40 c13 81 117 152 199 135 98 -20 147 -95 147 -223 l0 -82 49 0 48 0 7 46 c21 155 173 222 287 127 41 -35 59 -74 59 -128 l0 -45 53 0 c51 0 52 1 75 44 33 62 75 89 144 94 76 6 136 -27 167 -91 21 -43 21 -51 21 -855 l0 -812 -860 0 -860 0 0 184 0 184 -52 12 c-133 28 -285 135 -342 240 -54 99 -56 118 -56 595 0 437 0 440 23 479 14 25 39 48 66 63 105 55 223 2 254 -114 l11 -43 48 0 48 0 0 678 c0 440 4 690 11 715 13 48 67 102 116 115 51 13 52 13 95 2z m1618 -3277 l0 -68 -352 2 c-194 1 -635 2 -980 2 l-628 1 0 65 0 65 980 0 980 0 0 -67z"></path>
    <path d="M6850 15615 l0 -335 879 0 880 0 -2 333 -2 332 -877 3 -878 2 0 -335z m1650 0 l0 -235 -775 0 -775 0 0 235 0 235 775 0 775 0 0 -235z"></path>
    <path d="M8602 13868 l3 -1003 1648 -3 1647 -2 0 1005 0 1005 -1650 0 -1650 0 2 -1002z m3198 -213 l0 -685 -1544 0 c-1437 0 -1545 1 -1548 17 -2 9 -2 317 0 685 l2 668 1545 0 1545 0 0 -685z"></path>
    <path d="M8877 14162 l-147 -147 145 -145 145 -145 148 148 147 147 -145 145 -145 145 -148 -148z m221 -75 l72 -72 -73 -73 -72 -72 -75 75 -74 75 69 70 c38 38 72 70 75 70 3 0 38 -33 78 -73z"></path>
    <path d="M10390 14165 l-145 -145 148 -148 147 -147 147 147 148 148 -145 145 c-80 80 -147 145 -150 145 -3 0 -70 -65 -150 -145z m225 -75 l70 -70 -73 -73 -72 -72 -72 72 -73 73 70 70 c38 38 72 70 75 70 3 0 37 -32 75 -70z"></path>
    <path d="M9440 14020 l0 -50 340 0 340 0 0 50 0 50 -340 0 -340 0 0 -50z"></path>
    <path d="M10954 14056 c-3 -8 -4 -29 -2 -48 l3 -33 343 -3 342 -2 0 50 0 50 -340 0 c-283 0 -342 -2 -346 -14z"></path>
    <path d="M8877 13462 l-147 -147 145 -145 145 -145 148 148 147 147 -145 145 -145 145 -148 -148z m221 -75 l72 -72 -73 -73 -72 -72 -75 75 -74 75 69 70 c38 38 72 70 75 70 3 0 38 -33 78 -73z"></path>
    <path d="M10390 13465 l-145 -145 148 -148 147 -147 145 145 145 145 -148 148 -147 147 -145 -145z m225 -75 l69 -70 -74 -75 -74 -75 -68 67 c-38 37 -68 72 -68 77 0 11 130 146 140 146 3 0 37 -32 75 -70z"></path>
    <path d="M9440 13315 l0 -55 340 0 340 1 0 54 0 55 -340 0 -340 0 0 -55z"></path>
    <path d="M10955 13358 c-3 -11 -1 -56 4 -91 1 -8 644 -9 667 0 9 3 14 21 14 54 l0 49 -340 0 c-264 0 -342 -3 -345 -12z"></path>
    <path d="M7070 14130 l0 -230 235 0 236 0 -1 216 c-1 119 -4 222 -7 230 -4 11 -47 14 -234 14 l-229 0 0 -230z m360 0 l0 -130 -130 0 -130 0 0 130 0 130 130 0 130 0 0 -130z"></path>
    <path d="M39810 14030 l0 -120 -65 0 -65 0 0 -930 0 -930 1170 0 1170 0 0 930 0 930 -582 0 -583 0 -65 118 -65 117 -458 3 -457 2 0 -120z m916 -100 l68 -120 558 0 558 0 0 -80 0 -80 -1060 0 -1060 0 0 80 0 80 60 0 60 0 0 120 0 120 374 0 374 0 68 -120z m1184 -1080 l0 -690 -1060 0 -1060 0 0 690 0 690 1060 0 1060 0 0 -690z"></path>
    <path d="M37915 13875 c-123 -27 -254 -86 -375 -169 -65 -45 -86 -53 -152 -64 -102 -16 -161 -44 -229 -112 -65 -64 -103 -138 -124 -235 -18 -84 -21 -648 -5 -736 13 -67 67 -184 107 -230 27 -30 31 -43 36 -119 14 -201 125 -407 275 -510 49 -34 50 -36 57 -98 4 -35 4 -66 1 -69 -3 -3 -34 -8 -68 -10 -211 -16 -427 -159 -525 -349 -73 -141 -75 -154 -80 -567 l-5 -367 1039 2 1038 3 -1 365 c0 364 0 365 -26 442 -91 273 -299 440 -590 473 l-58 6 0 64 0 64 44 30 c64 44 168 161 205 230 57 108 75 176 85 328 2 25 14 59 29 81 42 65 86 159 102 219 12 44 15 124 15 358 0 242 3 311 16 355 11 39 17 121 21 281 l6 226 -69 6 c-38 3 -139 26 -224 51 -85 24 -182 49 -214 55 -80 15 -257 13 -331 -4z m400 -118 c50 -13 131 -36 180 -50 50 -14 102 -28 118 -31 l27 -6 0 -156 c0 -98 -5 -180 -14 -222 -11 -48 -16 -159 -19 -387 -4 -259 -7 -328 -20 -360 -15 -38 -16 -19 -16 304 l-1 344 -42 -37 c-139 -119 -294 -164 -598 -173 -211 -6 -378 12 -515 58 -95 32 -141 58 -205 116 l-40 35 -1 -358 c-1 -343 -1 -357 -17 -324 -15 31 -17 80 -17 410 l0 375 28 60 c56 119 150 185 265 185 59 0 67 3 120 43 128 97 243 155 370 187 106 27 271 22 397 -13z m-943 -812 c283 -98 769 -91 1039 15 l50 20 -3 -427 c-4 -422 -4 -429 -27 -492 -54 -145 -174 -278 -309 -342 -325 -153 -708 14 -824 361 -21 62 -22 85 -26 484 -3 402 -3 418 15 411 10 -4 48 -18 85 -30z m323 -1365 c125 -32 269 -26 407 16 15 4 17 -1 12 -48 -5 -47 -19 -72 -122 -225 -63 -95 -119 -173 -122 -173 -4 0 -61 80 -127 178 -97 143 -122 187 -128 225 -4 26 -5 47 -3 47 3 0 40 -9 83 -20z m14 -390 c85 -127 157 -230 161 -230 4 0 77 103 161 230 l154 229 60 0 c198 1 407 -126 492 -299 58 -119 63 -154 63 -477 l0 -293 -930 0 -930 0 0 293 c0 324 5 361 63 477 41 83 150 194 230 234 85 42 172 65 252 65 l70 0 154 -229z"></path>
    <path d="M4120 12380 l0 -1019 -162 1 -162 0 1 -33 c2 -76 -40 -69 379 -69 l375 0 -3 52 -3 52 -151 -3 c-100 -2 -154 1 -158 8 -5 8 -10 648 -6 742 0 3 308 120 685 259 377 139 685 256 685 259 0 6 -21 17 -535 286 -176 92 -365 191 -420 220 -55 29 -163 85 -240 125 -77 40 -168 88 -202 106 -34 19 -67 34 -73 34 -7 0 -10 -326 -10 -1020z"></path>
    <path d="M42490 13254 c-58 -25 -109 -82 -126 -142 -31 -106 10 -206 107 -256 l54 -29 0 -683 0 -684 -612 0 c-337 0 -613 1 -613 3 0 1 32 29 70 62 39 33 70 64 70 70 0 5 -14 25 -31 43 l-29 33 -141 -123 -141 -123 143 -137 143 -138 33 32 c18 18 33 35 33 39 0 4 -30 37 -67 73 l-68 66 658 0 657 0 0 734 0 734 45 22 c49 24 85 64 110 123 45 108 -19 246 -134 285 -46 16 -119 14 -161 -4z m148 -104 c45 -28 68 -82 53 -130 -18 -59 -53 -85 -118 -85 -49 0 -58 3 -84 33 -23 26 -29 42 -29 78 0 100 94 155 178 104z"></path>
    <path d="M6690 12515 l0 -185 -95 0 -95 0 0 -1480 0 -1480 1770 0 1770 0 0 1480 0 1480 -888 0 -887 0 -31 53 c-17 28 -64 112 -105 184 l-74 133 -682 0 -683 0 0 -185z m1305 67 c8 -9 57 -91 108 -182 l92 -165 870 -5 870 -5 3 -222 2 -223 -80 0 -80 0 0 135 0 135 -1510 0 -1510 0 0 -135 0 -135 -80 0 -80 0 0 219 c0 172 3 220 13 224 7 3 50 4 95 3 l82 -1 1 173 c1 94 3 177 4 182 1 6 3 12 4 15 0 3 267 5 591 5 546 -1 592 -2 605 -18z m1695 -722 l0 -100 -1420 0 c-781 0 -1421 3 -1421 8 -5 25 -7 167 -2 178 4 12 219 14 1424 14 l1419 0 0 -100z m250 -1285 l0 -1095 -1670 0 -1670 0 0 1095 0 1095 1670 0 1670 0 0 -1095z"></path>
    <path d="M8800 10035 l0 -55 463 2 462 3 3 53 3 52 -465 0 -466 0 0 -55z"></path>
    <path d="M8800 9810 l0 -50 465 0 465 0 0 50 0 50 -465 0 -465 0 0 -50z"></path>
    <path d="M23594 11026 c-303 -76 -350 -486 -72 -625 34 -17 69 -31 80 -31 17 0 18 -40 18 -1135 l0 -1135 -1099 -2 c-605 -2 -1109 -1 -1121 2 -17 4 5 27 129 135 83 72 150 135 151 141 0 5 -15 24 -32 41 l-33 32 -218 -191 -217 -191 142 -136 c79 -74 179 -170 223 -213 l81 -77 37 36 36 37 -142 138 -142 137 1153 0 1152 1 0 1190 c0 1127 1 1190 18 1190 9 0 44 13 77 29 179 84 247 312 141 479 -74 117 -230 181 -362 148z m164 -112 c185 -77 190 -341 7 -425 -52 -24 -138 -24 -191 0 -49 22 -111 92 -124 140 -32 114 18 228 122 280 52 25 132 28 186 5z"></path>
    <path d="M33630 10650 l0 -220 220 0 220 0 0 220 0 220 -220 0 -220 0 0 -220z m340 0 l0 -120 -120 0 -120 0 0 120 0 120 120 0 120 0 0 -120z"></path>
    <path d="M4942 10127 l-152 -152 155 -155 155 -155 155 155 155 155 -152 152 c-84 84 -155 153 -158 153 -3 0 -74 -69 -158 -153z m241 -75 l77 -77 -80 -80 -80 -80 -80 80 -80 80 77 77 c43 43 80 78 83 78 3 0 40 -35 83 -78z"></path>
    <path d="M11315 9780 l-160 -160 165 -165 165 -165 165 165 165 165 -160 160 c-88 88 -164 160 -170 160 -6 0 -82 -72 -170 -160z m263 -257 l-93 -93 -92 92 -93 93 92 92 93 93 92 -92 93 -93 -92 -92z"></path>
    <path d="M25970 8565 l0 -235 230 0 230 0 0 235 0 235 -230 0 -230 0 0 -235z m360 3 l0 -133 -130 0 -130 0 0 133 0 132 130 0 130 0 0 -132z"></path>
  </g>
</svg>
